<svg xmlns="http://www.w3.org/2000/svg" width="18" height="18" viewBox="0 0 18 18">
  <g id="_17dd779b09de28b993c60163f6497ba0" data-name="17dd779b09de28b993c60163f6497ba0" transform="translate(-12.05 -11.5)">
    <g id="Group_2" data-name="Group 2" transform="translate(12.05 11.5)">
      <g id="Shape_7_2_" transform="translate(0)">
        <g id="Group_1" data-name="Group 1">
          <path id="Path_1" data-name="Path 1" d="M28.05,28.141l-3.855-3.8h0a7.978,7.978,0,0,0,0-11.465,8.416,8.416,0,0,0-11.721,0,7.993,7.993,0,0,0,0,11.467,8.423,8.423,0,0,0,11.254.424c.007,0,.011-.011.017-.015l4.023,3.75Zm-9.716-2.026a7.71,7.71,0,0,1-5.428-2.2,7.4,7.4,0,0,1,0-10.615,7.8,7.8,0,0,1,10.856,0,7.391,7.391,0,0,1,0,10.617c-.139.137-.285.267-.433.393A7.786,7.786,0,0,1,18.334,26.115Z" transform="translate(-10.05 -10.5)" fill="#ec6337"/>
        </g>
      </g>
    </g>
  </g>
</svg>
