<svg xmlns="http://www.w3.org/2000/svg" width="11.205" height="10.006" viewBox="0 0 11.205 10.006">
  <path id="office-address-icon" d="M4.37,6.858A4.258,4.258,0,0,1,3.344,8.832a4.113,4.113,0,0,1-.882.732.308.308,0,0,1-.349.012,4.992,4.992,0,0,1-1.236-1.1A3.962,3.962,0,0,1,.041,6.661,2.452,2.452,0,0,1,.358,4.916a2.185,2.185,0,0,1,.485-.535A2.336,2.336,0,0,1,2.311,3.84a2.093,2.093,0,0,1,1.411.573,2.084,2.084,0,0,1,.381.459A2.748,2.748,0,0,1,4.37,6.858ZM3.657,9.451h7V2.863H7.895V9.449H7.589V.306H2.93v2.96H2.624V1.6h0V.267A.267.267,0,0,1,2.7.079h0A.267.267,0,0,1,2.893,0H7.626a.267.267,0,0,1,.19.078l.011.012a.267.267,0,0,1,.068.178V2.558h2.837a.22.22,0,0,1,.158.066h0a.22.22,0,0,1,.066.158V9.6a.152.152,0,0,1-.153.152H3.309l.007-.006.008-.006.007-.006.008-.006.005,0h.03l.005,0h0v0h.014l.005,0h.015l.152-.175.01-.008h.005l0,0h0l0,0h0ZM5,5.4h.357a.053.053,0,0,1,.053.053V6.3a.053.053,0,0,1-.053.053H5.083a3.668,3.668,0,0,0-.027-.646c-.013-.1-.032-.2-.055-.3ZM4.965,7.154h.39a.053.053,0,0,1,.052.053v.85a.052.052,0,0,1-.052.053h-.74a4.732,4.732,0,0,0,.349-.955ZM4.52,3.64h.838a.052.052,0,0,1,.052.052v.85a.052.052,0,0,1-.052.053H4.689l-.034-.057a3.031,3.031,0,0,0-.188-.276V3.691A.052.052,0,0,1,4.52,3.64ZM6.035,7.154h.831a.053.053,0,0,1,.052.053v.85a.052.052,0,0,1-.052.056H6.028a.052.052,0,0,1-.053-.053V7.206a.053.053,0,0,1,.053-.053Zm0-1.757h.831a.052.052,0,0,1,.052.053V6.3a.053.053,0,0,1-.052.053H6.028A.053.053,0,0,1,5.975,6.3v-.85A.052.052,0,0,1,6.028,5.4Zm0-1.757h.831a.052.052,0,0,1,.052.052v.85a.052.052,0,0,1-.052.053H6.028a.052.052,0,0,1-.053-.053v-.85a.052.052,0,0,1,.053-.052ZM8.71,6.365H9.922c.014,0,.026.009.026.018v.5c0,.009-.013.019-.026.019H8.7c-.012,0-.026-.009-.026-.019v-.5c0-.01.012-.018.026-.018ZM3.615.971H6.9a.124.124,0,0,1,.123.122v1.3a.124.124,0,0,1-.123.122H3.615a.124.124,0,0,1-.123-.122v-1.3A.123.123,0,0,1,3.615.971ZM8.7,5.275H9.915c.014,0,.026.01.026.019v.5c0,.009-.013.019-.026.019H8.7c-.012,0-.026-.009-.026-.019v-.5C8.677,5.283,8.688,5.275,8.7,5.275Zm0-1.085H9.915c.014,0,.026.01.026.019v.5c0,.009-.013.019-.026.019H8.7c-.012,0-.026-.008-.026-.019V4.2c0-.011.012-.019.026-.019ZM2.22,5.071A1.012,1.012,0,1,1,1.209,6.083,1.012,1.012,0,0,1,2.22,5.071Z" transform="translate(0.125 0.125)" fill="none" stroke="#ec6337" stroke-width="0.25" fill-rule="evenodd"/>
</svg>
