<svg xmlns="http://www.w3.org/2000/svg" width="12.991" height="12.991" viewBox="0 0 12.991 12.991">
  <path id="Path_9684" data-name="Path 9684" d="M115.18,39.971V36.5a2.9,2.9,0,0,0-2.9-2.9h-1.738v1.158h1.737a1.739,1.739,0,0,1,1.737,1.737v1.737h-.579v1.158h.579v.579h-4.633v-.579h-3.475v.579H103.6v2.9a2.9,2.9,0,0,0,2.317,2.837v.637h1.158v-.579h5.791v.579h1.158V45.7a2.9,2.9,0,0,0,2.317-2.837v-2.9Zm-8.108.579h1.158v2.317h-1.158Zm6.371,4.054h-6.95a1.739,1.739,0,0,1-1.737-1.737V41.129h1.158v2.9h3.475v-2.9h5.791v1.737a1.739,1.739,0,0,1-1.738,1.737Z" transform="translate(-103.472 -33.475)" fill="none" stroke="#ec6337" stroke-width="0.25"/>
</svg>
