<svg xmlns="http://www.w3.org/2000/svg" xmlns:xlink="http://www.w3.org/1999/xlink" width="164" height="141" viewBox="0 0 164 141">
  <defs>
    <filter id="Rectangle_1147" x="0" y="0" width="164" height="141" filterUnits="userSpaceOnUse">
      <feOffset dy="3" input="SourceAlpha"/>
      <feGaussianBlur stdDeviation="3" result="blur"/>
      <feFlood flood-opacity="0.161"/>
      <feComposite operator="in" in2="blur"/>
      <feComposite in="SourceGraphic"/>
    </filter>
  </defs>
  <g id="bbqgrill" transform="translate(9 6)">
    <g transform="matrix(1, 0, 0, 1, -9, -6)" filter="url(#Rectangle_1147)">
      <rect id="Rectangle_1147-2" data-name="Rectangle 1147" width="146" height="123" rx="27" transform="translate(9 6)" fill="#fff"/>
    </g>
    <text id="BBQ_grill" data-name="BBQ grill" transform="translate(42 91)" font-size="14" font-family="SegoeUI, Segoe UI"><tspan x="0" y="0">BBQ grill</tspan></text>
    <g id="Group_931" data-name="Group 931" transform="translate(47.501 19.227)">
      <path id="Path_2713" data-name="Path 2713" d="M46.424,114.092H44.732a8.812,8.812,0,0,0,.046-1.1V112.4H11.3v.594a8.812,8.812,0,0,0,.046,1.1H9.7a2.1,2.1,0,0,0,0,4.207h2.515a16.851,16.851,0,0,0,8.414,9.649L15.557,139.38a2.009,2.009,0,0,0,1.006,2.652,1.793,1.793,0,0,0,.823.183,2.071,2.071,0,0,0,.732-.137,1.787,1.787,0,0,0,1.1-1.052l2.424-5.442H34.626l2.424,5.442a1.958,1.958,0,0,0,2.607,1.006,2.009,2.009,0,0,0,1.006-2.652L35.5,127.994a16.752,16.752,0,0,0,8.414-9.649h2.515a2.127,2.127,0,0,0,0-4.253ZM9.658,117.2v-.046a.915.915,0,1,1,0-1.829h1.783a13.567,13.567,0,0,0,.366,1.875Zm29.861,22.682a.838.838,0,0,1-.412,1.1.779.779,0,0,1-.64,0,1,1,0,0,1-.457-.412l-2.744-6.219-.412.046H20.816l-2.744,6.128a.687.687,0,0,1-.457.412.779.779,0,0,1-.64,0,.838.838,0,0,1-.412-1.1l5.076-11.432a8.951,8.951,0,0,0,1.555.549l-1.875,4.3H34.763l-1.875-4.207a10.523,10.523,0,0,0,1.555-.549ZM24.337,129.32a16.874,16.874,0,0,0,7.408,0l1.189,2.7H23.148ZM42.9,117.613a15.569,15.569,0,0,1-30.273-2.286H43.406A12.732,12.732,0,0,1,42.9,117.613Zm.64-3.521H12.493c0-.183-.046-.366-.046-.5h31.1A1.845,1.845,0,0,1,43.543,114.092Zm2.881,3.064H44.275c.137-.594.274-1.235.366-1.875h1.783a.917.917,0,0,1,.915.915A.928.928,0,0,1,46.424,117.156Z" transform="translate(-7.6 -99.55)" fill="#ec6337"/>
      <path id="Path_2714" data-name="Path 2714" d="M118.218,9.375a2.823,2.823,0,0,0-1.418,2.286.594.594,0,0,0,1.189,0c0-.594.366-.915.96-1.372a2.837,2.837,0,0,0,1.418-2.332,2.837,2.837,0,0,0-1.418-2.332c-.594-.457-.96-.777-.96-1.372s.366-.915.96-1.372A2.823,2.823,0,0,0,120.367.594a.594.594,0,0,0-1.189,0c0,.594-.366.915-.96,1.372A2.823,2.823,0,0,0,116.8,4.253a2.755,2.755,0,0,0,1.418,2.286c.594.457.96.777.96,1.372C119.178,8.6,118.812,8.872,118.218,9.375Z" transform="translate(-104.316 0)" fill="#ec6337"/>
      <path id="Path_2715" data-name="Path 2715" d="M165.018,9.375a2.823,2.823,0,0,0-1.418,2.286.594.594,0,0,0,1.189,0c0-.594.366-.915.96-1.372a2.837,2.837,0,0,0,1.418-2.332,2.837,2.837,0,0,0-1.418-2.332c-.594-.457-.96-.777-.96-1.372s.366-.915.96-1.372A2.823,2.823,0,0,0,167.167.594a.594.594,0,0,0-1.189,0c0,.594-.366.915-.96,1.372A2.823,2.823,0,0,0,163.6,4.253a2.755,2.755,0,0,0,1.418,2.286c.594.457.96.777.96,1.372C165.932,8.6,165.612,8.872,165.018,9.375Z" transform="translate(-145.765 0)" fill="#ec6337"/>
      <path id="Path_2716" data-name="Path 2716" d="M212.618,9.375a2.823,2.823,0,0,0-1.418,2.286.594.594,0,0,0,1.189,0c0-.594.366-.915.96-1.372a2.837,2.837,0,0,0,1.418-2.332,2.837,2.837,0,0,0-1.418-2.332c-.594-.457-.96-.777-.96-1.372s.366-.915.96-1.372A2.823,2.823,0,0,0,214.767.594a.594.594,0,0,0-1.189,0c0,.594-.366.915-.96,1.372A2.823,2.823,0,0,0,211.2,4.253a2.755,2.755,0,0,0,1.418,2.286c.594.457.96.777.96,1.372C213.578,8.6,213.258,8.872,212.618,9.375Z" transform="translate(-187.924 0)" fill="#ec6337"/>
    </g>
  </g>
</svg>
