<svg xmlns="http://www.w3.org/2000/svg" width="18.491" height="12.149" viewBox="0 0 18.491 12.149">
  <g id="bed-icon" transform="translate(0.25 0.25)">
    <path id="Path_9047" data-name="Path 9047" d="M3.17,3.6H6.239a.912.912,0,0,1,.911.909v.911H3.17V3.6ZM1.078,11.649h.868a.459.459,0,0,0,.457-.457V9.823H.619v1.369a.46.46,0,0,0,.458.457Zm14.851,0H16.8a.459.459,0,0,0,.457-.457V9.823H15.471v1.369a.462.462,0,0,0,.458.457ZM.413,6H.619V.457A.458.458,0,0,1,1.076,0h.868A.457.457,0,0,1,2.4.457V6H15.471V3.388a.457.457,0,0,1,.457-.457H16.8a.459.459,0,0,1,.457.457V6h.325a.414.414,0,0,1,.413.413V8.759a.413.413,0,0,1-.413.411H.413A.414.414,0,0,1,0,8.759V6.418A.414.414,0,0,1,.413,6Z" transform="translate(0 0)" fill="none" stroke="#ec6337" stroke-width="0.5" fill-rule="evenodd"/>
  </g>
</svg>
