<svg id="bedicon" xmlns="http://www.w3.org/2000/svg" width="26.074" height="16.883" viewBox="0 0 26.074 16.883">
  <path id="Path_9047" data-name="Path 9047" d="M4.594,5.225H9.042a1.322,1.322,0,0,1,1.32,1.318v1.32H4.594V5.225ZM1.562,16.883H2.82a.666.666,0,0,0,.662-.662V14.237H.9v1.984a.666.666,0,0,0,.664.662Zm21.524,0h1.258a.666.666,0,0,0,.662-.662V14.237H22.422v1.984a.669.669,0,0,0,.664.662ZM.6,8.7H.9V.662A.664.664,0,0,1,1.56,0H2.818A.663.663,0,0,1,3.48.662V8.7H22.422V4.911a.663.663,0,0,1,.662-.662h1.258A.666.666,0,0,1,25,4.911V8.7h.471a.6.6,0,0,1,.6.6v3.393a.6.6,0,0,1-.6.6H.6a.6.6,0,0,1-.6-.6V9.3a.6.6,0,0,1,.6-.6Z" fill="#ec6337" fill-rule="evenodd"/>
</svg>
