<svg id="breakfast-time-icon" xmlns="http://www.w3.org/2000/svg" width="17.988" height="10.285" viewBox="0 0 17.988 10.285">
  <path id="breakfast-time-icon-2" data-name="breakfast-time-icon" d="M12.393,7.6h5.153a.3.3,0,0,1,.3.3A1.206,1.206,0,0,1,16.64,9.237H11.033a13.877,13.877,0,0,0,1.306-1.562c.019-.026.037-.053.054-.081ZM6.261.525A.332.332,0,0,1,6.194.278.338.338,0,0,1,6.321.055a.328.328,0,0,1,.247-.07.332.332,0,0,1,.224.127c.25.325.146.644.042,1a2,2,0,0,0-.1.439.687.687,0,0,0,.105.426.337.337,0,1,1-.568.362A1.545,1.545,0,0,1,6.194.909,2.149,2.149,0,0,0,6.267.623a.18.18,0,0,0,0-.1ZM3.423.951A2.475,2.475,0,1,1,0,3.237,2.51,2.51,0,0,1,1.54.935h0A2.429,2.429,0,0,1,2.475.767a2.568,2.568,0,0,1,.947.184ZM2.161,3.06V2.035a.24.24,0,0,1,.07-.171.242.242,0,0,1,.414.171V3.06a.46.46,0,0,1,.083.066.514.514,0,0,1,.064.082h.732A.242.242,0,0,1,3.7,3.62h0a.239.239,0,0,1-.168.067H2.8a.471.471,0,0,1-.161.158.46.46,0,0,1-.425.023.451.451,0,0,1-.157-.116h0A.463.463,0,0,1,2,3.669a.455.455,0,0,1-.045-.3A.463.463,0,0,1,2.1,3.105a.439.439,0,0,1,.059-.044Zm1.72-1.193A2.007,2.007,0,0,0,2.111,1.3a1.934,1.934,0,0,0-1.578,1.5h0a2.05,2.05,0,0,0-.045.426,1.988,1.988,0,0,0,3.977,0,2.037,2.037,0,0,0-.05-.447,2.059,2.059,0,0,0-.146-.422h0A1.464,1.464,0,0,0,4.1,2.1a2.88,2.88,0,0,0-.215-.236ZM4.028,7.96a3.04,3.04,0,0,1-.64-.968,2.881,2.881,0,0,1-.126-.369,3.426,3.426,0,0,0,.482-.173A2.587,2.587,0,0,0,6.233,8.392h.678A2.565,2.565,0,0,0,8.73,7.635a2.6,2.6,0,0,0,.641-1.062,3.787,3.787,0,0,0,.111-1.209V3.508H5.793V3.287a2.189,2.189,0,0,0-.013-.293H9.664a.34.34,0,0,1,.239.1.335.335,0,0,1,.1.239V4.342h.02a3.384,3.384,0,0,1,.72.016,1.223,1.223,0,0,1,.7.35,1.284,1.284,0,0,1,.293.477,1.486,1.486,0,0,1,.078.577,1.658,1.658,0,0,1-.048.313,1.842,1.842,0,0,1-.5.865,2.179,2.179,0,0,1-.845.511A3.016,3.016,0,0,1,9.43,7.6c-.042.061-.086.119-.132.174-.064.078-.133.155-.208.23h0a3.075,3.075,0,0,1-2.18.906H6.235a3.182,3.182,0,0,1-2.212-.943Zm5.889-3.1v.9a2.745,2.745,0,0,1-.272,1.193,1.836,1.836,0,0,0,1.277-.476,1.3,1.3,0,0,0,.272-.385,1.135,1.135,0,0,0,.1-.41.821.821,0,0,0-.211-.63,1.229,1.229,0,0,0-.969-.2,1.533,1.533,0,0,0-.2.009ZM7.907.525A.327.327,0,0,1,7.845.278.332.332,0,0,1,7.973.055a.328.328,0,0,1,.247-.07.332.332,0,0,1,.224.127.978.978,0,0,1,.048.981,2.081,2.081,0,0,0-.1.461.7.7,0,0,0,.1.429.337.337,0,1,1-.568.362,1.318,1.318,0,0,1-.215-.783A2.536,2.536,0,0,1,7.84.916c.02-.064.111-.335.069-.391ZM.618,10.267a.333.333,0,0,1,0-.663H17.436a.332.332,0,1,1,0,.663Zm14.8-7.321a.466.466,0,1,1-.466.466A.466.466,0,0,1,15.423,2.945Zm-3.97.041a.473.473,0,0,1,.293.182,3.006,3.006,0,0,1,.366.331,2.968,2.968,0,0,1,.416.533,3.027,3.027,0,0,1,.278.586c.013.04.026.081.037.12q.034.105.057.211h4.246c2.041,0,.22-3.056-3.838-3.015A8.493,8.493,0,0,0,10.9,2.32a2.2,2.2,0,0,1,.107.221h0a2.059,2.059,0,0,1,.1.293c.059.023.117.05.177.078s.11.056.163.085Zm1.924-.452a.464.464,0,1,1-.33.136A.466.466,0,0,1,13.377,2.534Zm4.453,3.6a.146.146,0,0,1,.019.07v.1a.146.146,0,0,1-.019.07c-.07.293-.346.693-1.19.693H12.686c.047-.1.082-.189.105-.256.037-.105.069-.209.094-.31a3.19,3.19,0,0,0,.066-.319q.019-.124.031-.321a3.368,3.368,0,0,0,0-.42h.489l1.253,1.294,1.245-1.294h.666c.846,0,1.12.394,1.19.693Z" transform="translate(0 0.018)" fill="#ec6337" fill-rule="evenodd"/>
</svg>
