<svg id="broom" xmlns="http://www.w3.org/2000/svg" width="18.466" height="18.466" viewBox="0 0 18.466 18.466">
  <path id="Path_9048" data-name="Path 9048" d="M120.384,42.833V37.8a4.2,4.2,0,0,0-4.2-4.2h-2.518v1.679h2.518a2.521,2.521,0,0,1,2.518,2.518v2.518h-.839v1.679h.839v.839h-6.715v-.839h-5.036v.839H103.6v4.2a4.2,4.2,0,0,0,3.358,4.112v.924h1.679v-.839h8.394v.839h1.679v-.924a4.2,4.2,0,0,0,3.357-4.112v-4.2Zm-11.751.839h1.679V47.03h-1.679Zm9.233,5.876H107.794a2.521,2.521,0,0,1-2.518-2.518V44.512h1.679v4.2h5.036v-4.2h8.394V47.03a2.521,2.521,0,0,1-2.518,2.518Z" transform="translate(-103.597 -33.6)" fill="#ec6337"/>
</svg>
