<svg xmlns="http://www.w3.org/2000/svg" xmlns:xlink="http://www.w3.org/1999/xlink" width="41.17" height="40.244" viewBox="0 0 41.17 40.244">
  <defs>
    <filter id="Ellipse_2199" x="0" y="0" width="41.17" height="40.244" filterUnits="userSpaceOnUse">
      <feOffset dy="3" input="SourceAlpha"/>
      <feGaussianBlur stdDeviation="3" result="blur"/>
      <feFlood flood-opacity="0.161"/>
      <feComposite operator="in" in2="blur"/>
      <feComposite in="SourceGraphic"/>
    </filter>
  </defs>
  <g id="Group_10644" data-name="Group 10644" transform="translate(-173 -774)">
    <g transform="matrix(1, 0, 0, 1, 173, 774)" filter="url(#Ellipse_2199)">
      <ellipse id="Ellipse_2199-2" data-name="Ellipse 2199" cx="11.585" cy="11.122" rx="11.585" ry="11.122" transform="translate(9 6)" fill="#fff"/>
    </g>
    <path id="Path_9683" data-name="Path 9683" d="M134.114,69.642a9.38,9.38,0,0,0,2.526,1.484.248.248,0,0,0,.172-.466,9.231,9.231,0,0,1-2.379-1.386,11.3,11.3,0,0,1-2.673-3.188,3.374,3.374,0,0,1-.4-1.189v-.049a2.613,2.613,0,0,1,.748-2.514.58.58,0,0,1,.7-.074l1.4,1.373a.617.617,0,0,1,.208.441.713.713,0,0,1-.208.429l-.662.662a.227.227,0,0,0-.049.27,7.524,7.524,0,0,0,2.575,2.918l.331.221c.282.172.454.27.466.27a.239.239,0,0,0,.282-.037l.822-.809a.437.437,0,0,1,.564.012l.012.012,1.422,1.386a.626.626,0,0,1,.172.478.58.58,0,0,1-.184.331l-.037.037a2.132,2.132,0,0,1-2,.7.245.245,0,0,0-.11.478,2.641,2.641,0,0,0,.478.049,2.574,2.574,0,0,0,1.986-.883.988.988,0,0,0,.356-.638,1.181,1.181,0,0,0-.282-.871l-.025-.025-1.435-1.4a.929.929,0,0,0-1.2-.086l-.037.037-.711.7c-.074-.037-.159-.1-.27-.159s-.208-.135-.319-.208a7.289,7.289,0,0,1-2.354-2.563l.527-.527a1.12,1.12,0,0,0,.368-.76,1.1,1.1,0,0,0-.356-.809l-1.41-1.41c-.012-.012-.025-.012-.025-.025a1.061,1.061,0,0,0-1.312.1,3.123,3.123,0,0,0-.92,2.98c.025.245.245,2.085,3.25,4.709Z" transform="translate(58.215 724.326)" fill="#ec6337"/>
  </g>
</svg>
