<svg xmlns="http://www.w3.org/2000/svg" xmlns:xlink="http://www.w3.org/1999/xlink" width="41.17" height="40.244" viewBox="0 0 41.17 40.244">
  <defs>
    <filter id="Ellipse_2198" x="0" y="0" width="41.17" height="40.244" filterUnits="userSpaceOnUse">
      <feOffset dy="3" input="SourceAlpha"/>
      <feGaussianBlur stdDeviation="3" result="blur"/>
      <feFlood flood-opacity="0.161"/>
      <feComposite operator="in" in2="blur"/>
      <feComposite in="SourceGraphic"/>
    </filter>
    <filter id="Ellipse_2158" x="10" y="5" width="20.481" height="20.481" filterUnits="userSpaceOnUse">
      <feOffset dy="3" input="SourceAlpha"/>
      <feGaussianBlur stdDeviation="3" result="blur-2"/>
      <feFlood flood-opacity="0.161"/>
      <feComposite operator="in" in2="blur-2"/>
      <feComposite in="SourceGraphic"/>
    </filter>
    <filter id="Ellipse_2159" x="10" y="9.628" width="20.481" height="20.481" filterUnits="userSpaceOnUse">
      <feOffset dy="3" input="SourceAlpha"/>
      <feGaussianBlur stdDeviation="3" result="blur-3"/>
      <feFlood flood-opacity="0.161"/>
      <feComposite operator="in" in2="blur-3"/>
      <feComposite in="SourceGraphic"/>
    </filter>
    <filter id="Ellipse_2160" x="10" y="14.769" width="20.481" height="20.481" filterUnits="userSpaceOnUse">
      <feOffset dy="3" input="SourceAlpha"/>
      <feGaussianBlur stdDeviation="3" result="blur-4"/>
      <feFlood flood-opacity="0.161"/>
      <feComposite operator="in" in2="blur-4"/>
      <feComposite in="SourceGraphic"/>
    </filter>
  </defs>
  <g id="Group_10648" data-name="Group 10648" transform="translate(-359 -774)">
    <g transform="matrix(1, 0, 0, 1, 359, 774)" filter="url(#Ellipse_2198)">
      <ellipse id="Ellipse_2198-2" data-name="Ellipse 2198" cx="11.585" cy="11.122" rx="11.585" ry="11.122" transform="translate(9 6)" fill="#fff"/>
    </g>
    <g id="Group_10640" data-name="Group 10640" transform="translate(378 785)">
      <g transform="matrix(1, 0, 0, 1, -19, -11)" filter="url(#Ellipse_2158)">
        <ellipse id="Ellipse_2158-2" data-name="Ellipse 2158" cx="1.241" cy="1.241" rx="1.241" ry="1.241" transform="translate(21.48 11) rotate(90)" fill="#ec6337"/>
      </g>
      <g transform="matrix(1, 0, 0, 1, -19, -11)" filter="url(#Ellipse_2159)">
        <ellipse id="Ellipse_2159-2" data-name="Ellipse 2159" cx="1.241" cy="1.241" rx="1.241" ry="1.241" transform="translate(21.48 15.63) rotate(90)" fill="#ec6337"/>
      </g>
      <g transform="matrix(1, 0, 0, 1, -19, -11)" filter="url(#Ellipse_2160)">
        <ellipse id="Ellipse_2160-2" data-name="Ellipse 2160" cx="1.241" cy="1.241" rx="1.241" ry="1.241" transform="translate(21.48 20.77) rotate(90)" fill="#ec6337"/>
      </g>
    </g>
  </g>
</svg>
