<svg xmlns="http://www.w3.org/2000/svg" xmlns:xlink="http://www.w3.org/1999/xlink" width="47" height="48" viewBox="0 0 47 48">
  <defs>
    <filter id="Ellipse_2162" x="0" y="0" width="47" height="48" filterUnits="userSpaceOnUse">
      <feOffset dy="3" input="SourceAlpha"/>
      <feGaussianBlur stdDeviation="3" result="blur"/>
      <feFlood flood-opacity="0.161"/>
      <feComposite operator="in" in2="blur"/>
      <feComposite in="SourceGraphic"/>
    </filter>
  </defs>
  <g id="Component_27_1" data-name="Component 27 – 1" transform="translate(9 6)">
    <g id="Component_26_1" data-name="Component 26 – 1">
      <g transform="matrix(1, 0, 0, 1, -9, -6)" filter="url(#Ellipse_2162)">
        <ellipse id="Ellipse_2162-2" data-name="Ellipse 2162" cx="14.5" cy="15" rx="14.5" ry="15" transform="translate(9 6)" fill="#fff"/>
      </g>
    </g>
    <path id="Path_9303" data-name="Path 9303" d="M105.707,54.1a3.254,3.254,0,0,0-3.237,2.556A3.255,3.255,0,0,0,99.232,54.1a3.335,3.335,0,0,0-3.354,3.585c0,3.621,6.024,7.778,6.526,8.113a.116.116,0,0,0,.129,0c2.083-1.387,6.527-5.036,6.527-8.113a3.338,3.338,0,0,0-3.354-3.585Z" transform="translate(-87.916 -44.518)" fill="#ec6337"/>
  </g>
</svg>
