<svg xmlns="http://www.w3.org/2000/svg" xmlns:xlink="http://www.w3.org/1999/xlink" width="57" height="57" viewBox="0 0 57 57">
  <defs>
    <filter id="Ellipse_2157" x="0" y="0" width="57" height="57" filterUnits="userSpaceOnUse">
      <feOffset dy="3" input="SourceAlpha"/>
      <feGaussianBlur stdDeviation="3" result="blur"/>
      <feFlood flood-opacity="0.161"/>
      <feComposite operator="in" in2="blur"/>
      <feComposite in="SourceGraphic"/>
    </filter>
  </defs>
  <g id="Component_26_1" data-name="Component 26 – 1" transform="translate(9 6)">
    <g transform="matrix(1, 0, 0, 1, -9, -6)" filter="url(#Ellipse_2157)">
      <circle id="Ellipse_2157-2" data-name="Ellipse 2157" cx="19.5" cy="19.5" r="19.5" transform="translate(9 6)" fill="#fff"/>
    </g>
    <g id="Group_9749" data-name="Group 9749" transform="translate(10.998 11.34)">
      <path id="Path_9223" data-name="Path 9223" d="M156.842,84.914a7.986,7.986,0,0,0-7,11.839l-1.5,3.639a.358.358,0,0,0,.331.495.354.354,0,0,0,.094-.013l4.011-1.1a7.986,7.986,0,1,0,4.063-14.862Zm0,15.257a7.25,7.25,0,0,1-3.821-1.085.357.357,0,0,0-.283-.041l-3.454.946,1.292-3.125a.358.358,0,0,0-.021-.317,7.27,7.27,0,1,1,6.288,3.622Z" transform="translate(-148.315 -84.914)" fill="#ec6337"/>
      <path id="Path_9224" data-name="Path 9224" d="M257.561,188.515l-1.732-.9a.358.358,0,0,0-.376.027l-1.46,1.058a9.805,9.805,0,0,1-1.32-1.161c-.005-.006-.012-.011-.018-.016s-.009-.011-.015-.016a6.177,6.177,0,0,1-.767-.869l1.082-1.494a.358.358,0,0,0,.027-.376l-.9-1.732a.358.358,0,0,0-.482-.152l-1.6.827a.358.358,0,0,0-.178.423,8.9,8.9,0,0,0,2.339,3.9,10.547,10.547,0,0,0,4.31,2.751.358.358,0,0,0,.423-.178l.827-1.6a.358.358,0,0,0-.152-.482ZM250.59,184.2l1.016-.524.637,1.22-.8,1.106a8.894,8.894,0,0,1-.853-1.8Zm5.8,5.8a8.7,8.7,0,0,1-1.771-.874l1.075-.779,1.22.637Z" transform="translate(-245.643 -178.829)" fill="#ec6337"/>
    </g>
  </g>
</svg>
