<svg id="Component_1_1" data-name="Component 1 – 1" xmlns="http://www.w3.org/2000/svg" width="1109.777" height="602.13" viewBox="0 0 1109.777 602.13">
  <path id="Path_7741" data-name="Path 7741" d="M478.771,196.912c159.617-59.257,321.851-6.869,431.877,107.237s340.937-78.758,463.4,35.161c83.576,77.744,45.3,277.627-69.3,364.2-155.764,117.672-629.456,57.966-731.926,37.938-118.052-23.07-204.356-93.073-239.42-178.027C248.913,358.712,408.231,223.1,478.771,196.912Z" transform="translate(-309.305 -172.296)" fill="#ccc462" opacity="0.05"/>
  <g id="Group_9182" data-name="Group 9182" transform="translate(468.831 135.56)">
    <g id="Group_9179" data-name="Group 9179" transform="translate(56.983 3.546)" opacity="0.8">
      <path id="Path_7484" data-name="Path 7484" d="M2855.362,272.014h-12.11a8.491,8.491,0,0,1-8.482-8.482v-12.11a8.491,8.491,0,0,1,8.482-8.482h12.11a8.492,8.492,0,0,1,8.483,8.482v12.11A8.492,8.492,0,0,1,2855.362,272.014Zm-12.11-25.734a5.15,5.15,0,0,0-5.144,5.144v12.11a5.15,5.15,0,0,0,5.144,5.144h12.11a5.15,5.15,0,0,0,5.145-5.144v-12.11a5.15,5.15,0,0,0-5.145-5.144Z" transform="translate(-2834.77 -242.94)" fill="#b7af58"/>
    </g>
    <g id="Group_9180" data-name="Group 9180" transform="translate(0 3.546)" opacity="0.8">
      <path id="Path_7485" data-name="Path 7485" d="M2616.332,272.014h-12.11a8.491,8.491,0,0,1-8.482-8.482v-12.11a8.491,8.491,0,0,1,8.482-8.482h12.11a8.491,8.491,0,0,1,8.482,8.482v12.11A8.494,8.494,0,0,1,2616.332,272.014Zm-12.11-25.734a5.15,5.15,0,0,0-5.144,5.144v12.11a5.15,5.15,0,0,0,5.144,5.144h12.11a5.15,5.15,0,0,0,5.145-5.144v-12.11a5.15,5.15,0,0,0-5.145-5.144Z" transform="translate(-2595.74 -242.94)" fill="#b7af58"/>
    </g>
  </g>
  <path id="Path_7545" data-name="Path 7545" d="M1893.461,1178.716H1711.816a1.976,1.976,0,0,1-1.976-1.977v-2.963a1.976,1.976,0,0,1,1.976-1.976h181.645a1.976,1.976,0,0,1,1.976,1.976v2.963A1.975,1.975,0,0,1,1893.461,1178.716Z" transform="translate(-1441.759 -834.091)" fill="#b7af58"/>
  <g id="Group_9202" data-name="Group 9202" transform="translate(352.681 219.376)">
    <path id="Path_7546" data-name="Path 7546" d="M2597.109,742.492c2.46,8.677-3.549,17.619-10.171,19.5s-11.348-4.017-13.808-12.694.911-17.233,7.533-19.112S2594.649,733.815,2597.109,742.492Z" transform="translate(-2440.036 -717.007)" fill="#f09959"/>
    <path id="Path_7547" data-name="Path 7547" d="M2496.049,1488.29s16.971,26.359,19.262,27.505,8.022,1.433,5.874,5.731-3.008,21.2-5.013,22.061-19.2,2.865-16.619,0,4.166-1.433,5.467-6.589,3.13-14.9.693-16.9-17.333-20.056-17.333-20.056Z" transform="translate(-2376.102 -1294.668)" fill="#f09959"/>
    <path id="Path_7548" data-name="Path 7548" d="M2051.93,1535.77s-20.631,34-24.45,37.058-16.427,7.641-6.112,8.406,15.281-3.437,21.774-5.349,14.518-3.056,11.462-8.022-1.788-15.808,4.8-22.685S2051.93,1535.77,2051.93,1535.77Z" transform="translate(-2017.398 -1330.829)" fill="#f09959"/>
    <path id="Path_7549" data-name="Path 7549" d="M2239.544,1204.958s-51.068-1.335-71.314,15.281c-11.843,17.955-40.493,70.933-42.72,76.771,1.528,1.528,10.125,4.286,13.944,3.9,11.269-13.438,26.166-25.055,32.09-35.6,7.3-12.99,9.55-19.483,21.394-20.63s38.586-4.966,46.608-4.966S2239.544,1204.958,2239.544,1204.958Z" transform="translate(-2099.737 -1078.86)" fill="#505050"/>
    <path id="Path_7550" data-name="Path 7550" d="M2720.792,1470.99h-2.677l-19.2-80.09h5.888Z" transform="translate(-2536.451 -1220.495)" fill="#b7af58"/>
    <path id="Path_7551" data-name="Path 7551" d="M2454.29,1461.942h2.677l22.027-82.922h-5.888Z" transform="translate(-2350.138 -1211.447)" fill="#b7af58"/>
    <path id="Path_7552" data-name="Path 7552" d="M2405.12,1190.37l-29.692,5.125s-39.456.362-57.49,3.721c-16.409,3.056-18.825,21.7,0,47.37,10.695,14.583,19.736,26.216,38.229,39.332,4.7-3.454,6.5-4.761,7.8-13.069-1.338-1.835-4.8-13.319-5.879-15.567-10.227-21.379-23.88-29.155-24.068-31.258,2.291-3.724,60.713,19.414,72.33,5.8C2417.443,1218.834,2405.12,1190.37,2405.12,1190.37Z" transform="translate(-2236.217 -1067.769)" fill="#505050"/>
    <path id="Path_7553" data-name="Path 7553" d="M2610.052,907.331a31.071,31.071,0,0,0-23.232,5.781c-6.508,6.634-13.874,17.577-13.421,35.623.572,22.921-3.547,24.392.75,30.7,17.925,7.4,48.581,39.2,41.361,5.109-5.227-24.688,11.465-43.089-2-70.473C2612.411,911.84,2611.043,909.677,2610.052,907.331Z" transform="translate(-2439.916 -851.947)" fill="#ccc462"/>
    <path id="Path_7554" data-name="Path 7554" d="M2573.387,975.651c-.348,11.948-2.036,15.469-.746,19.214,7.306.746,20.673,3.671,24.012,8.346,3.822,5.347,7.641,6.112,5.857,2.165s-6.494-9.55.765-28.779,10.7-32.219,3.566-45.587Z" transform="translate(-2439.912 -870.238)" fill="#b1aa58"/>
    <path id="Path_7555" data-name="Path 7555" d="M2656.854,831.076a93.245,93.245,0,0,1-6-24.206l-12.606,3.724s7.164,16.044.286,21.775a65.969,65.969,0,0,0-4.916,4.489A31.068,31.068,0,0,1,2656.854,831.076Z" transform="translate(-2486.718 -775.692)" fill="#f09959"/>
    <path id="Path_7556" data-name="Path 7556" d="M2666.086,812.06c-.746-.665-1.681-1.495-2.663-2.36l-10.282,3.037c-.007.019-.014.038-.021.055a41.958,41.958,0,0,1,3.211,12.558c3.063-1.859,6.42-4.889,10.255-10.184C2666.379,813.991,2666.215,812.945,2666.086,812.06Z" transform="translate(-2501.57 -777.848)" fill="#e38540"/>
    <path id="Path_7557" data-name="Path 7557" d="M2449.214,922.3c-12.983,4.541-11.543,18.22-23.493,38.393-6.184,10.439-11.929,10.284-11.929,10.284a276.569,276.569,0,0,1-32.046-2.029c-10.985-1.342-11.684,1.926-4.043,4.658,15.41,5.509,31.4,11.438,44.293,10.005s34.943-34.328,36.081-42.891C2459.648,928.872,2455.753,920.006,2449.214,922.3Z" transform="translate(-2287.942 -863.325)" fill="#f09959"/>
    <g id="Group_9198" data-name="Group 9198" transform="translate(108.941 87.229)">
      <path id="Path_7558" data-name="Path 7558" d="M2520.025,1128.506c-.808,0-1.633-.01-2.481-.031a123.621,123.621,0,0,1-23.572-2.9c-6.759-1.373-10.48-2.129-14.814-.06a3.338,3.338,0,1,1-2.876-6.024c6.351-3.035,11.664-1.955,19.019-.458a117.66,117.66,0,0,0,22.409,2.77c11.186.279,18.006-1.38,21.462-5.214,3.08-3.416,3.981-9.154,2.837-18.058-.391-3.047-.785-5.583-1.13-7.819-.975-6.31-1.621-10.477-.822-16.921.741-5.984,2.723-13.956,7.312-29.41a3.338,3.338,0,1,1,6.4,1.9c-8.551,28.8-8.117,31.606-6.293,43.411.354,2.277.751,4.856,1.154,7.989,1.411,10.983-.017,18.411-4.5,23.381C2539.512,1126.177,2532.021,1128.506,2520.025,1128.506Z" transform="translate(-2474.381 -1041.992)" fill="#b7af58"/>
    </g>
    <path id="Path_7559" data-name="Path 7559" d="M2053.337,1655.98c-13.689,6.694-21.055,10.529-25.443,10.165-1.037-.086-1.9-.193-2.615-.305-4.882,2.885-12.673,6.293-3.907,6.944,10.315.763,15.281-3.437,21.775-5.349s14.518-3.056,11.463-8.022A10.443,10.443,0,0,1,2053.337,1655.98Z" transform="translate(-2017.401 -1422.382)" fill="#d54a41"/>
    <path id="Path_7560" data-name="Path 7560" d="M2551.67,1606.01c-.334,10.837-1.824,21.577-8.454,23.605a11.132,11.132,0,0,1-4.775.427c-1.042,1.29-2.314,1.3-4.022,3.2-2.579,2.866,14.611.861,16.618,0s2.866-17.762,5.014-22.061C2557.815,1607.65,2554.263,1606.828,2551.67,1606.01Z" transform="translate(-2410.966 -1384.324)" fill="#d54a41"/>
    <g id="Group_9199" data-name="Group 9199" transform="translate(23.578 74.623)">
      <path id="Path_7561" data-name="Path 7561" d="M2180.7,1033.61h-43.485a3.34,3.34,0,0,1-3.028-1.931l-17.574-37.821a3.338,3.338,0,1,1,6.055-2.813l16.676,35.89H2180.7a3.337,3.337,0,0,1,0,6.675Z" transform="translate(-2116.303 -989.113)" fill="#ccc462"/>
    </g>
    <path id="Path_7562" data-name="Path 7562" d="M2301.07,1105.768c-8.787-.126-17.5-5.364-21.832-4.6s-18.466,10.57-16.683,10.952,12.99-5.426,13.372-5.514,2.8,4.022,8.787,5.533.043-4.486,18.594,1.118C2315.374,1116.9,2301.07,1105.768,2301.07,1105.768Z" transform="translate(-2203.994 -999.774)" fill="#f09959"/>
    <path id="Path_7563" data-name="Path 7563" d="M2630.624,864.77l1.292,10.4s-11.372.677-17.028,3.859-14.008,12.382-14.008,12.382l6.823-11.745.982-7.514Z" transform="translate(-2461.783 -819.789)" fill="#f2e5de"/>
    <path id="Path_7564" data-name="Path 7564" d="M2493.761,917.525c-8.446-1.583-12.352,5.986-17.828,18.337s-14.822,27.355-16.682,29.289-31.327,0-31.327,0-.892,8.532,0,9.55,5.986.892,5.986.892,2.038,1.626,3.947,2.916,18.083,3.707,25.6,3.325,14.39-1.018,15.408-2.165,21.522-32.726,22.795-44.062S2498.071,918.333,2493.761,917.525Z" transform="translate(-2329.757 -859.809)" fill="#f2e5de"/>
    <path id="Path_7565" data-name="Path 7565" d="M2557.41,681.844c-15.972.765-13.467,24.793-13.467,24.793s4.148,1.28,12.839-.153c-.668-2.58-.381-9.169-.381-9.169a60.3,60.3,0,0,0,2.291,8.6c1.838.842,3.917.1,7.45-.758,1.815,7.636,6.942,10.861,10.454,11.965,3.879,1.221,7.986,2.675,12.57.381s2.065-25.722-.372-30.435c-3.654-7.073-9.726-13.4-20.232-10.06A78.117,78.117,0,0,0,2557.41,681.844Z" transform="translate(-2418.311 -676.085)" fill="#5c5c5c"/>
    <path id="Path_7566" data-name="Path 7566" d="M2717.4,814.467l6.529,9.538s-7.237,18.082,13.813,26.276c16.485,6.415,14.542,17.722,7.094,29.091s4.458,21.3,4.458,21.3,1.817-12.594,17.832-14.971c21.839-3.242,28.023-32.562,11.71-47.223-13.5-12.132-17.6-2.086-26.743-12.973s-26.385-3.533-26.385-3.533l-6.323-9.218Z" transform="translate(-2550.526 -780.171)" fill="#5c5c5c"/>
    <g id="Group_9200" data-name="Group 9200" transform="translate(174.605 37.644)">
      <path id="Path_7567" data-name="Path 7567" d="M2811.046,884.189a.582.582,0,0,1-.51-.861c5.492-10.036,1.011-22.194-1.242-25.487-.239-.348-.466-.7-.706-1.077-2.214-3.457-4.97-7.757-19.675-10.406-3.542-.636-6.408-2.741-9.445-4.97-6.27-4.6-13.378-9.822-28.819-2.713a.58.58,0,1,1-.486-1.054c16.062-7.393,23.464-1.962,29.992,2.832,2.925,2.145,5.686,4.174,8.963,4.765,15.205,2.737,18.111,7.276,20.447,10.921.237.367.458.713.687,1.049,2.36,3.449,7.056,16.189,1.3,26.7A.583.583,0,0,1,2811.046,884.189Z" transform="translate(-2749.827 -833.995)" fill="#303c60"/>
    </g>
    <g id="Group_9201" data-name="Group 9201" transform="translate(146.322 21.351)">
      <path id="Path_7568" data-name="Path 7568" d="M2648.253,788.368a22.841,22.841,0,0,1-3.393-.274c-5.587-.837-13.085-4.012-13.672-21.846a.58.58,0,0,1,1.159-.038c.243,7.35,1.7,12.79,4.334,16.165a12.173,12.173,0,0,0,8.351,4.57c5.171.775,8.6-.181,10.187-2.839a.58.58,0,1,1,1,.6C2654.761,787.143,2652.089,788.368,2648.253,788.368Z" transform="translate(-2631.189 -765.649)" fill="#303c60"/>
    </g>
  </g>
  <path id="Path_7569" data-name="Path 7569" d="M1791.52,1328.3h4.291l16.695-136.739h-9.443Z" transform="translate(-1477.263 -850.393)" fill="#b7af58"/>
  <path id="Path_7570" data-name="Path 7570" d="M2335.326,1328.3h-4.291l-16.694-136.739h9.44Z" transform="translate(-1914.207 -846.935)" fill="#b7af58"/>
  <g id="Group_9203" data-name="Group 9203" transform="translate(531.781 357.058)">
    <path id="Path_7571" data-name="Path 7571" d="M3083.568,1275.01c7.424,6.78,4.2,13.557-1.292,26.147s-6.456,59.076-6.456,59.076l4.52-.646s-.646-47.776,5.489-60.69,8.715-19.369,14.2-15.171S3083.568,1275.01,3083.568,1275.01Z" transform="translate(-3031.699 -1245.279)" fill="#ccc462"/>
    <path id="Path_7572" data-name="Path 7572" d="M3089.929,1171.247c.9-4.017,6.258-8.365,13.417-12.053-1.065,5.927-4.48,15.615-.946,17.6,4.765,2.68.464-10.847,2.3-18.282a88.484,88.484,0,0,1,22.261-7.3.808.808,0,0,1-.031.081c-4.2,10.654-9.684,14.849-7.424,16.463,1.7,1.214,7.238-11.092,14.549-17.4,5.488-.293,10.132.451,12.878,2.627,4.246,3.361,7.094,6.344,2.825,16.577a19.19,19.19,0,0,1-9.271,3.359c-9.683.968-14.2,1.292-7.426,4.52,3.321,1.58,8.885-.091,13.4-1.106-1.464,2.7-3.263,5.75-5.45,9.226a34.214,34.214,0,0,1-4.537,5.774c-3.12.6-5.843.606-7.282-.012-4.52-1.936-16.141-8.07-19.045-5.488-2.844,2.527,21.522,4.129,19.834,10.551-11.81,6.8-25.324,3.566-27.713-2.682C3099.06,1185.315,3087.214,1183.341,3089.929,1171.247Z" transform="translate(-3042.139 -1150.293)" fill="#ccc462"/>
    <path id="Path_7573" data-name="Path 7573" d="M3076.9,1417.532c-12.914-9.684-26.148-.646-32.926,9.683s-1.937,33.573-1.937,33.573,2.583,0,2.583-.968-7.1-27.439,9.684-39.385c10.5-7.471,18.077-3.874,19.045-.322s-4.2,10.008-4.2,10.008Z" transform="translate(-3004.69 -1350.679)" fill="#ccc462"/>
    <path id="Path_7574" data-name="Path 7574" d="M3067.213,1347.23c12.914,0,17.11,20.015,13.558,31.637s-8.394,33.251-8.394,33.251l-3.228-3.228s12.268-30.345,9.362-43.9-10.008-15.817-11.3-15.817S3067.213,1347.23,3067.213,1347.23Z" transform="translate(-3024.706 -1300.282)" fill="#ccc462"/>
    <path id="Path_7575" data-name="Path 7575" d="M3104.13,1471.186a9.345,9.345,0,0,1,3.4-2.856,25.59,25.59,0,0,1-.67,2.766c-1.619,5.294-3.5,12.666-5.078,19.123-.142-.827-.362-2.1-.7-4.067-.081-.465-.143-.968-.188-1.5A125.3,125.3,0,0,0,3104.13,1471.186Z" transform="translate(-3050.792 -1392.513)" fill="#ccc462"/>
    <path id="Path_7576" data-name="Path 7576" d="M3107.958,1422.571c24.533-10.329,11.607-24.5,33.237-15.145a16.071,16.071,0,0,1,5.24,4.615,16.122,16.122,0,0,1-6.854.551c-6.456-.968-4.2,4.2,6.456,5.488a23.9,23.9,0,0,1,4.992,1.054c5.075,9.748,7.361,22.573-3.378,27.031a24.306,24.306,0,0,1-7.643,1.568c-3.313-2.634.808-17.877-4.3-15.772-4.906,2.019,1.537,13.066.656,15.851a70.867,70.867,0,0,1-15.326-2.148,7.638,7.638,0,0,1-4.052-4.663c-1.615-6.78,9.039-10.975,9.362-16.788.3-5.342-3.905,11.753-15.036,14.268C3101.245,1433.781,3096.489,1427.4,3107.958,1422.571Z" transform="translate(-3051.09 -1343.801)" fill="#ccc462"/>
    <path id="Path_7577" data-name="Path 7577" d="M2930.127,1329.34c2.582-5.488-4.2-6.78-3.874-2.582.286,3.719.317,12.759-3.5,15.219a59.875,59.875,0,0,1-22.292-7.4,2.743,2.743,0,0,1,.284-1.683c2.906-5.812,21.629-10.654,15.817-12.589-4.627-1.542-12.737,7.562-19.271,12.148-3.924-2.978-6.553-6.527-6.553-10.489,0-5.364,6.518-11.433,14.943-14.334,3.792.381,7.316,2.455,12.819,5.573,8.128,4.606,6.248-2.842-1.438-7.261a23.153,23.153,0,0,1,18.13,9.95s-.463,2.894,2.6,7.374c8.358,12.218-1.287,19.348-12.819,18.885C2925.634,1338.928,2928.342,1333.133,2930.127,1329.34Z" transform="translate(-2890.74 -1268.835)" fill="#ccc462"/>
    <path id="Path_7578" data-name="Path 7578" d="M3181.14,1428.179c6.313,4.877,13.326,10.582,21.934,14.456s6.887,16.5,6.887,16.5,1.292-10.9-5.884-14.635-11.91-8.179-17.362-9.04a78.927,78.927,0,0,1-8.465-1.721s1.721-3.445.718-4.734S3181.14,1428.179,3181.14,1428.179Z" transform="translate(-3109.71 -1361.872)" fill="#ccc462"/>
    <path id="Path_7579" data-name="Path 7579" d="M3172.843,1188.14c-23.1,6.17-40.031,20.948-43.187,24.535s-3.156,4.592-3.156,4.592l2.439,4.591,1.147-.574s-1.864-3.874,3.013-8.9c8.413-8.661,18.651-15.5,25.682-18.509S3172.843,1188.14,3172.843,1188.14Z" transform="translate(-3070.297 -1179.118)" fill="#ccc462"/>
    <path id="Path_7580" data-name="Path 7580" d="M3017.122,1623.422h8.825a11.363,11.363,0,0,0,11.364-11.364V1591.78H3005.76v20.277A11.362,11.362,0,0,0,3017.122,1623.422Z" transform="translate(-2978.34 -1486.534)" fill="#b7af58"/>
    <rect id="Rectangle_4002" data-name="Rectangle 4002" width="31.551" height="2.222" transform="translate(27.42 108.872)" fill="#fff"/>
    <rect id="Rectangle_4003" data-name="Rectangle 4003" width="31.551" height="1.306" transform="translate(27.42 112.923)" fill="#fff"/>
  </g>
  <g id="Group_9205" data-name="Group 9205" transform="translate(629.557 238.11)">
    <path id="Path_7584" data-name="Path 7584" d="M3281.908,640.748V633.22a2.879,2.879,0,0,0-2.877-2.88h-6.2a2.88,2.88,0,0,0-2.88,2.88v7.528a2.88,2.88,0,0,0,2.88,2.88h6.2A2.881,2.881,0,0,0,3281.908,640.748Z" transform="translate(-3269.95 -630.34)" fill="#b7af58"/>
    <path id="Path_7585" data-name="Path 7585" d="M3281.908,742.078V734.55a2.879,2.879,0,0,0-2.877-2.88h-6.2a2.881,2.881,0,0,0-2.88,2.88v7.528a2.881,2.881,0,0,0,2.88,2.88h6.2A2.881,2.881,0,0,0,3281.908,742.078Z" transform="translate(-3269.95 -707.514)" fill="#b7af58"/>
    <path id="Path_7586" data-name="Path 7586" d="M3281.908,843.416v-7.528a2.877,2.877,0,0,0-2.877-2.877h-6.2a2.88,2.88,0,0,0-2.88,2.877v7.528a2.879,2.879,0,0,0,2.88,2.878h6.2A2.878,2.878,0,0,0,3281.908,843.416Z" transform="translate(-3269.95 -784.695)" fill="#b7af58"/>
  </g>
  <g id="Group_9425" data-name="Group 9425" transform="translate(-869.919 -3671.615)">
    <rect id="Rectangle_4043" data-name="Rectangle 4043" width="84.496" height="138.495" transform="translate(974.476 3787.352)" fill="#ccc462"/>
    <rect id="Rectangle_4044" data-name="Rectangle 4044" width="77.293" height="130.394" transform="translate(978.9 3790.172)" fill="#fff"/>
    <g id="Group_9409" data-name="Group 9409" transform="translate(983.38 3795.474)">
      <g id="Group_9406" data-name="Group 9406" transform="translate(18.639 8.004)">
        <path id="Path_7755" data-name="Path 7755" d="M670.3,638.472c2.91-6.258,7.833-8.262,15.918-8.262,9.627,0,14.626,3.487,16.043,8.565C685.023,639.011,670.3,638.472,670.3,638.472Z" transform="translate(-670.3 -599.49)" fill="#b7af58"/>
        <path id="Path_7756" data-name="Path 7756" d="M684.472,472.434c-4.076,1.145-3.9,3.434-5.255,5.559s-4.311,3.543-4.665,4.96.91,4.369-.591,6.023-2.008,2.48-1.417,4.132,1.889,4.251,2.008,4.6,1.771,2.834,3.778,3.187a42.572,42.572,0,0,1,7.675,1.771c1.889.826,7.965-1.057,11.337-.941s5.668-2.365,5.432-4.019,2.486-4.96,2.48-7.794c-.008-3.044-3.543-5.314-4.488-7.322s.119-5.551-3.425-7.648c-2.239-1.326-3.778-1.209-5.551-1.8S687.069,471.7,684.472,472.434Z" transform="translate(-671.915 -472.153)" fill="#5c5c5c"/>
        <path id="Path_7757" data-name="Path 7757" d="M739.87,571.721c-.921,1.361-1.6,1.417-2.6,0-.795-1.127-2.361-3.687-2.361-4.985V553.771a2.369,2.369,0,0,1,2.361-2.362h2.6a2.369,2.369,0,0,1,2.361,2.362v12.964C742.232,568.035,740.7,570.5,739.87,571.721Z" transform="translate(-722.352 -536.005)" fill="#f09959"/>
        <path id="Path_7758" data-name="Path 7758" d="M739.87,551.41h-2.6a2.369,2.369,0,0,0-2.361,2.362v11.566c2.917.929,5.58-.917,7.322-3v-8.569A2.369,2.369,0,0,0,739.87,551.41Z" transform="translate(-722.352 -536.006)" fill="#e38540"/>
        <ellipse id="Ellipse_2139" data-name="Ellipse 2139" cx="7.852" cy="10.7" rx="7.852" ry="10.7" transform="translate(8.365 4.837)" fill="#f09959"/>
        <path id="Path_7759" data-name="Path 7759" d="M721.672,490.767c-4.96,8.385-12.282,7.557-12.282,7.557s.177-11.1,5.992-11.691,9.24,1.743,10.422,5.6a9.5,9.5,0,0,1,0,6.391,10.185,10.185,0,0,1-2.834-3.839A27.531,27.531,0,0,1,721.672,490.767Z" transform="translate(-701.792 -483.745)" fill="#5c5c5c"/>
        <ellipse id="Ellipse_2140" data-name="Ellipse 2140" cx="2.066" cy="3.1" rx="2.066" ry="3.1" transform="translate(4.105 14.346) rotate(-25.404)" fill="#f09959"/>
        <path id="Path_7760" data-name="Path 7760" d="M786.427,542.74c-.735,1.547-.494,3.2.536,3.687s2.463-.367,3.2-1.913.494-3.2-.536-3.687S787.161,541.193,786.427,542.74Z" transform="translate(-763.513 -527.369)" fill="#f09959"/>
        <path id="Path_7761" data-name="Path 7761" d="M744.455,581.95a3.4,3.4,0,0,1-5.9,0Z" transform="translate(-725.285 -560.61)" fill="#fff"/>
      </g>
      <path id="Path_7762" data-name="Path 7762" d="M710.086,740.95H690.255a2.305,2.305,0,1,1,0-4.61h19.831a2.305,2.305,0,1,1,0,4.61Z" transform="translate(-665.88 -676.988)" fill="#ccc462"/>
      <path id="Path_7763" data-name="Path 7763" d="M698.659,777.4H671.565a2.305,2.305,0,1,1,0-4.61h27.092a2.305,2.305,0,0,1,0,4.61Z" transform="translate(-650.823 -706.354)" fill="#ccc462"/>
      <path id="Path_7764" data-name="Path 7764" d="M641.641,916.514h-65.9a1.337,1.337,0,1,1,0-2.674h65.9a1.337,1.337,0,1,1,0,2.674Z" transform="translate(-574.4 -819.989)" fill="#ccc462"/>
      <path id="Path_7765" data-name="Path 7765" d="M641.641,948.514h-65.9a1.337,1.337,0,1,1,0-2.674h65.9a1.337,1.337,0,1,1,0,2.674Z" transform="translate(-574.4 -845.77)" fill="#ccc462"/>
      <path id="Path_7766" data-name="Path 7766" d="M641.641,980.514h-65.9a1.337,1.337,0,1,1,0-2.674h65.9a1.337,1.337,0,1,1,0,2.674Z" transform="translate(-574.4 -871.55)" fill="#ccc462"/>
      <g id="Group_9407" data-name="Group 9407" transform="translate(8.167 0)">
        <path id="Path_7767" data-name="Path 7767" d="M666.277,479.5H618.809a2.39,2.39,0,0,1-2.389-2.389V433.359a2.391,2.391,0,0,1,2.389-2.389h47.469a2.391,2.391,0,0,1,2.389,2.389v43.749A2.393,2.393,0,0,1,666.277,479.5Zm-47.469-46.582a.451.451,0,0,0-.445.445v43.749a.451.451,0,0,0,.445.445h47.469a.451.451,0,0,0,.445-.445V433.359a.451.451,0,0,0-.445-.445Z" transform="translate(-616.42 -430.97)" fill="#ccc462"/>
      </g>
      <g id="Group_9408" data-name="Group 9408" transform="translate(12.958 77.062)">
        <path id="Path_7768" data-name="Path 7768" d="M645.517,827.46l1.374,2.785,3.073.445-2.223,2.169.525,3.059-2.748-1.444-2.748,1.444.525-3.059-2.224-2.169,3.073-.445Z" transform="translate(-641.07 -827.46)" fill="#ccc462"/>
        <path id="Path_7769" data-name="Path 7769" d="M703.427,827.46l1.376,2.785,3.073.445-2.224,2.169.525,3.059-2.75-1.444-2.748,1.444.525-3.059-2.224-2.169,3.073-.445Z" transform="translate(-687.725 -827.46)" fill="#ccc462"/>
        <path id="Path_7770" data-name="Path 7770" d="M761.347,827.46l1.374,2.785,3.073.445-2.224,2.169.525,3.059-2.748-1.444-2.748,1.444.525-3.059L756.9,830.69l3.073-.445Z" transform="translate(-734.387 -827.46)" fill="#ccc462"/>
        <path id="Path_7771" data-name="Path 7771" d="M819.257,827.46l1.374,2.785,3.075.445-2.225,2.169.527,3.059-2.75-1.444-2.748,1.444.525-3.059-2.223-2.169,3.073-.445Z" transform="translate(-781.042 -827.46)" fill="#ccc462"/>
      </g>
    </g>
    <rect id="Rectangle_4045" data-name="Rectangle 4045" width="84.496" height="138.495" transform="translate(1162.852 3787.352)" fill="#ccc462"/>
    <rect id="Rectangle_4046" data-name="Rectangle 4046" width="77.293" height="130.394" transform="translate(1167.278 3790.172)" fill="#fff"/>
    <g id="Group_9414" data-name="Group 9414" transform="translate(1171.758 3795.474)">
      <g id="Group_9411" data-name="Group 9411" transform="translate(18.639 8.836)">
        <path id="Path_7772" data-name="Path 7772" d="M1658.41,548.46c0,6.2,3.736,16.212,12.546,15.891s10.76-9.862,11.1-12.554S1658.41,548.46,1658.41,548.46Z" transform="translate(-1654.739 -534.46)" fill="#505050"/>
        <path id="Path_7773" data-name="Path 7773" d="M1639.52,638.472c2.91-6.258,7.833-8.262,15.918-8.262,9.627,0,14.626,3.487,16.043,8.565C1654.241,639.011,1639.52,638.472,1639.52,638.472Z" transform="translate(-1639.52 -600.321)" fill="#ccc462"/>
        <path id="Path_7774" data-name="Path 7774" d="M1709.08,571.721c-.921,1.361-1.6,1.417-2.6,0-.8-1.127-2.362-3.687-2.362-4.985V553.771a2.369,2.369,0,0,1,2.362-2.362h2.6a2.369,2.369,0,0,1,2.361,2.362v12.964C1711.442,568.035,1709.906,570.5,1709.08,571.721Z" transform="translate(-1691.564 -536.837)" fill="#f09959"/>
        <path id="Path_7775" data-name="Path 7775" d="M1709.08,551.41h-2.6a2.369,2.369,0,0,0-2.362,2.362v11.566c2.917.929,5.58-.917,7.322-3v-8.569A2.369,2.369,0,0,0,1709.08,551.41Z" transform="translate(-1691.564 -536.837)" fill="#e38540"/>
        <ellipse id="Ellipse_2141" data-name="Ellipse 2141" cx="7.852" cy="10.7" rx="7.852" ry="10.7" transform="translate(8.365 4.006)" fill="#f09959"/>
        <path id="Path_7776" data-name="Path 7776" d="M1675.161,483c-.933,3.291-2.978,3.252-5.829,4.332s-4.214,2.167-5.147,4.272c-1.19,2.684.54,10.511.54,10.511s-7.22-5.4-6.385-13.9,5.844-11.788,10.56-11.788,6.507,2.873,6.507,2.873,2.511.01,4.886,2.824c3.193,3.782,2.21,12.966,0,16.256s-3.683,4.323-3.635,4.175,2.062-7.7.982-12.377A29.779,29.779,0,0,0,1675.161,483Z" transform="translate(-1654.629 -476.43)" fill="#5c5c5c"/>
        <path id="Path_7777" data-name="Path 7777" d="M1713.675,581.95a3.4,3.4,0,0,1-5.9,0Z" transform="translate(-1694.505 -561.441)" fill="#fff"/>
      </g>
      <path id="Path_7778" data-name="Path 7778" d="M1679.3,740.95h-19.831a2.305,2.305,0,1,1,0-4.61H1679.3a2.305,2.305,0,1,1,0,4.61Z" transform="translate(-1635.092 -676.988)" fill="#ccc462"/>
      <path id="Path_7779" data-name="Path 7779" d="M1667.877,777.4h-27.092a2.305,2.305,0,1,1,0-4.61h27.092a2.305,2.305,0,1,1,0,4.61Z" transform="translate(-1620.043 -706.354)" fill="#ccc462"/>
      <path id="Path_7780" data-name="Path 7780" d="M1610.859,916.514h-65.9a1.337,1.337,0,1,1,0-2.674h65.9a1.337,1.337,0,1,1,0,2.674Z" transform="translate(-1543.62 -819.989)" fill="#ccc462"/>
      <path id="Path_7781" data-name="Path 7781" d="M1610.859,948.514h-65.9a1.337,1.337,0,1,1,0-2.674h65.9a1.337,1.337,0,1,1,0,2.674Z" transform="translate(-1543.62 -845.77)" fill="#ccc462"/>
      <path id="Path_7782" data-name="Path 7782" d="M1610.859,980.514h-65.9a1.337,1.337,0,0,1,0-2.674h65.9a1.337,1.337,0,1,1,0,2.674Z" transform="translate(-1543.62 -871.55)" fill="#ccc462"/>
      <g id="Group_9412" data-name="Group 9412" transform="translate(8.165 0)">
        <path id="Path_7783" data-name="Path 7783" d="M1635.487,479.5h-47.469a2.391,2.391,0,0,1-2.389-2.389V433.359a2.391,2.391,0,0,1,2.389-2.389h47.469a2.391,2.391,0,0,1,2.389,2.389v43.749A2.392,2.392,0,0,1,1635.487,479.5Zm-47.469-46.582a.451.451,0,0,0-.445.445v43.749a.451.451,0,0,0,.445.445h47.469a.451.451,0,0,0,.445-.445V433.359a.451.451,0,0,0-.445-.445Z" transform="translate(-1585.63 -430.97)" fill="#ccc462"/>
      </g>
      <g id="Group_9413" data-name="Group 9413" transform="translate(12.956 77.062)">
        <path id="Path_7784" data-name="Path 7784" d="M1614.727,827.46l1.374,2.785,3.075.445-2.224,2.169.525,3.059-2.75-1.444-2.748,1.444.525-3.059-2.223-2.169,3.073-.445Z" transform="translate(-1610.28 -827.46)" fill="#ccc462"/>
        <path id="Path_7785" data-name="Path 7785" d="M1672.647,827.46l1.374,2.785,3.073.445-2.224,2.169.525,3.059-2.748-1.444-2.748,1.444.525-3.059-2.223-2.169,3.073-.445Z" transform="translate(-1656.943 -827.46)" fill="#ccc462"/>
        <path id="Path_7786" data-name="Path 7786" d="M1730.557,827.46l1.374,2.785,3.073.445-2.224,2.169.525,3.059-2.748-1.444-2.748,1.444.525-3.059-2.224-2.169,3.073-.445Z" transform="translate(-1703.597 -827.46)" fill="#ccc462"/>
        <path id="Path_7787" data-name="Path 7787" d="M1788.477,827.46l1.374,2.785,3.073.445-2.224,2.169.525,3.059-2.748-1.444-2.748,1.444.525-3.059-2.223-2.169,3.073-.445Z" transform="translate(-1750.26 -827.46)" fill="#ccc462"/>
      </g>
    </g>
    <path id="Path_7788" data-name="Path 7788" d="M993.929,528.417H860.58l9.432-136.6H998.737Z" transform="translate(178.422 3396.045)" fill="#b7af58" opacity="0.2"/>
    <rect id="Rectangle_4047" data-name="Rectangle 4047" width="115.409" height="189.163" transform="translate(1053.007 3762.017)" fill="#ccc462"/>
    <rect id="Rectangle_4048" data-name="Rectangle 4048" width="105.573" height="178.1" transform="translate(1059.052 3765.871)" fill="#fff"/>
    <g id="Group_9419" data-name="Group 9419" transform="translate(1065.17 3773.466)">
      <g id="Group_9416" data-name="Group 9416" transform="translate(24.125 8.227)">
        <path id="Path_7789" data-name="Path 7789" d="M1175.8,381.656c-.074-.222-1.922-10.83-2.144-14.956s6.629-4.715,6.629-4.715,5.6-3.02,9.652-1.473a16.324,16.324,0,0,1,8.651,7.392c1.843,3.242-1.621,13.345-1.621,13.345Z" transform="translate(-1163.098 -360.071)" fill="#5c5c5c"/>
        <path id="Path_7790" data-name="Path 7790" d="M1119.346,581.084c-.025-.175.472-4.35.492-4.519.933-8.791,11.771-11.265,22.585-11.265,12.705,0,21.325,2.325,22.7,11.461.041.268.774,4.453.737,4.735C1142.31,581.819,1119.346,581.084,1119.346,581.084Z" transform="translate(-1119.345 -525.412)" fill="#ccc462"/>
        <path id="Path_7791" data-name="Path 7791" d="M1215.044,485.413c-1.259,1.858-2.183,1.936-3.549,0-1.086-1.539-4.715-5.05-4.715-6.824l1.489-17.693a3.236,3.236,0,0,1,3.226-3.226h3.549a3.236,3.236,0,0,1,3.226,3.226l.692,17.693C1218.962,480.363,1216.173,483.747,1215.044,485.413Z" transform="translate(-1189.786 -438.701)" fill="#f09959"/>
        <path id="Path_7792" data-name="Path 7792" d="M1215.858,457.68h-3.549a3.236,3.236,0,0,0-3.226,3.226L1207.79,476.6c3.984,1.269,9.364-1.31,11.743-4.15l-.451-11.545A3.233,3.233,0,0,0,1215.858,457.68Z" transform="translate(-1190.6 -438.709)" fill="#e38540"/>
        <path id="Path_7793" data-name="Path 7793" d="M1177.52,570.53l5.689,10.515s3.046-2.505,3.339-2.014-.54,6.69-.54,6.69,6.777.091,7.073-.2-1.376-6.733-.688-6.733,2.756,1.866,2.756,1.866l6.352-10.122-1.4-.34-10.408,5.6-11.131-5.477Z" transform="translate(-1166.213 -529.351)" fill="#b7af58"/>
        <path id="Path_7794" data-name="Path 7794" d="M1210.99,590.441l4.225,2.834-1.31,7.524,5.7-.317-1.423-6.843,3.5-3.2-1.644-1.551h-7.4Z" transform="translate(-1193.178 -544.417)" fill="#e4eef5"/>
        <path id="Path_7795" data-name="Path 7795" d="M1186.645,543.392l-5.224,4.972s5.324,9.467,5.619,9.467,4.517-5.221,4.517-5.221l2.7-.047,4.272,4.482,4.964-8.781-5.061-5.364s-4.323,8.35-5.108,8.546-.791.3-1.427-.2S1186.645,543.392,1186.645,543.392Z" transform="translate(-1169.355 -507.365)" fill="#b7af58"/>
        <ellipse id="Ellipse_2142" data-name="Ellipse 2142" cx="10.725" cy="14.614" rx="10.725" ry="14.614" transform="translate(12.759 4.536)" fill="#f09959"/>
        <path id="Path_7796" data-name="Path 7796" d="M1167.1,445.828c1,2.113.674,4.367-.733,5.036s-3.362-.5-4.365-2.614-.674-4.367.733-5.036S1166.1,443.717,1167.1,445.828Z" transform="translate(-1153.243 -426.903)" fill="#f09959"/>
        <path id="Path_7797" data-name="Path 7797" d="M1284.812,445.828c-1,2.113-.674,4.367.733,5.036s3.362-.5,4.365-2.614.674-4.367-.733-5.036S1285.815,443.717,1284.812,445.828Z" transform="translate(-1252.184 -426.903)" fill="#f09959"/>
        <path id="Path_7798" data-name="Path 7798" d="M1225.216,489.45s-2.13,3.45-4.758,3.45-4.758-3.45-4.758-3.45Z" transform="translate(-1196.973 -464.304)" fill="#fff"/>
        <path id="Path_7799" data-name="Path 7799" d="M1189.19,382.554c4.42-3.094,6.41-2.579,9.724,2.505s7.294,5.174,7.294,5.174l.515-5.271s-4.939-9.553-11.568-8.3-10.4,7.22-10.4,7.22-.323,11.185.6,11.566,1.032-3.609,1.695-4.42-.663-4.641.222-6.41S1189.19,382.554,1189.19,382.554Z" transform="translate(-1171.998 -373.346)" fill="#5c5c5c"/>
        <path id="Path_7800" data-name="Path 7800" d="M1280.96,437.02c1.543,1.689.958,8.4,1.769,8.324s1.106-6.41.884-7.073S1280.96,437.02,1280.96,437.02Z" transform="translate(-1249.549 -422.064)" fill="#5c5c5c"/>
      </g>
      <path id="Path_7801" data-name="Path 7801" d="M1145.665,739.3H1096.4a3.149,3.149,0,1,1,0-6.3h49.266a3.149,3.149,0,1,1,0,6.3Z" transform="translate(-1074.197 -652.29)" fill="#ccc462"/>
      <path id="Path_7802" data-name="Path 7802" d="M1164.943,789.077h-37a3.149,3.149,0,0,1,0-6.3h37a3.149,3.149,0,0,1,0,6.3Z" transform="translate(-1099.607 -692.395)" fill="#ccc462"/>
      <path id="Path_7803" data-name="Path 7803" d="M1087.061,979.094H997.047a1.827,1.827,0,1,1,0-3.654h90.014a1.827,1.827,0,1,1,0,3.654Z" transform="translate(-995.22 -847.609)" fill="#ccc462"/>
      <path id="Path_7804" data-name="Path 7804" d="M1087.061,1022.794H997.047a1.827,1.827,0,1,1,0-3.654h90.014a1.827,1.827,0,1,1,0,3.654Z" transform="translate(-995.22 -882.816)" fill="#ccc462"/>
      <path id="Path_7805" data-name="Path 7805" d="M1087.061,1066.494H997.047a1.827,1.827,0,1,1,0-3.654h90.014a1.827,1.827,0,1,1,0,3.654Z" transform="translate(-995.22 -918.022)" fill="#ccc462"/>
      <g id="Group_9417" data-name="Group 9417" transform="translate(11.51 0)">
        <path id="Path_7806" data-name="Path 7806" d="M1122.18,383.307h-64.833a2.911,2.911,0,0,1-2.908-2.908V320.648a2.911,2.911,0,0,1,2.908-2.908h64.835a2.911,2.911,0,0,1,2.908,2.908V380.4A2.913,2.913,0,0,1,1122.18,383.307Zm-64.833-63.624a.965.965,0,0,0-.964.964V380.4a.965.965,0,0,0,.964.964h64.835a.965.965,0,0,0,.964-.964V320.648a.965.965,0,0,0-.964-.964Z" transform="translate(-1054.44 -317.74)" fill="#ccc462"/>
      </g>
      <g id="Group_9418" data-name="Group 9418" transform="translate(9.889 104.9)">
        <path id="Path_7807" data-name="Path 7807" d="M1052.174,857.46l1.878,3.8,4.2.61-3.038,2.96.717,4.181-3.755-1.975-3.753,1.975.717-4.181-3.038-2.96,4.2-.61Z" transform="translate(-1046.1 -857.46)" fill="#ccc462"/>
        <path id="Path_7808" data-name="Path 7808" d="M1131.274,857.46l1.878,3.8,4.2.61-3.038,2.96.717,4.181-3.755-1.975-3.753,1.975.717-4.181-3.038-2.96,4.2-.61Z" transform="translate(-1109.826 -857.46)" fill="#ccc462"/>
        <path id="Path_7809" data-name="Path 7809" d="M1210.376,857.46l1.875,3.8,4.2.61-3.038,2.96.717,4.181-3.753-1.975-3.755,1.975.717-4.181-3.038-2.96,4.2-.61Z" transform="translate(-1173.552 -857.46)" fill="#ccc462"/>
        <path id="Path_7810" data-name="Path 7810" d="M1289.484,857.46l1.878,3.8,4.2.61-3.036,2.96.715,4.181-3.753-1.975-3.755,1.975.717-4.181-3.036-2.96,4.2-.61Z" transform="translate(-1237.286 -857.46)" fill="#ccc462"/>
        <path id="Path_7811" data-name="Path 7811" d="M1369.844,857.46l1.877,3.8,4.2.61-3.038,2.96.717,4.181-3.753-1.975-3.755,1.975.717-4.181-3.036-2.96,4.2-.61Z" transform="translate(-1302.028 -857.46)" fill="#ccc462"/>
      </g>
    </g>
  </g>
</svg>
