<svg id="elevator" xmlns="http://www.w3.org/2000/svg" width="30.385" height="30.385" viewBox="0 0 30.385 30.385">
  <g id="Group_930" data-name="Group 930">
    <g id="Group_929" data-name="Group 929">
      <path id="Path_2688" data-name="Path 2688" d="M176.223,284.249a1.187,1.187,0,0,0-1.666.208l-3.217,4.137-3.217-4.137a1.187,1.187,0,1,0-1.874,1.457l4.154,5.341a1.187,1.187,0,0,0,1.874,0l4.154-5.341A1.187,1.187,0,0,0,176.223,284.249Z" transform="translate(-156.148 -267.145)" fill="#ec6337"/>
      <path id="Path_2689" data-name="Path 2689" d="M15.192,0A15.192,15.192,0,1,0,30.385,15.192,15.184,15.184,0,0,0,15.192,0Zm0,28.011A12.819,12.819,0,1,1,28.011,15.192,12.812,12.812,0,0,1,15.192,28.011Z" fill="#ec6337"/>
      <path id="Path_2690" data-name="Path 2690" d="M172.277,98.458a1.187,1.187,0,0,0-1.874,0l-4.154,5.341a1.187,1.187,0,1,0,1.874,1.457l3.217-4.136,3.217,4.136a1.187,1.187,0,0,0,1.874-1.457Z" transform="translate(-156.148 -92.184)" fill="#ec6337"/>
    </g>
  </g>
</svg>
