<svg id="exclamation-triangle-line" xmlns="http://www.w3.org/2000/svg" width="31.847" height="25.405" viewBox="0 0 31.847 25.405">
  <path id="Path_2692" data-name="Path 2692" d="M15.1,21.181a.875.875,0,0,1,.195-.965h0a.89.89,0,0,1,.286-.2.878.878,0,0,1,.963.191l0,0a.884.884,0,0,1,.2.287.875.875,0,0,1-.2.965.893.893,0,0,1-.288.2.875.875,0,0,1-.34.066.866.866,0,0,1-.339-.066.89.89,0,0,1-.283-.192l0,0a.883.883,0,0,1-.195-.287Zm1.34-19.855a.4.4,0,0,0-.167-.154,1.006,1.006,0,0,0-.7,0,.4.4,0,0,0-.167.154l-.012.018L1.485,23.159h0a2.3,2.3,0,0,0-.206.442,4,4,0,0,0-.156.6c-.006.032-.01.064-.013.094H30.736a.912.912,0,0,0-.013-.094,3.965,3.965,0,0,0-.156-.6,2.3,2.3,0,0,0-.206-.442l0,0L16.446,1.332l0-.006ZM16.756.176a1.487,1.487,0,0,1,.625.569h0L31.289,22.561l.012.018a3.376,3.376,0,0,1,.31.658,5.106,5.106,0,0,1,.2.766,1.975,1.975,0,0,1,.037.359,1.092,1.092,0,0,1-.186.645.91.91,0,0,1-.6.376,1.229,1.229,0,0,1-.226.022H1.016a1.229,1.229,0,0,1-.226-.022.91.91,0,0,1-.6-.376A1.094,1.094,0,0,1,0,24.362,1.98,1.98,0,0,1,.038,24a5.045,5.045,0,0,1,.2-.766,3.384,3.384,0,0,1,.31-.658h0l0-.007L14.463.75l0,0a1.488,1.488,0,0,1,.625-.569,2.056,2.056,0,0,1,1.664,0Zm-.282,18.645a.419.419,0,0,1-.336.4.761.761,0,0,1-.429,0,.419.419,0,0,1-.336-.4l-.7-9.216s0,0,0-.006h0c0-.226.336-.363.766-.416a4.134,4.134,0,0,1,.978,0c.43.054.766.19.766.416,0,0,0,.007,0,.011l-.7,9.211Z" fill="#ec6337"/>
</svg>
