<svg xmlns="http://www.w3.org/2000/svg" width="13.541" height="13.802" viewBox="0 0 13.541 13.802">
  <path id="finance-icon" d="M6.287,5.389,6,4.071c.949.177,2.338,1.7,3.22,2.913A1.96,1.96,0,0,0,8.208,8.637a1.737,1.737,0,0,0,.024.289A4.044,4.044,0,0,0,6.877,8.7a3.82,3.82,0,0,0-1.746.4,1.86,1.86,0,0,0-1.114,1.637,1.624,1.624,0,0,0,.1.562c-.012.036-.025.073-.035.112h0a1.586,1.586,0,0,0-.063.433,1.618,1.618,0,0,0,.093.545l-.025.076a1.608,1.608,0,0,0-.069.449,1.63,1.63,0,0,0,.276.913H4.209c-1.335-.069-3.4-.066-3.932-1.436C-.6,10.172,1,7.539,2.45,5.927a7.967,7.967,0,0,1,.593-.592A5.794,5.794,0,0,1,4.822,4.088L4.165,5.312,5.12,4.046h.5Zm2.229,7.253a.522.522,0,0,1,.079.271c0,.5-.772.9-1.723.9s-1.724-.4-1.724-.9a.528.528,0,0,1,.079-.271,1.978,1.978,0,0,0,1.646.634A1.966,1.966,0,0,0,8.516,12.641Zm4.955-.321a.641.641,0,0,1,.1.337c0,.611-.947,1.108-2.113,1.108s-2.106-.5-2.106-1.113a.637.637,0,0,1,.1-.337,2.414,2.414,0,0,0,2.015.776,2.437,2.437,0,0,0,2.022-.776Zm0-1.339a.647.647,0,0,1,.1.337c0,.611-.947,1.108-2.113,1.108s-2.106-.5-2.106-1.113a.643.643,0,0,1,.1-.337,2.414,2.414,0,0,0,2.015.776,2.437,2.437,0,0,0,2.022-.776ZM12.218,8.19l-.025.275-1.036-.09a.949.949,0,0,1,.177.373l-.249-.022a.848.848,0,0,0-.112-.245.51.51,0,0,0-.215-.193l.019-.225,1.441.125Zm-.763-.43c.958,0,1.736.306,1.736.681s-.777.677-1.736.677-1.736-.3-1.736-.674.777-.681,1.736-.681Zm0-.225c1.166,0,2.113.5,2.113,1.108s-.947,1.108-2.113,1.108-2.106-.5-2.106-1.109.946-1.108,2.112-1.108Zm2.022,2.147a.639.639,0,0,1,.09.318c0,.611-.947,1.108-2.113,1.108S9.349,10.61,9.349,10a.624.624,0,0,1,.083-.319,2.388,2.388,0,0,0,2.022.786,2.406,2.406,0,0,0,2.022-.786Zm-5.983.682-.02.225-.846-.074a.78.78,0,0,1,.145.3l-.2-.016a.674.674,0,0,0-.092-.2.425.425,0,0,0-.175-.157l.013-.184,1.176.1Zm-.617-.347c.786,0,1.417.249,1.417.562s-.635.562-1.417.562-1.417-.249-1.417-.562S6.091,10.017,6.877,10.017Zm0-.184c.952,0,1.723.406,1.723.9s-.772.9-1.723.9-1.724-.4-1.724-.9.767-.909,1.724-.909Zm1.65,1.752a.516.516,0,0,1,.073.26c0,.5-.772.9-1.723.9s-1.724-.406-1.724-.9a.512.512,0,0,1,.073-.26,1.95,1.95,0,0,0,1.651.644A1.948,1.948,0,0,0,8.527,11.585ZM4.781,2.3c-.2-.6-.389-1.213-.544-1.831.58-.636,2.82-.552,3.463-.01L7.1,1.875c.321-.422.429-.6.62-.83a1.929,1.929,0,0,1,.225.176.93.93,0,0,1,.352.562.58.58,0,0,1-.161.468L6.775,3.844a2.989,2.989,0,0,1-.516-.13c.078-.183.172-.384.249-.562l-.5.538a1.858,1.858,0,0,0-1.326.162L3.3,2.181a.461.461,0,0,1-.12-.3c0-.4.6-.749.916-.881Z" transform="translate(-0.028 -0.021)" fill="#ec6337" fill-rule="evenodd"/>
</svg>
