<svg xmlns="http://www.w3.org/2000/svg" xmlns:xlink="http://www.w3.org/1999/xlink" width="164" height="141" viewBox="0 0 164 141">
  <defs>
    <filter id="Rectangle_1148" x="0" y="0" width="164" height="141" filterUnits="userSpaceOnUse">
      <feOffset dy="3" input="SourceAlpha"/>
      <feGaussianBlur stdDeviation="3" result="blur"/>
      <feFlood flood-opacity="0.161"/>
      <feComposite operator="in" in2="blur"/>
      <feComposite in="SourceGraphic"/>
    </filter>
  </defs>
  <g id="firepit" transform="translate(9 6)">
    <g transform="matrix(1, 0, 0, 1, -9, -6)" filter="url(#Rectangle_1148)">
      <rect id="Rectangle_1148-2" data-name="Rectangle 1148" width="146" height="123" rx="27" transform="translate(9 6)" fill="#fff"/>
    </g>
    <text id="Fire_pit" data-name="Fire pit" transform="translate(51 91)" font-size="14" font-family="SegoeUI, Segoe UI"><tspan x="0" y="0">Fire pit</tspan></text>
    <g id="Group_933" data-name="Group 933" transform="translate(56.471 20.239)">
      <path id="Path_2717" data-name="Path 2717" d="M92.653,342.625l-.38-.113.38-.113a3.611,3.611,0,1,0-2.059-6.921l-10.979,3.268-10.981-3.268a3.61,3.61,0,0,0-2.059,6.92l.382.114-.382.114a3.607,3.607,0,0,0-2.565,3.6s0,.005,0,.008h0A3.595,3.595,0,0,0,67.6,349.7a3.614,3.614,0,0,0,1.036-.152l10.98-3.267,10.979,3.267a3.582,3.582,0,0,0,2.751-.286,3.525,3.525,0,0,0,1.874-3.025h0s0-.005,0-.008A3.607,3.607,0,0,0,92.653,342.625Zm-1.564-5.485a1.882,1.882,0,0,1,1.427.148,1.875,1.875,0,0,1-.358,3.446h0l-2.927.871-3.948-1.175-2.626-.781ZM67.722,347.922a1.783,1.783,0,0,1-1.913-1.3,1.808,1.808,0,0,1-.044-.487,1.726,1.726,0,1,1,1.956,1.789Zm3.088-.834a2.69,2.69,0,0,0,.142-.853,3.452,3.452,0,0,0-1.326-2.708l.372-.111,6.575,1.957Zm17.467-.853a2.691,2.691,0,0,0,.142.853L67.07,340.734a1.876,1.876,0,0,1-.358-3.446,1.883,1.883,0,0,1,1.427-.148L89.6,343.527A3.452,3.452,0,0,0,88.277,346.235Zm5.142.386a1.859,1.859,0,0,1-.9,1.113,1.828,1.828,0,0,1-1.011.188,1.716,1.716,0,0,1-1.494-1.687,1.727,1.727,0,0,1,3.451-.1A1.808,1.808,0,0,1,93.419,346.621Z" transform="translate(-63.994 -308.044)" fill="#ec6337"/>
      <path id="Path_2718" data-name="Path 2718" d="M138.41,27.768a10.462,10.462,0,0,0,10.412-10.489c0-.291-.019-.562-.039-.832l-.019-.264c-.317-4.136-2.214-6.712-3.888-8.985-1.5-2.032-2.79-3.786-2.79-6.331a.868.868,0,0,0-1.375-.7,15.163,15.163,0,0,0-5.185,8.152,24.409,24.409,0,0,0-.581,5.395c-1.836-.778-2.41-3.9-2.417-3.937a.868.868,0,0,0-1.236-.631c-.127.062-3.112,1.59-3.281,7.537-.014.2-.014.4-.014.6A10.463,10.463,0,0,0,138.41,27.768Zm-8.664-11.008a8.945,8.945,0,0,1,1.464-5.251c.576,1.647,1.89,4.109,4.6,4.109a.867.867,0,0,0,.868-.868,25.144,25.144,0,0,1,.536-6.014,14.483,14.483,0,0,1,3.312-6.11,14.217,14.217,0,0,0,2.954,5.6c1.612,2.186,3.278,4.447,3.554,8.077l.019.271c.019.229.036.457.036.7a8.677,8.677,0,1,1-17.352,0C129.734,17.117,129.734,16.955,129.746,16.761Z" transform="translate(-122.791 0.001)" fill="#ec6337"/>
    </g>
  </g>
</svg>
