<svg xmlns="http://www.w3.org/2000/svg" width="10.789" height="12.827" viewBox="0 0 10.789 12.827">
  <path id="funnel-icon" d="M6.74.472A12.368,12.368,0,0,1,7.966.638a1.159,1.159,0,0,0-.265.568c-.279-.048-.574-.088-.882-.117A1.253,1.253,0,0,0,6.74.472ZM2.226.167A.972.972,0,1,1,.877.43.972.972,0,0,1,2.226.167Zm6.62.669a.562.562,0,1,1-.562.562A.562.562,0,0,1,8.846.836ZM5.56.2A.731.731,0,1,1,4.83.933.731.731,0,0,1,5.56.2ZM3.811,2.095a.461.461,0,1,1-.46.46A.461.461,0,0,1,3.811,2.095Zm6.4,1.618c-.925.9-1.591,1.507-2.073,2.022H2.647C2.173,5.226,1.528,4.6.654,3.728a2.243,2.243,0,0,1-.336-.418l.019.019A1.192,1.192,0,0,1,0,2.524a1.164,1.164,0,0,1,.291-.748,1.585,1.585,0,0,0,.257.336,1.5,1.5,0,0,0,.136.121.54.54,0,0,0-.094.3c0,.83,2.152,1.5,4.807,1.5s4.8-.672,4.8-1.5a.741.741,0,0,0-.343-.558A1.157,1.157,0,0,0,10,1.4c0-.016,0-.032,0-.048a1.44,1.44,0,0,1,.785,1.176,1.161,1.161,0,0,1-.284.745,1.461,1.461,0,0,0,.142-.181,1.713,1.713,0,0,1-.435.62ZM3.274,1.175A1.628,1.628,0,0,0,3.236.569C3.6.514,3.987.472,4.39.446a1.253,1.253,0,0,0-.1.495,1.227,1.227,0,0,0,.006.125c-.359.027-.7.066-1.024.115ZM7.709,6.221c-.731.915-.841,1.316-.859,3.456H3.9c.054-2.116.062-2.377-.826-3.456Zm-.86,3.943v1.208a.259.259,0,0,1-.147.234L4.255,12.792a.26.26,0,0,1-.392-.224h0c0-.971.02-1.755.037-2.4Z" transform="translate(0 -0.001)" fill="#ec6337"/>
</svg>
