<svg xmlns="http://www.w3.org/2000/svg" width="19.884" height="13.031" viewBox="0 0 19.884 13.031">
  <path id="Path_3021" data-name="Path 3021" d="M14.773,7.67a1.181,1.181,0,0,1-1.434,1.257,2.379,2.379,0,0,0-.236.657,1.836,1.836,0,0,0-.037,1.022c.08.794-.006,1.335-.517,1.566v.3H2.219v-.3c-.4-.142-.569-.531-.509-1.174.132-1.207.049-1.585-.254-2.04A1.412,1.412,0,0,1,.3,8.582,1.124,1.124,0,0,1,.569,6.855a1.355,1.355,0,0,1,.447-.175,1.287,1.287,0,0,1,.906.075A3.307,3.307,0,0,1,3.4,8.807L6.847,8.9a.658.658,0,0,1,.485.279.685.685,0,0,1,.434-.292c1.072-.046,1.84.1,2.624.1H11.3a.279.279,0,0,0,.316-.233A4.155,4.155,0,0,1,12.7,7.06c.316-.309.373-.424.829-.41A1.313,1.313,0,0,1,14.773,7.67ZM15.559,0h3.126L19.6,3.617H14.649L15.559,0Zm1.868,4.163v8.012h1.21a.3.3,0,1,1,0,.606H15.614a.3.3,0,0,1,0-.606h1.21V4.163ZM2.064,6.472h0A1.16,1.16,0,0,1,3.7,5.764L4.49,8.491H3.632L3.38,7.976,3.1,7.408a2.342,2.342,0,0,0-.453-.566,2.1,2.1,0,0,0-.585-.37Zm1.965-.691a.047.047,0,0,0,.024-.026A1.3,1.3,0,0,1,5.812,5.18a.006.006,0,0,1,0,0l.18,3.475H4.852L4.029,5.781Zm2.137-.673C6.379,4.22,8.4,4.4,8.59,5.014c.027,0-.209,3.279-.226,3.644h-.3a1.057,1.057,0,0,0-.44.059l-.292.091-.257-.1A.744.744,0,0,0,6.7,8.658H6.32L6.174,5.11l-.008,0Zm2.689.148a.049.049,0,0,0,.021,0c.734-.391,1.753-.107,1.852.4l-.049.019-.8,2.978H8.686l.169-3.4Zm2.116.633A.041.041,0,0,0,11,5.879c.569-.447,1.405-.258,1.788.675h-.008a4.252,4.252,0,0,0-1.49,2.115H10.2l.769-2.778Z" transform="translate(0.121 0.125)" fill="none" stroke="#ec6337" stroke-width="0.25" fill-rule="evenodd"/>
</svg>
