<svg xmlns="http://www.w3.org/2000/svg" xmlns:xlink="http://www.w3.org/1999/xlink" width="50" height="50" viewBox="0 0 50 50">
  <defs>
    <filter id="Ellipse_2152" x="0" y="0" width="50" height="50" filterUnits="userSpaceOnUse">
      <feOffset dy="3" input="SourceAlpha"/>
      <feGaussianBlur stdDeviation="3" result="blur"/>
      <feFlood flood-opacity="0.161"/>
      <feComposite operator="in" in2="blur"/>
      <feComposite in="SourceGraphic"/>
    </filter>
  </defs>
  <g id="gmailicon" transform="translate(9 6)">
    <g transform="matrix(1, 0, 0, 1, -9, -6)" filter="url(#Ellipse_2152)">
      <circle id="Ellipse_2152-2" data-name="Ellipse 2152" cx="16" cy="16" r="16" transform="translate(9 6)" fill="#fff"/>
    </g>
    <g id="gmail-icon" transform="translate(9.086 10.816)">
      <path id="Path_9034" data-name="Path 9034" d="M.941,31.453h2.2v-5.34L0,23.76v6.762a.939.939,0,0,0,.941.932Z" transform="translate(0 -21.086)" fill="#4285f4"/>
      <path id="Path_9035" data-name="Path 9035" d="M94.97,31.453h2.2a.94.94,0,0,0,.941-.941V23.76l-3.14,2.353v5.34Z" transform="translate(-84.282 -21.086)" fill="#34a853"/>
      <path id="Path_9036" data-name="Path 9036" d="M94.97.942V5.024l3.141-2.353V1.413A1.414,1.414,0,0,0,95.848.282L94.97.942Z" transform="translate(-84.282 0.003)" fill="#fbbc04"/>
      <path id="Path_9037" data-name="Path 9037" d="M27.9,12.482V8.4l3.775,2.833L35.448,8.4v4.082l-3.774,2.824Z" transform="translate(-24.76 -7.454)" fill="#ea4335"/>
      <path id="Path_9038" data-name="Path 9038" d="M0,1.429V2.687L3.141,5.04V.958L2.263.3A1.417,1.417,0,0,0,0,1.429Z" transform="translate(0 -0.012)" fill="#c5221f"/>
    </g>
  </g>
</svg>
