<svg xmlns="http://www.w3.org/2000/svg" width="168.136" height="159.764" viewBox="0 0 168.136 159.764">
  <g id="Group_10600" data-name="Group 10600" transform="translate(-1137 -3842.041)">
    <g id="Group_9182" data-name="Group 9182" transform="translate(1251.386 3842.041)">
      <g id="Group_9179" data-name="Group 9179" transform="translate(25.656 0)" opacity="0.8">
        <path id="Path_7484" data-name="Path 7484" d="M2844.042,256.03h-5.453a3.823,3.823,0,0,1-3.819-3.819v-5.453a3.823,3.823,0,0,1,3.819-3.819h5.453a3.823,3.823,0,0,1,3.819,3.819v5.453A3.823,3.823,0,0,1,2844.042,256.03Zm-5.453-11.587a2.319,2.319,0,0,0-2.316,2.316v5.453a2.319,2.319,0,0,0,2.316,2.316h5.453a2.319,2.319,0,0,0,2.316-2.316V246.76a2.319,2.319,0,0,0-2.316-2.316Z" transform="translate(-2834.77 -242.94)" fill="#fc780b"/>
      </g>
      <g id="Group_9180" data-name="Group 9180" transform="translate(0 0)" opacity="0.8">
        <path id="Path_7485" data-name="Path 7485" d="M2605.012,256.03h-5.452a3.823,3.823,0,0,1-3.819-3.819v-5.453a3.823,3.823,0,0,1,3.819-3.819h5.452a3.823,3.823,0,0,1,3.819,3.819v5.453A3.824,3.824,0,0,1,2605.012,256.03Zm-5.452-11.587a2.319,2.319,0,0,0-2.316,2.316v5.453a2.319,2.319,0,0,0,2.316,2.316h5.452a2.319,2.319,0,0,0,2.316-2.316V246.76a2.319,2.319,0,0,0-2.316-2.316Z" transform="translate(-2595.74 -242.94)" fill="#fc780b"/>
      </g>
    </g>
    <path id="Path_7545" data-name="Path 7545" d="M1792.514,1174.914H1710.73a.89.89,0,0,1-.89-.89v-1.334a.89.89,0,0,1,.89-.89h81.784a.89.89,0,0,1,.89.89v1.334A.889.889,0,0,1,1792.514,1174.914Z" transform="translate(-572.84 2759.66)" fill="#b94520"/>
    <g id="Group_9202" data-name="Group 9202" transform="translate(1175.091 3878.182)">
      <path id="Path_7546" data-name="Path 7546" d="M2583.484,735.523a7.409,7.409,0,0,1-4.58,8.779c-2.982.846-5.109-1.809-6.217-5.716s.41-7.759,3.392-8.6S2582.376,731.616,2583.484,735.523Z" transform="translate(-2512.763 -724.049)" fill="#f09959"/>
      <path id="Path_7547" data-name="Path 7547" d="M2491.833,1488.29s7.641,11.868,8.672,12.384,3.612.645,2.645,2.58-1.354,9.546-2.257,9.933-8.643,1.29-7.483,0,1.876-.645,2.462-2.967,1.409-6.707.312-7.611-7.8-9.03-7.8-9.03Z" transform="translate(-2437.828 -1401.113)" fill="#f09959"/>
      <path id="Path_7548" data-name="Path 7548" d="M2032.945,1535.77s-9.289,15.308-11.008,16.685-7.4,3.44-2.752,3.785,6.88-1.548,9.8-2.408,6.537-1.376,5.161-3.612-.8-7.117,2.162-10.214S2032.945,1535.77,2032.945,1535.77Z" transform="translate(-2017.398 -1443.497)" fill="#f09959"/>
      <path id="Path_7549" data-name="Path 7549" d="M2176.853,1204.944s-22.993-.6-32.109,6.88c-5.332,8.084-18.232,31.937-19.234,34.566.688.688,4.558,1.93,6.278,1.757,5.074-6.051,11.781-11.281,14.448-16.027,3.287-5.849,4.3-8.772,9.632-9.288s17.373-2.236,20.985-2.236S2176.853,1204.944,2176.853,1204.944Z" transform="translate(-2113.906 -1148.17)" fill="#505050"/>
      <path id="Path_7550" data-name="Path 7550" d="M2708.768,1426.96h-1.205l-8.643-36.06h2.651Z" transform="translate(-2625.77 -1314.177)" fill="#fc780b"/>
      <path id="Path_7551" data-name="Path 7551" d="M2454.29,1416.355h1.205l9.918-37.335h-2.651Z" transform="translate(-2407.397 -1303.572)" fill="#fc780b"/>
      <path id="Path_7552" data-name="Path 7552" d="M2349.919,1190.37l-13.369,2.308s-17.765.163-25.884,1.676c-7.388,1.376-8.476,9.771,0,21.328,4.815,6.566,8.886,11.8,17.212,17.709,2.118-1.555,2.928-2.143,3.513-5.884-.6-.826-2.163-6-2.647-7.009-4.6-9.626-10.752-13.127-10.836-14.073,1.031-1.677,27.336,8.741,32.566,2.612C2355.467,1203.186,2349.919,1190.37,2349.919,1190.37Z" transform="translate(-2273.872 -1135.17)" fill="#505050"/>
      <path id="Path_7553" data-name="Path 7553" d="M2589.224,907.146a13.99,13.99,0,0,0-10.46,2.6c-2.93,2.987-6.247,7.914-6.042,16.039.258,10.32-1.6,10.982.338,13.82,8.07,3.333,21.873,17.651,18.622,2.3-2.354-11.115,5.162-19.4-.9-31.73C2590.287,909.176,2589.671,908.2,2589.224,907.146Z" transform="translate(-2512.622 -882.21)" fill="#fc780b"/>
      <path id="Path_7554" data-name="Path 7554" d="M2572.714,951.109c-.157,5.38-.917,6.965-.336,8.651,3.29.336,9.308,1.653,10.812,3.758,1.721,2.407,3.44,2.752,2.637.975s-2.924-4.3.345-12.957,4.816-14.506,1.605-20.525Z" transform="translate(-2512.618 -903.648)" fill="#b94520"/>
      <path id="Path_7555" data-name="Path 7555" d="M2644.081,817.769a41.988,41.988,0,0,1-2.7-10.9l-5.676,1.677s3.225,7.224.129,9.8a29.665,29.665,0,0,0-2.213,2.021A13.988,13.988,0,0,1,2644.081,817.769Z" transform="translate(-2567.479 -792.833)" fill="#f09959"/>
      <path id="Path_7556" data-name="Path 7556" d="M2658.958,810.763c-.336-.3-.757-.673-1.2-1.062l-4.63,1.367-.009.025a18.9,18.9,0,0,1,1.446,5.654,16.331,16.331,0,0,0,4.617-4.585C2659.09,811.632,2659.016,811.161,2658.958,810.763Z" transform="translate(-2584.886 -795.359)" fill="#e38540"/>
      <path id="Path_7557" data-name="Path 7557" d="M2407.108,922.1c-5.845,2.045-5.2,8.2-10.578,17.286-2.784,4.7-5.371,4.63-5.371,4.63a124.533,124.533,0,0,1-14.429-.914c-4.946-.6-5.26.867-1.82,2.1,6.938,2.48,14.137,5.15,19.943,4.5s15.733-15.456,16.245-19.311C2411.806,925.058,2410.052,921.066,2407.108,922.1Z" transform="translate(-2334.497 -895.546)" fill="#f09959"/>
      <g id="Group_9198" data-name="Group 9198" transform="translate(49.05 39.274)">
        <path id="Path_7558" data-name="Path 7558" d="M2494.932,1080.944c-.364,0-.735,0-1.117-.014a55.662,55.662,0,0,1-10.613-1.306c-3.043-.618-4.719-.958-6.67-.027a1.5,1.5,0,1,1-1.3-2.712c2.859-1.366,5.252-.88,8.563-.206a52.976,52.976,0,0,0,10.089,1.247c5.036.125,8.107-.622,9.664-2.348,1.387-1.538,1.792-4.122,1.277-8.13-.176-1.372-.353-2.514-.509-3.521a24.382,24.382,0,0,1-.37-7.619c.334-2.694,1.226-6.283,3.292-13.242a1.5,1.5,0,1,1,2.882.855c-3.85,12.967-3.655,14.23-2.834,19.546.159,1.025.338,2.186.52,3.6.635,4.945-.008,8.289-2.025,10.527C2503.706,1079.9,2500.333,1080.944,2494.932,1080.944Z" transform="translate(-2474.381 -1041.992)" fill="#fc780b"/>
      </g>
      <path id="Path_7559" data-name="Path 7559" d="M2033.581,1655.98c-6.163,3.014-9.48,4.741-11.456,4.577-.467-.039-.853-.087-1.178-.137-2.2,1.3-5.706,2.834-1.759,3.127,4.645.343,6.88-1.548,9.8-2.408s6.537-1.376,5.161-3.612A4.706,4.706,0,0,1,2033.581,1655.98Z" transform="translate(-2017.401 -1550.804)" fill="#d54a41"/>
      <path id="Path_7560" data-name="Path 7560" d="M2542.042,1606.01c-.15,4.879-.821,9.715-3.806,10.628a5.014,5.014,0,0,1-2.15.192c-.469.581-1.042.587-1.811,1.44-1.161,1.29,6.579.388,7.482,0s1.291-8,2.258-9.933C2544.809,1606.749,2543.209,1606.378,2542.042,1606.01Z" transform="translate(-2478.691 -1506.198)" fill="#d54a41"/>
      <g id="Group_9199" data-name="Group 9199" transform="translate(10.616 33.598)">
        <path id="Path_7561" data-name="Path 7561" d="M2145.3,1009.148h-19.579a1.5,1.5,0,0,1-1.363-.869l-7.913-17.029a1.5,1.5,0,1,1,2.726-1.267l7.508,16.159h18.62a1.5,1.5,0,0,1,0,3.005Z" transform="translate(-2116.303 -989.113)" fill="#fc780b"/>
      </g>
      <path id="Path_7562" data-name="Path 7562" d="M2279.812,1103.2c-3.956-.057-7.879-2.415-9.829-2.072s-8.314,4.759-7.511,4.931,5.848-2.443,6.021-2.483a8.482,8.482,0,0,0,3.956,2.491c2.7.68.02-2.02,8.372.5C2286.252,1108.209,2279.812,1103.2,2279.812,1103.2Z" transform="translate(-2236.104 -1055.474)" fill="#f09959"/>
      <path id="Path_7563" data-name="Path 7563" d="M2614.272,864.77l.582,4.684s-5.12.3-7.667,1.738-6.307,5.575-6.307,5.575l3.072-5.288.442-3.383Z" transform="translate(-2538.253 -844.518)" fill="#f2e5de"/>
      <path id="Path_7564" data-name="Path 7564" d="M2457.349,917.41c-3.8-.713-5.561,2.7-8.027,8.256a79.857,79.857,0,0,1-7.511,13.187c-.837.87-14.1,0-14.1,0s-.4,3.841,0,4.3,2.7.4,2.7.4.918.732,1.777,1.313,8.142,1.669,11.524,1.5,6.479-.458,6.938-.975,9.69-14.735,10.263-19.838S2459.29,917.774,2457.349,917.41Z" transform="translate(-2383.508 -891.424)" fill="#f2e5de"/>
      <path id="Path_7565" data-name="Path 7565" d="M2549.928,678.678c-7.191.345-6.063,11.163-6.063,11.163s1.867.576,5.781-.069a21.591,21.591,0,0,1-.172-4.128,27.156,27.156,0,0,0,1.031,3.87c.828.379,1.764.043,3.354-.341a7.076,7.076,0,0,0,4.707,5.387c1.746.549,3.6,1.2,5.66.172s.93-11.581-.167-13.7c-1.645-3.185-4.379-6.034-9.109-4.53A35.182,35.182,0,0,0,2549.928,678.678Z" transform="translate(-2487.3 -676.085)" fill="#5c5c5c"/>
      <path id="Path_7566" data-name="Path 7566" d="M2717.4,813.523l2.94,4.294s-3.259,8.141,6.219,11.83c7.422,2.888,6.547,7.979,3.194,13.1s2.007,9.589,2.007,9.589.818-5.67,8.029-6.741c9.833-1.46,12.617-14.661,5.272-21.262-6.077-5.462-7.927-.939-12.041-5.841s-11.88-1.591-11.88-1.591l-2.847-4.151Z" transform="translate(-2642.266 -798.082)" fill="#5c5c5c"/>
      <g id="Group_9200" data-name="Group 9200" transform="translate(78.614 16.949)">
        <path id="Path_7567" data-name="Path 7567" d="M2777.391,856.595a.262.262,0,0,1-.229-.387c2.473-4.519.455-9.993-.559-11.475-.108-.157-.21-.317-.318-.485-1-1.556-2.238-3.493-8.858-4.685a10.527,10.527,0,0,1-4.252-2.238c-2.823-2.073-6.023-4.422-12.976-1.221a.261.261,0,1,1-.219-.474c7.232-3.328,10.564-.883,13.5,1.275a10.177,10.177,0,0,0,4.036,2.146c6.846,1.232,8.154,3.276,9.206,4.917.106.165.206.321.309.472,1.063,1.553,3.177,7.289.587,12.022A.263.263,0,0,1,2777.391,856.595Z" transform="translate(-2749.827 -833.995)" fill="#303c60"/>
      </g>
      <g id="Group_9201" data-name="Group 9201" transform="translate(65.88 9.613)">
        <path id="Path_7568" data-name="Path 7568" d="M2638.872,775.878a10.291,10.291,0,0,1-1.528-.123c-2.515-.377-5.891-1.806-6.156-9.836a.261.261,0,0,1,.522-.017c.109,3.309.765,5.758,1.951,7.278a5.481,5.481,0,0,0,3.76,2.058c2.328.349,3.872-.082,4.586-1.278a.261.261,0,1,1,.448.268A3.831,3.831,0,0,1,2638.872,775.878Z" transform="translate(-2631.189 -765.649)" fill="#303c60"/>
      </g>
    </g>
    <path id="Path_7569" data-name="Path 7569" d="M1791.52,1253.126h1.932l7.517-61.566h-4.252Z" transform="translate(-633.729 2741.457)" fill="#b94520"/>
    <path id="Path_7570" data-name="Path 7570" d="M2323.789,1253.126h-1.932l-7.516-61.566h4.25Z" transform="translate(-1117.885 2743.014)" fill="#b94520"/>
    <g id="Group_9203" data-name="Group 9203" transform="translate(1255.729 3940.172)">
      <path id="Path_7571" data-name="Path 7571" d="M3079.309,1275.01c3.343,3.053,1.889,6.1-.582,11.772s-2.906,26.6-2.906,26.6l2.035-.291s-.291-21.511,2.471-27.325,3.924-8.721,6.4-6.831S3079.309,1275.01,3079.309,1275.01Z" transform="translate(-3055.955 -1261.624)" fill="#fc780b"/>
      <path id="Path_7572" data-name="Path 7572" d="M3089.709,1159.728c.406-1.809,2.817-3.766,6.041-5.427-.479,2.668-2.017,7.031-.426,7.925,2.146,1.207.209-4.884,1.037-8.231a39.837,39.837,0,0,1,10.023-3.288.33.33,0,0,1-.014.036c-1.889,4.8-4.36,6.686-3.342,7.413.765.546,3.259-4.994,6.551-7.834,2.471-.132,4.562.2,5.8,1.183,1.912,1.513,3.194,2.856,1.272,7.464a8.64,8.64,0,0,1-4.174,1.512c-4.36.436-6.4.582-3.344,2.035,1.5.712,4-.041,6.031-.5-.659,1.214-1.469,2.589-2.454,4.154a15.412,15.412,0,0,1-2.042,2.6,6.445,6.445,0,0,1-3.279-.005c-2.035-.872-7.268-3.633-8.575-2.471-1.28,1.138,9.69,1.859,8.93,4.751-5.317,3.063-11.4,1.606-12.478-1.208C3093.82,1166.062,3088.486,1165.173,3089.709,1159.728Z" transform="translate(-3068.192 -1150.293)" fill="#fc780b"/>
      <path id="Path_7573" data-name="Path 7573" d="M3056.808,1415.261c-5.814-4.36-11.773-.291-14.824,4.36s-.872,15.116-.872,15.116,1.163,0,1.163-.436-3.2-12.354,4.36-17.733c4.728-3.364,8.139-1.744,8.575-.145s-1.889,4.506-1.889,4.506Z" transform="translate(-3024.298 -1385.161)" fill="#fc780b"/>
      <path id="Path_7574" data-name="Path 7574" d="M3066.9,1347.23c5.814,0,7.7,9.012,6.1,14.244s-3.779,14.971-3.779,14.971l-1.453-1.453s5.523-13.662,4.215-19.767-4.506-7.121-5.088-7.121S3066.9,1347.23,3066.9,1347.23Z" transform="translate(-3047.758 -1326.092)" fill="#fc780b"/>
      <path id="Path_7575" data-name="Path 7575" d="M3102.349,1469.616a4.206,4.206,0,0,1,1.531-1.286,11.531,11.531,0,0,1-.3,1.245c-.729,2.384-1.578,5.7-2.286,8.61-.064-.372-.163-.946-.317-1.831-.036-.209-.064-.436-.084-.676A56.489,56.489,0,0,0,3102.349,1469.616Z" transform="translate(-3078.334 -1434.194)" fill="#b94520"/>
      <path id="Path_7576" data-name="Path 7576" d="M3104.288,1412.565c11.046-4.651,5.226-11.033,14.965-6.819a1.695,1.695,0,1,1-.727,2.326c-2.906-.436-1.889,1.889,2.907,2.471a10.753,10.753,0,0,1,2.248.474c2.285,4.389,3.314,10.164-1.521,12.171a10.945,10.945,0,0,1-3.441.706c-1.492-1.186.364-8.049-1.936-7.1-2.209.909.692,5.883.3,7.137a31.917,31.917,0,0,1-6.9-.967,3.439,3.439,0,0,1-1.824-2.1c-.727-3.053,4.07-4.942,4.215-7.558.134-2.405-1.758,5.292-6.77,6.424C3101.265,1417.612,3099.124,1414.739,3104.288,1412.565Z" transform="translate(-3078.683 -1377.099)" fill="#fc780b"/>
      <path id="Path_7577" data-name="Path 7577" d="M2908.474,1316.476c1.162-2.471-1.889-3.053-1.744-1.163.129,1.675.143,5.745-1.575,6.852a26.959,26.959,0,0,1-10.037-3.333,1.236,1.236,0,0,1,.128-.758c1.308-2.617,9.739-4.8,7.122-5.668-2.083-.695-5.735,3.4-8.677,5.47-1.767-1.341-2.951-2.939-2.951-4.723,0-2.415,2.935-5.148,6.728-6.454,1.708.172,3.294,1.106,5.771,2.51,3.66,2.074,2.813-1.279-.647-3.269a10.425,10.425,0,0,1,8.163,4.48,5.092,5.092,0,0,0,1.172,3.32c3.763,5.5-.58,8.711-5.771,8.5A34.25,34.25,0,0,1,2908.474,1316.476Z" transform="translate(-2890.74 -1289.234)" fill="#fc780b"/>
      <path id="Path_7578" data-name="Path 7578" d="M3179.551,1428.135a49.4,49.4,0,0,0,9.875,6.509c3.876,1.744,3.1,7.428,3.1,7.428s.582-4.909-2.649-6.589-5.362-3.683-7.817-4.07a35.567,35.567,0,0,1-3.811-.775s.775-1.551.323-2.132S3179.551,1428.135,3179.551,1428.135Z" transform="translate(-3147.391 -1398.28)" fill="#b94520"/>
      <path id="Path_7579" data-name="Path 7579" d="M3147.366,1188.14a45.577,45.577,0,0,0-19.445,11.047c-1.421,1.615-1.421,2.067-1.421,2.067l1.1,2.067.516-.259s-.839-1.744,1.357-4.006a39.749,39.749,0,0,1,11.563-8.333C3144.2,1189.368,3147.366,1188.14,3147.366,1188.14Z" transform="translate(-3101.195 -1184.078)" fill="#b94520"/>
      <path id="Path_7580" data-name="Path 7580" d="M3010.875,1606.026h3.974a5.116,5.116,0,0,0,5.116-5.116v-9.13H3005.76v9.13A5.116,5.116,0,0,0,3010.875,1606.026Z" transform="translate(-2993.414 -1544.394)" fill="#b94520"/>
      <rect id="Rectangle_4002" data-name="Rectangle 4002" width="14.206" height="1" transform="translate(12.346 49.019)" fill="#fff"/>
      <rect id="Rectangle_4003" data-name="Rectangle 4003" width="14.206" height="0.588" transform="translate(12.346 50.843)" fill="#fff"/>
    </g>
  </g>
</svg>
