<svg xmlns="http://www.w3.org/2000/svg" width="594.929" height="240" viewBox="0 0 594.929 240">
  <g id="Group_1266" data-name="Group 1266" transform="translate(-484 -4862)">
    <text id="Company_" data-name="Company
" transform="translate(484 5004)" fill="#fff" font-size="18" font-family="SegoeUI, Segoe UI"><tspan x="0" y="0">Company</tspan><tspan font-family="Gilroy-SemiBold, Gilroy ☞" font-weight="600"><tspan x="0" y="15"></tspan></tspan></text>
    <text id="Support_" data-name="Support
" transform="translate(727 5004)" fill="#fff" font-size="18" font-family="SegoeUI, Segoe UI"><tspan x="0" y="0">Support</tspan><tspan font-family="Gilroy-SemiBold, Gilroy ☞" font-weight="600"><tspan x="0" y="15"></tspan></tspan></text>
    <text id="Support_2" data-name="Support
" transform="translate(727 5004)" fill="#fff" font-size="18" font-family="SegoeUI, Segoe UI"><tspan x="0" y="0">Support</tspan><tspan font-family="Gilroy-SemiBold, Gilroy ☞" font-weight="600"><tspan x="0" y="15"></tspan></tspan></text>
    <text id="About_Us_How_it_works_Event_Partners_Blog_Careers_" data-name="About Us

How it works

Event Partners


Blog

Careers

" transform="translate(484 4930)" fill="#fff" font-size="15" font-family="SegoeUI, Segoe UI"><tspan x="0" y="0">About Us</tspan><tspan x="0" y="15"></tspan><tspan x="0" y="30">How it works</tspan><tspan x="0" y="45"></tspan><tspan x="0" y="60">Event Partners</tspan><tspan x="0" y="75"></tspan><tspan x="0" y="90"></tspan><tspan x="0" y="105">Blog</tspan><tspan x="0" y="120"></tspan><tspan x="0" y="135">Careers</tspan><tspan x="0" y="150"></tspan><tspan font-family="Gilroy-Medium, Gilroy ☞" font-weight="500"><tspan x="0" y="165"></tspan></tspan></text>
    <text id="Help_Center_Security_" data-name="Help Center

Security
" transform="translate(727 4930)" fill="#fff" font-size="15" font-family="SegoeUI, Segoe UI"><tspan x="0" y="0">Help Center</tspan><tspan x="0" y="15"></tspan><tspan x="0" y="30">Security</tspan><tspan font-family="Gilroy-Medium, Gilroy ☞" font-weight="500"><tspan x="0" y="45"></tspan></tspan></text>
    <text id="Company_2" data-name="Company
" transform="translate(484 4881)" fill="#fff" font-size="18" font-family="SegoeUI, Segoe UI"><tspan x="0" y="0">Company</tspan><tspan font-family="Gilroy-SemiBold, Gilroy ☞" font-weight="600"><tspan x="0" y="15"></tspan></tspan></text>
    <text id="_2023_Inprop_Holdings_Inc._All_rights_reserved." data-name="Ⓒ 2023 Inprop Holdings Inc. All rights reserved." transform="translate(484 5097)" fill="#fff" font-size="10" font-family="SegoeUISymbol, Segoe UI Symbol"><tspan x="0" y="0">Ⓒ</tspan><tspan y="0" xml:space="preserve" font-family="Gilroy-Light, Gilroy" font-weight="300"> 2023 Inprop Holdings Inc. All rights reserved.</tspan></text>
    <text id="_1_617-300-0956_Terms_of_Service_Privacy_Policy" data-name="
+1 617-300-0956     Terms of Service    Privacy Policy" transform="translate(730 5072)" fill="#fff" font-size="10" font-family="Gilroy-Light, Gilroy" font-weight="300"><tspan x="0" y="9"></tspan><tspan x="0" y="24" xml:space="preserve">+1 617-300-0956     Terms of Service    Privacy Policy</tspan></text>
    <text id="Support_3" data-name="Support
" transform="translate(727 4881)" fill="#fff" font-size="18" font-family="SegoeUI, Segoe UI"><tspan x="0" y="0">Support</tspan><tspan font-family="Gilroy-SemiBold, Gilroy ☞" font-weight="600"><tspan x="0" y="15"></tspan></tspan></text>
    <text id="Support_4" data-name="Support
" transform="translate(727 4881)" fill="#fff" font-size="18" font-family="SegoeUI, Segoe UI"><tspan x="0" y="0">Support</tspan><tspan font-family="Gilroy-SemiBold, Gilroy ☞" font-weight="600"><tspan x="0" y="15"></tspan></tspan></text>
    <text id="SOCIAL" transform="translate(950 4881)" fill="#fff" font-size="18" font-family="SegoeUI, Segoe UI"><tspan x="0" y="0">SOCIAL</tspan></text>
    <path id="facebook" d="M167.156,3.9h3.25V0h-3.25a4.555,4.555,0,0,0-4.549,4.549V6.5h-2.6v3.9h2.6V20.8h3.9V10.4h3.25l.65-3.9h-3.9V4.549a.658.658,0,0,1,.65-.65h0Z" transform="translate(787.994 4922.506)" fill="#fff" fill-rule="evenodd"/>
    <path id="instagram" d="M5.747,2.752h8.418a5.726,5.726,0,0,1,5.746,5.672v8.4a5.726,5.726,0,0,1-5.746,5.672H5.747A5.726,5.726,0,0,1,0,16.82v-8.4A5.727,5.727,0,0,1,5.747,2.752ZM9.9,7.292a5.565,5.565,0,1,1-5.565,5.565A5.567,5.567,0,0,1,9.9,7.292Zm0,1.88a3.685,3.685,0,1,1-3.686,3.685A3.686,3.686,0,0,1,9.9,9.172Zm5.384-2.651a.9.9,0,1,1-.9.9.9.9,0,0,1,.9-.9ZM6.435,4.364h7.043a4.809,4.809,0,0,1,4.808,4.782v7.078a4.809,4.809,0,0,1-4.808,4.782H6.435a4.809,4.809,0,0,1-4.808-4.782V9.147A4.809,4.809,0,0,1,6.435,4.364Z" transform="translate(997.87 4920.813)" fill="#fff" fill-rule="evenodd"/>
    <path id="twitter" d="M21.667,62.13a8.749,8.749,0,0,1-2.552.7,4.474,4.474,0,0,0,1.956-2.459,8.955,8.955,0,0,1-2.824,1.079,4.45,4.45,0,0,0-7.691,3.043,4.508,4.508,0,0,0,.114,1.012,12.626,12.626,0,0,1-9.164-4.648A4.451,4.451,0,0,0,2.881,66.79a4.471,4.471,0,0,1-2.015-.554v.056a4.446,4.446,0,0,0,3.567,4.36,4.473,4.473,0,0,1-1.172.157,4.664,4.664,0,0,1-.839-.08,4.46,4.46,0,0,0,4.153,3.089,8.918,8.918,0,0,1-5.524,1.9,8.873,8.873,0,0,1-1.061-.064,12.576,12.576,0,0,0,6.818,2A12.568,12.568,0,0,0,19.46,65.005c0-.2,0-.384-.012-.576a8.915,8.915,0,0,0,2.217-2.3l0,0Z" transform="translate(1057.263 4865.647)" fill="#fff" fill-rule="evenodd"/>
  </g>
</svg>
