<svg xmlns="http://www.w3.org/2000/svg" width="18" height="18" viewBox="0 0 18 18">
  <g id="Group_1249" data-name="Group 1249" transform="translate(-1205.869 -1149.559)">
    <path id="Path_2898" data-name="Path 2898" d="M128.843,66.8h9.115a1.584,1.584,0,0,0,1.106-.447,1.507,1.507,0,0,0,.458-1.079V57.731h2.658a.223.223,0,0,0,.2-.135.214.214,0,0,0-.047-.235l-8.69-8.5a.228.228,0,0,0-.313,0l-8.869,8.631a.214.214,0,0,0-.047.236.223.223,0,0,0,.2.135h2.658v7.41a1.507,1.507,0,0,0,.458,1.079,1.584,1.584,0,0,0,1.106.447Zm-3.664-9.372,8.311-8.108,8.154,7.955H139.3a.221.221,0,0,0-.223.218v7.781a1.076,1.076,0,0,1-.327.771,1.131,1.131,0,0,1-.79.319h-9.115a1.131,1.131,0,0,1-.79-.319,1.076,1.076,0,0,1-.327-.771v-7.65a.215.215,0,0,0-.065-.154.227.227,0,0,0-.158-.064h-2.323Z" transform="translate(1081.469 1100.761)" fill="#ec6337"/>
    <path id="Path_2899" data-name="Path 2899" d="M268.991,276.775h5.072a.189.189,0,0,0,.189-.189V271.23a.189.189,0,0,0-.189-.189h-5.072a.189.189,0,0,0-.189.189v5.356a.189.189,0,0,0,.189.189Zm.189-2.669h2.158v2.29h-2.158Zm2.536,2.29v-2.29h2.158v2.29Zm2.158-2.669h-2.158v-2.309h2.158Zm-2.536-2.309v2.309h-2.158v-2.309Z" transform="translate(943.318 887.828)" fill="#ec6337"/>
    <path id="Path_2900" data-name="Path 2900" d="M310.482,149.444a1.363,1.363,0,1,0-.964-.4A1.362,1.362,0,0,0,310.482,149.444Zm0-2.328a.409.409,0,1,1,0-.019Z" transform="translate(904.365 1006.757)" fill="#ec6337"/>
  </g>
</svg>
