<svg xmlns="http://www.w3.org/2000/svg" width="39.392" height="13.389" viewBox="0 0 39.392 13.389">
  <g id="Group_1251" data-name="Group 1251" transform="translate(-1004.264 -1038.392)" opacity="0.8">
    <path id="Path_2983" data-name="Path 2983" d="M143.06,190.292v-.327a1.066,1.066,0,0,0-1.065-1.065h-1.419a1.062,1.062,0,0,0-.929.554.7.7,0,0,1,.136-1.346V185.87a1.066,1.066,0,0,0-1.065-1.065h-6.061a1.062,1.062,0,0,0-.929.554,1.061,1.061,0,0,0-.928-.554H124.74a1.066,1.066,0,0,0-1.065,1.065v2.238a.7.7,0,0,1,.137,1.346,1.062,1.062,0,0,0-.929-.554h-1.419a1.066,1.066,0,0,0-1.066,1.065v.327a1.065,1.065,0,0,0,.468.882.674.674,0,0,0-.468.593c0,.383.406.683.924.683h2.9v1.638h.819v-1.638h13.379v1.638h.819v-1.638h2.9c.518,0,.923-.3.923-.683a.672.672,0,0,0-.468-.593A1.066,1.066,0,0,0,143.06,190.292Zm-2.484-1.119h1.419a.793.793,0,0,1,.792.792v.327a.793.793,0,0,1-.792.792h-1.419a.793.793,0,0,1-.792-.792v-.327A.793.793,0,0,1,140.576,189.173Zm-.705,1.911h-.447a1.065,1.065,0,0,0,.223-.281A1.077,1.077,0,0,0,139.87,191.084Zm-.36-1.119v.327a.793.793,0,0,1-.792.792h-6.061a.793.793,0,0,1-.792-.792v-.327a.793.793,0,0,1,.792-.792h6.06a.793.793,0,0,1,.792.792Zm-7.558,1.119h-.447a1.062,1.062,0,0,0,.223-.281A1.085,1.085,0,0,0,131.952,191.084Zm-.223-1.63a.417.417,0,0,1,0-.835.417.417,0,1,1,0,.835Zm.928-4.377h6.06a.793.793,0,0,1,.792.792v2.238a.793.793,0,0,1-.792.792h-6.06a.793.793,0,0,1-.792-.792V185.87A.793.793,0,0,1,132.658,185.077Zm-8.71,3.031V185.87a.793.793,0,0,1,.792-.792h6.06a.793.793,0,0,1,.792.792v2.238a.793.793,0,0,1-.792.792h-6.06A.793.793,0,0,1,123.948,188.108Zm.792,1.065h6.06a.793.793,0,0,1,.792.792v.327a.793.793,0,0,1-.792.792h-6.06a.793.793,0,0,1-.792-.792v-.327A.793.793,0,0,1,124.74,189.173Zm-.705,1.911h-.447a1.061,1.061,0,0,0,.223-.281A1.081,1.081,0,0,0,124.035,191.084Zm-3.363-.792v-.327a.793.793,0,0,1,.792-.792h1.419a.793.793,0,0,1,.792.792v.327a.793.793,0,0,1-.792.792h-1.419A.793.793,0,0,1,120.671,190.292Zm4.1,3.522h-.273v-1.365h.273Zm14.2,0h-.273v-1.365h.273Zm3.172-2.457c.353,0,.651.188.651.41s-.3.409-.651.409H121.322c-.353,0-.651-.188-.651-.409s.3-.409.651-.409h20.814Z" transform="translate(900.596 857.409)" fill="#ec6337"/>
    <path id="Path_2985" data-name="Path 2985" d="M143.06,190.292v-.327a1.066,1.066,0,0,0-1.065-1.065h-1.419a1.062,1.062,0,0,0-.929.554.7.7,0,0,1,.136-1.346V185.87a1.066,1.066,0,0,0-1.065-1.065h-6.061a1.062,1.062,0,0,0-.929.554,1.061,1.061,0,0,0-.928-.554H124.74a1.066,1.066,0,0,0-1.065,1.065v2.238a.7.7,0,0,1,.137,1.346,1.062,1.062,0,0,0-.929-.554h-1.419a1.066,1.066,0,0,0-1.066,1.065v.327a1.065,1.065,0,0,0,.468.882.674.674,0,0,0-.468.593c0,.383.406.683.924.683h2.9v1.638h.819v-1.638h13.379v1.638h.819v-1.638h2.9c.518,0,.923-.3.923-.683a.672.672,0,0,0-.468-.593A1.066,1.066,0,0,0,143.06,190.292Zm-2.484-1.119h1.419a.793.793,0,0,1,.792.792v.327a.793.793,0,0,1-.792.792h-1.419a.793.793,0,0,1-.792-.792v-.327A.793.793,0,0,1,140.576,189.173Zm-.705,1.911h-.447a1.065,1.065,0,0,0,.223-.281A1.077,1.077,0,0,0,139.87,191.084Zm-.36-1.119v.327a.793.793,0,0,1-.792.792h-6.061a.793.793,0,0,1-.792-.792v-.327a.793.793,0,0,1,.792-.792h6.06a.793.793,0,0,1,.792.792Zm-7.558,1.119h-.447a1.062,1.062,0,0,0,.223-.281A1.085,1.085,0,0,0,131.952,191.084Zm-.223-1.63a.417.417,0,0,1,0-.835.417.417,0,1,1,0,.835Zm.928-4.377h6.06a.793.793,0,0,1,.792.792v2.238a.793.793,0,0,1-.792.792h-6.06a.793.793,0,0,1-.792-.792V185.87A.793.793,0,0,1,132.658,185.077Zm-8.71,3.031V185.87a.793.793,0,0,1,.792-.792h6.06a.793.793,0,0,1,.792.792v2.238a.793.793,0,0,1-.792.792h-6.06A.793.793,0,0,1,123.948,188.108Zm.792,1.065h6.06a.793.793,0,0,1,.792.792v.327a.793.793,0,0,1-.792.792h-6.06a.793.793,0,0,1-.792-.792v-.327A.793.793,0,0,1,124.74,189.173Zm-.705,1.911h-.447a1.061,1.061,0,0,0,.223-.281A1.081,1.081,0,0,0,124.035,191.084Zm-3.363-.792v-.327a.793.793,0,0,1,.792-.792h1.419a.793.793,0,0,1,.792.792v.327a.793.793,0,0,1-.792.792h-1.419A.793.793,0,0,1,120.671,190.292Zm4.1,3.522h-.273v-1.365h.273Zm14.2,0h-.273v-1.365h.273Zm3.172-2.457c.353,0,.651.188.651.41s-.3.409-.651.409H121.322c-.353,0-.651-.188-.651-.409s.3-.409.651-.409h20.814Z" transform="translate(900.596 857.693)" fill="#ec6337"/>
    <g id="Group_1248" data-name="Group 1248" transform="translate(1004.264 1038.392)">
      <path id="Path_2937" data-name="Path 2937" d="M177.2,351.65h4.442a.161.161,0,1,0,0-.322H177.2a2.083,2.083,0,0,1-2.08-2.081v-.168h-.322v.161a2.4,2.4,0,0,0,2.4,2.41Z" transform="translate(-172.767 -340.753)" fill="#ec6337"/>
      <path id="Path_2938" data-name="Path 2938" d="M111.131,313.2H98.159a.161.161,0,0,0,0,.322h.718v.786a3.514,3.514,0,0,0,1.08,2.544L98.9,318.685a.154.154,0,0,0-.013.121.219.219,0,0,0,.074.1.178.178,0,0,0,.081.02.164.164,0,0,0,.141-.081l1.02-1.772a3.532,3.532,0,0,0,2.221.786h4.442a3.559,3.559,0,0,0,2.221-.786l1.02,1.772a.163.163,0,0,0,.141.081.178.178,0,0,0,.081-.02.129.129,0,0,0,.074-.1.151.151,0,0,0-.013-.121l-1.054-1.833a3.514,3.514,0,0,0,1.08-2.544v-.786h.718a.161.161,0,1,0-.007-.322Zm-10.9,3.478a3.233,3.233,0,0,1-1.033-2.363v-.786h10.9v.786a3.234,3.234,0,0,1-3.228,3.23h-4.442a3.226,3.226,0,0,1-2.127-.806.206.206,0,0,0-.054-.054c-.007-.007-.007-.007-.013-.007Z" transform="translate(-97.998 -305.822)" fill="#ec6337"/>
      <path id="Path_2939" data-name="Path 2939" d="M416.439,35.62a1.691,1.691,0,1,1,3.382,0v4.948h.322V35.62a2.013,2.013,0,1,0-4.026,0v.013h.322Z" transform="translate(-407.722 -33.606)" fill="#ec6337"/>
      <path id="Path_2940" data-name="Path 2940" d="M368.219,127.8h2.543a.161.161,0,1,0,0-.322h-2.543a.163.163,0,0,0-.161.161A.159.159,0,0,0,368.219,127.8Z" transform="translate(-360.932 -125.002)" fill="#ec6337"/>
      <path id="Path_2941" data-name="Path 2941" d="M416.12,160.716v.591a.161.161,0,1,0,.322,0v-.591a.161.161,0,1,0-.322,0Z" transform="translate(-407.725 -157.204)" fill="#ec6337"/>
      <path id="Path_2942" data-name="Path 2942" d="M453.5,198.116v.591a.161.161,0,1,0,.322,0v-.591a.161.161,0,1,0-.322,0Z" transform="translate(-444.118 -193.617)" fill="#ec6337"/>
      <path id="Path_2943" data-name="Path 2943" d="M378.73,198.116v.591a.161.161,0,1,0,.322,0v-.591a.161.161,0,1,0-.322,0Z" transform="translate(-371.322 -193.617)" fill="#ec6337"/>
    </g>
    <g id="Group_1250" data-name="Group 1250" transform="translate(1004.478 1038.392)">
      <path id="Path_2937-2" data-name="Path 2937" d="M177.2,351.65h4.442a.161.161,0,1,0,0-.322H177.2a2.083,2.083,0,0,1-2.08-2.081v-.168h-.322v.161a2.4,2.4,0,0,0,2.4,2.41Z" transform="translate(-172.767 -340.753)" fill="#ec6337"/>
      <path id="Path_2938-2" data-name="Path 2938" d="M111.131,313.2H98.159a.161.161,0,0,0,0,.322h.718v.786a3.514,3.514,0,0,0,1.08,2.544L98.9,318.685a.154.154,0,0,0-.013.121.219.219,0,0,0,.074.1.178.178,0,0,0,.081.02.164.164,0,0,0,.141-.081l1.02-1.772a3.532,3.532,0,0,0,2.221.786h4.442a3.559,3.559,0,0,0,2.221-.786l1.02,1.772a.163.163,0,0,0,.141.081.178.178,0,0,0,.081-.02.129.129,0,0,0,.074-.1.151.151,0,0,0-.013-.121l-1.054-1.833a3.514,3.514,0,0,0,1.08-2.544v-.786h.718a.161.161,0,1,0-.007-.322Zm-10.9,3.478a3.233,3.233,0,0,1-1.033-2.363v-.786h10.9v.786a3.234,3.234,0,0,1-3.228,3.23h-4.442a3.226,3.226,0,0,1-2.127-.806.206.206,0,0,0-.054-.054c-.007-.007-.007-.007-.013-.007Z" transform="translate(-97.998 -305.822)" fill="#ec6337"/>
      <path id="Path_2939-2" data-name="Path 2939" d="M416.439,35.62a1.691,1.691,0,1,1,3.382,0v4.948h.322V35.62a2.013,2.013,0,1,0-4.026,0v.013h.322Z" transform="translate(-407.722 -33.606)" fill="#ec6337"/>
      <path id="Path_2940-2" data-name="Path 2940" d="M368.219,127.8h2.543a.161.161,0,1,0,0-.322h-2.543a.163.163,0,0,0-.161.161A.159.159,0,0,0,368.219,127.8Z" transform="translate(-360.932 -125.002)" fill="#ec6337"/>
      <path id="Path_2941-2" data-name="Path 2941" d="M416.12,160.716v.591a.161.161,0,1,0,.322,0v-.591a.161.161,0,1,0-.322,0Z" transform="translate(-407.725 -157.204)" fill="#ec6337"/>
      <path id="Path_2942-2" data-name="Path 2942" d="M453.5,198.116v.591a.161.161,0,1,0,.322,0v-.591a.161.161,0,1,0-.322,0Z" transform="translate(-444.118 -193.617)" fill="#ec6337"/>
      <path id="Path_2943-2" data-name="Path 2943" d="M378.73,198.116v.591a.161.161,0,1,0,.322,0v-.591a.161.161,0,1,0-.322,0Z" transform="translate(-371.322 -193.617)" fill="#ec6337"/>
    </g>
  </g>
</svg>
