<svg xmlns="http://www.w3.org/2000/svg" width="14.75" height="15.845" viewBox="0 0 14.75 15.845">
  <g id="Home" transform="translate(0.375 0.47)">
    <path id="Home-2" data-name="Home" d="M4.889,14.08V11.787a1.055,1.055,0,0,1,1.049-1.06H8.056a1.044,1.044,0,0,1,.742.31,1.066,1.066,0,0,1,.307.75V14.08a.918.918,0,0,0,.262.65.9.9,0,0,0,.641.27h1.445a2.527,2.527,0,0,0,1.8-.749A2.58,2.58,0,0,0,14,12.433V5.9a1.868,1.868,0,0,0-.66-1.427L8.425.507A2.252,2.252,0,0,0,5.516.56L.713,4.474A1.867,1.867,0,0,0,0,5.9v6.527A2.56,2.56,0,0,0,2.547,15H3.959a.915.915,0,0,0,.91-.913Z" transform="translate(0 0)" fill="none" stroke="#fc780b" stroke-width="0.75"/>
  </g>
</svg>
