<svg xmlns="http://www.w3.org/2000/svg" xmlns:xlink="http://www.w3.org/1999/xlink" width="163" height="141" viewBox="0 0 163 141">
  <defs>
    <filter id="Rectangle_1145" x="0" y="0" width="163" height="141" filterUnits="userSpaceOnUse">
      <feOffset dy="3" input="SourceAlpha"/>
      <feGaussianBlur stdDeviation="3" result="blur"/>
      <feFlood flood-opacity="0.161"/>
      <feComposite operator="in" in2="blur"/>
      <feComposite in="SourceGraphic"/>
    </filter>
  </defs>
  <g id="hottub" transform="translate(9 6)">
    <g transform="matrix(1, 0, 0, 1, -9, -6)" filter="url(#Rectangle_1145)">
      <rect id="Rectangle_1145-2" data-name="Rectangle 1145" width="145" height="123" rx="27" transform="translate(9 6)" fill="#fff"/>
    </g>
    <text id="Hot_tub" data-name="Hot tub" transform="translate(55 92)" font-size="14" font-family="SegoeUI, Segoe UI"><tspan x="0" y="0">Hot tub</tspan></text>
    <path id="Path_2706" data-name="Path 2706" d="M33.689,149.81h-4.7a2.585,2.585,0,0,0-2.4-2.064c0-.014,0-.027,0-.04a2.58,2.58,0,0,0-3.107-2.354,2.579,2.579,0,0,0-3.711-1.41,2.579,2.579,0,0,0-4.648,0,2.579,2.579,0,0,0-3.711,1.41,2.58,2.58,0,0,0-3.108,2.354c0,.013,0,.027,0,.04a2.584,2.584,0,0,0-2.4,2.065H4.661a.511.511,0,1,0,0,1.023H33.689a.188.188,0,0,1,.188.188v1.693a.188.188,0,0,1-.188.188H1.211a.188.188,0,0,1-.188-.188V151.02a.188.188,0,0,1,.188-.188H2.254a.511.511,0,1,0,0-1.023H1.211A1.212,1.212,0,0,0,0,151.02v1.693a1.212,1.212,0,0,0,1.211,1.21h.227a19.786,19.786,0,0,0,.632,4.422,8.418,8.418,0,0,0,7.625,6.23v.911a2.188,2.188,0,0,0,4.376,0v-.893h6.758v.893a2.188,2.188,0,0,0,4.376,0v-.909a8.432,8.432,0,0,0,3.814-1.177.511.511,0,1,0-.525-.878,7.412,7.412,0,0,1-3.8,1.048H10.207a7.4,7.4,0,0,1-7.149-5.487,18.97,18.97,0,0,1-.6-4.16H32.438a18.971,18.971,0,0,1-.6,4.16,7.389,7.389,0,0,1-1.611,3,.511.511,0,1,0,.764.679,8.418,8.418,0,0,0,1.835-3.418,19.788,19.788,0,0,0,.632-4.422h.227a1.212,1.212,0,0,0,1.211-1.211V151.02a1.212,1.212,0,0,0-1.211-1.211Zm-26.724,0a1.56,1.56,0,0,1,1.473-1.045h0a.884.884,0,0,0,.63-.26.87.87,0,0,0,.255-.622c0-.036,0-.074,0-.111a1.575,1.575,0,0,1,1.459-1.45,1.559,1.559,0,0,1,.5.051.875.875,0,0,0,1.069-.606,1.556,1.556,0,0,1,2.349-.883.88.88,0,0,0,1.3-.407,1.556,1.556,0,0,1,2.885,0,.88.88,0,0,0,1.3.407,1.556,1.556,0,0,1,2.349.883.875.875,0,0,0,1.069.606,1.557,1.557,0,0,1,1.96,1.4c0,.037,0,.074,0,.111a.869.869,0,0,0,.255.622.889.889,0,0,0,.635.26,1.559,1.559,0,0,1,1.47,1.045Zm17.217,14.783v.893a1.165,1.165,0,0,1-2.33,0v-.893Zm-11.134,0v.893a1.165,1.165,0,0,1-2.33,0v-.893Zm0,0" transform="translate(61.422 -106.173)" fill="#ec6337"/>
    <path id="Path_2707" data-name="Path 2707" d="M282.913,74.442a2.2,2.2,0,1,0-2.2-2.2A2.2,2.2,0,0,0,282.913,74.442Zm0-3.38a1.179,1.179,0,1,1-1.179,1.179A1.18,1.18,0,0,1,282.913,71.062Zm0,0" transform="translate(-200.15 -38.67)" fill="#ec6337"/>
    <path id="Path_2708" data-name="Path 2708" d="M332.093,4.4a2.2,2.2,0,1,0-2.2-2.2A2.2,2.2,0,0,0,332.093,4.4Zm0-3.381A1.179,1.179,0,1,1,330.914,2.2,1.18,1.18,0,0,1,332.093,1.023Zm0,0" transform="translate(-245.978 26.594)" fill="#ec6337"/>
    <path id="Path_2709" data-name="Path 2709" d="M55.381,132.645a2.2,2.2,0,1,0-2.2-2.2A2.2,2.2,0,0,0,55.381,132.645Zm0-3.381a1.179,1.179,0,1,1-1.179,1.179A1.18,1.18,0,0,1,55.381,129.265Zm0,0" transform="translate(11.868 -92.905)" fill="#ec6337"/>
  </g>
</svg>
