<svg xmlns="http://www.w3.org/2000/svg" width="15.249" height="15.63" viewBox="0 0 15.249 15.63">
  <g id="Group_10581" data-name="Group 10581" transform="translate(-1205.869 -1149.559)">
    <path id="Path_2898" data-name="Path 2898" d="M128.164,64.428h7.722a1.325,1.325,0,0,0,1.325-1.325V56.555h2.252a.189.189,0,0,0,.133-.322l-7.362-7.381a.189.189,0,0,0-.265,0l-7.514,7.495a.189.189,0,0,0,.133.322h2.252V63.1a1.325,1.325,0,0,0,1.325,1.325Zm-3.1-8.138,7.04-7.04,6.908,6.908h-1.987a.189.189,0,0,0-.189.189V63.1a.946.946,0,0,1-.946.946h-7.722a.946.946,0,0,1-.946-.946V56.46a.189.189,0,0,0-.189-.189H125.06Z" transform="translate(1081.469 1100.761)" fill="#ec6337"/>
    <path id="Path_2899" data-name="Path 2899" d="M268.991,276.775h5.072a.189.189,0,0,0,.189-.189V271.23a.189.189,0,0,0-.189-.189h-5.072a.189.189,0,0,0-.189.189v5.356a.189.189,0,0,0,.189.189Zm.189-2.669h2.158v2.29h-2.158Zm2.536,2.29v-2.29h2.158v2.29Zm2.158-2.669h-2.158v-2.309h2.158Zm-2.536-2.309v2.309h-2.158v-2.309Z" transform="translate(941.947 886.029)" fill="#ec6337"/>
    <path id="Path_2900" data-name="Path 2900" d="M310.482,149.444a1.363,1.363,0,1,0-.964-.4A1.362,1.362,0,0,0,310.482,149.444Zm0-2.328a.409.409,0,1,1,0-.019Z" transform="translate(902.993 1006.149)" fill="#ec6337"/>
  </g>
</svg>
