<svg xmlns="http://www.w3.org/2000/svg" xmlns:xlink="http://www.w3.org/1999/xlink" width="163" height="141" viewBox="0 0 163 141">
  <defs>
    <filter id="Rectangle_1152" x="0" y="0" width="163" height="141" filterUnits="userSpaceOnUse">
      <feOffset dy="3" input="SourceAlpha"/>
      <feGaussianBlur stdDeviation="3" result="blur"/>
      <feFlood flood-opacity="0.161"/>
      <feComposite operator="in" in2="blur"/>
      <feComposite in="SourceGraphic"/>
    </filter>
  </defs>
  <g id="indoorfirplace" transform="translate(9 6)">
    <g transform="matrix(1, 0, 0, 1, -9, -6)" filter="url(#Rectangle_1152)">
      <rect id="Rectangle_1152-2" data-name="Rectangle 1152" width="145" height="123" rx="27" transform="translate(9 6)" fill="#fff"/>
    </g>
    <text id="Indoor_fireplace" data-name="Indoor fireplace" transform="translate(25 83)" font-size="14" font-family="SegoeUI, Segoe UI"><tspan x="0" y="0">Indoor fireplace</tspan></text>
    <path id="Path_2723" data-name="Path 2723" d="M60.881,125.781H59.616V101.608a.659.659,0,1,0-1.318,0v24.172H55.513V114.528a14.261,14.261,0,0,0-3.269-9.1l-.027-.033a14.31,14.31,0,0,0-22.062,0l-.027.033a14.262,14.262,0,0,0-3.269,9.1V125.78H24.072V101.608a.659.659,0,1,0-1.318,0v24.172H21.491a.991.991,0,0,0-.99.99V129.2a.991.991,0,0,0,.99.99h39.39a.991.991,0,0,0,.99-.99v-2.432a.991.991,0,0,0-.99-.99ZM54.2,114.528v1.179H52.7v-1.179a11.537,11.537,0,0,0-.194-2.111l1.407-.579A13.015,13.015,0,0,1,54.2,114.528ZM52.7,121.314v-4.289H54.2v4.351Zm1.493,1.381v3.086H52.7v-3.148Zm-2.534-15.873a12.984,12.984,0,0,1,1.913,3.732l-1.386.571a11.484,11.484,0,0,0-1.6-3.233Zm-4.288,16.862-1.661-.349a6.292,6.292,0,0,0,.629-.58,7.363,7.363,0,0,0,1.954-5.012,7.735,7.735,0,0,0-2-4.72.862.862,0,0,0-1.5.582c.008,1.145-.338,1.6-.572,1.626a.373.373,0,0,1-.354-.333,2.293,2.293,0,0,1,.244-1.33,4.321,4.321,0,0,0-.276-4.186,6.133,6.133,0,0,0-2.77-2.412.862.862,0,0,0-1.195,1.008,3.149,3.149,0,0,1-.129,2.237,7.217,7.217,0,0,1-1.594,1.688.659.659,0,0,0,.856,1,8.231,8.231,0,0,0,1.882-2.035,3.85,3.85,0,0,0,.433-2.254,4.2,4.2,0,0,1,1.365,1.407,3.013,3.013,0,0,1,.2,3.076,3.457,3.457,0,0,0-.3,2.082,1.677,1.677,0,0,0,1.787,1.36,2,2,0,0,0,1.622-1.748,6.208,6.208,0,0,1,.985,3.019,6.12,6.12,0,0,1-1.593,4.037,4.918,4.918,0,0,1-.7.608,5.53,5.53,0,0,0,.226-1.686.745.745,0,0,0-1.194-.574l-.011.008a3.6,3.6,0,0,1-2.63.83c-.5-.06-1.106-.881-1.317-2.579a.745.745,0,0,0-1.333-.359,5.752,5.752,0,0,0-1.3,4.086,4.272,4.272,0,0,1-1.733-3.745c0-.009,0-.019,0-.027s0-.017,0-.025l0-.063a6,6,0,0,1,1.471-3.419.659.659,0,1,0-1.007-.85,7.358,7.358,0,0,0-1.775,4.14c0,.019,0,.037,0,.055a.9.9,0,0,0-.01.126,5.65,5.65,0,0,0,2.423,4.994l-1.51.317a2.021,2.021,0,0,0-1.629,2.1H30.986V114.528a10.2,10.2,0,0,1,.279-2.375c.006-.021.011-.041.015-.061a10.171,10.171,0,0,1,1.874-3.844l.022-.028a10.258,10.258,0,0,1,3.994-3.068l.013-.005.024-.011a10.2,10.2,0,0,1,7.993.016l.039.018.014.005a10.258,10.258,0,0,1,3.94,3.044l.022.028a10.171,10.171,0,0,1,1.886,3.9c0,.017.008.034.012.051a10.2,10.2,0,0,1,.269,2.334V125.78H49a1.945,1.945,0,0,0-1.629-2.1Zm-6.176-.217a9.061,9.061,0,0,1-2.246-.273h0a2.586,2.586,0,0,1-.424-2.414,4.685,4.685,0,0,1,.249-.7c.053.163.113.328.182.492a2.508,2.508,0,0,0,1.966,1.768,4.553,4.553,0,0,0,2.548-.441,3.945,3.945,0,0,1-.64,1.385A7.125,7.125,0,0,1,41.2,123.467Zm1.234,2.314H39.939l.394-1.038c.015-.039,1.72.041,1.706,0Zm-4.189-1.433a5.9,5.9,0,0,0,.75.216l-.462,1.217H34.686a.758.758,0,0,1,.583-.808Zm5.736-.032,3.124.657a.742.742,0,0,1,.583.807H43.841l-.481-1.266q.318-.085.618-.2ZM46.9,102.842a13.088,13.088,0,0,1,3.921,2.955l-1.057,1.057a11.592,11.592,0,0,0-3.43-2.626Zm-5.716-1.324a12.953,12.953,0,0,1,4.5.8l-.564,1.383a11.526,11.526,0,0,0-7.835-.016l-.573-1.381a12.951,12.951,0,0,1,4.468-.791Zm-5.68,1.307.574,1.382a11.581,11.581,0,0,0-3.474,2.648L31.548,105.8a13.087,13.087,0,0,1,3.957-2.973Zm-4.8,4,1.069,1.069a11.482,11.482,0,0,0-1.581,3.183l-1.383-.577a12.98,12.98,0,0,1,1.895-3.675Zm-2.534,7.707a13.028,13.028,0,0,1,.292-2.749l1.4.585a11.554,11.554,0,0,0-.2,2.163v1.18H28.176Zm0,2.5h1.493v4.23l-1.493.055Zm0,5.6,1.493-.055v3.207H28.176Zm32.378,6.248H21.818V127.1H60.553Zm0,0" transform="translate(36.65 -74.98)" fill="#ec6337"/>
    <path id="Path_2724" data-name="Path 2724" d="M43.8,0H1.175A1.177,1.177,0,0,0,0,1.176V3.735A1.177,1.177,0,0,0,1.175,4.911h.87v.332A2.563,2.563,0,0,0,4.605,7.8h35.76a2.563,2.563,0,0,0,2.56-2.56V4.911h.87a1.177,1.177,0,0,0,1.176-1.176V1.176A1.177,1.177,0,0,0,43.8,0ZM41.608,5.243a1.244,1.244,0,0,1-1.243,1.243H4.605A1.244,1.244,0,0,1,3.362,5.243V4.911H41.608Zm2.046-1.65H1.317V1.318H43.653Zm0,0" transform="translate(55.352 16.418)" fill="#ec6337"/>
  </g>
</svg>
