<svg xmlns="http://www.w3.org/2000/svg" width="18.479" height="16" viewBox="0 0 18.479 16">
  <path id="residential-apartments-icon" d="M5.349,15.529H3.919V13.312a.15.15,0,0,0-.15-.15h-1.8a.159.159,0,0,0-.159.15v2.217H1.555v.465h15.37v-.465h-.254V13.312a.159.159,0,0,0-.159-.15H14.719a.15.15,0,0,0-.158.15v2.217H11.195V12.395a.212.212,0,0,0-.217-.214h-3.5a.212.212,0,0,0-.212.212v3.134H4.886V4.943H.451V15.529H1.562v.465H.212A.212.212,0,0,1,0,15.782V4.812a.3.3,0,0,1,.092-.22h0A.3.3,0,0,1,.31,4.5H4.886V.338A.371.371,0,0,1,4.994.109h0A.368.368,0,0,1,5.264,0h7.945a.364.364,0,0,1,.262.108l.017.018a.368.368,0,0,1,.095.245V4.5h4.587a.3.3,0,0,1,.218.09h0a.3.3,0,0,1,.092.22V15.788a.212.212,0,0,1-.212.212H16.923v-.465h1.111V4.943H13.58V15.529h-.465V.463H5.349ZM2.471,5.865H1.325c-.009,0-.018.012-.018.027v.743c0,.015.009.029.018.029H2.471c.009,0,.018-.012.018-.029v-.75c0-.015-.009-.027-.018-.027Zm0,5.154H1.325c-.009,0-.018.014-.018.027v.743c0,.014.009.029.018.029H2.471c.009,0,.018-.014.018-.029v-.75c0-.014-.009-.027-.018-.027Zm1.934,0H3.259c-.011,0-.018.014-.018.027v.743c0,.014.008.029.018.029H4.4c.009,0,.017-.014.017-.029v-.75c0-.014,0-.027-.017-.027ZM2.471,9.292H1.325c-.009,0-.018.014-.018.029v.743c0,.015.009.029.018.029H2.471c.009,0,.018-.012.018-.029v-.74c0-.017-.009-.029-.018-.029Zm0-1.717H1.325c-.009,0-.018.012-.018.029v.743c0,.014.009.029.018.029H2.471c.009,0,.018-.014.018-.029V7.6C2.489,7.587,2.48,7.575,2.471,7.575ZM4.4,5.865H3.259c-.011,0-.018.012-.018.027v.743c0,.015.008.029.018.029H4.4c.009,0,.017-.012.017-.029v-.75c0-.015,0-.027-.017-.027ZM4.4,9.3H3.259c-.011,0-.018.014-.018.029v.743c0,.015.008.029.018.029H4.4c.009,0,.017-.012.017-.029V9.324c0-.017,0-.029-.017-.029Zm0-1.717H3.259c-.011,0-.018.012-.018.029v.735c0,.014.008.029.018.029H4.4c.009,0,.017-.014.017-.029V7.6c0-.017,0-.029-.017-.029Zm11.6-1.717h1.146c.009,0,.018.012.018.027v.743c0,.015-.009.029-.018.029H16.009c-.009,0-.018-.012-.018-.029v-.75c0-.015.009-.027.018-.027Zm0,5.154h1.146c.009,0,.018.014.018.027v.743c0,.014-.009.029-.018.029H16.009c-.009,0-.018-.014-.018-.029v-.75c0-.014.009-.027.018-.027Zm-1.934,0h1.146c.011,0,.018.014.018.027v.743c0,.014,0,.029-.018.029H14.075c-.009,0-.017-.014-.017-.029v-.75c0-.014,0-.027.017-.027ZM16.009,9.3h1.146c.009,0,.018.014.018.029v.743c0,.015-.009.029-.018.029H16.009c-.009,0-.018-.012-.018-.029V9.324c0-.017.009-.029.018-.029Zm0-1.717h1.146c.009,0,.018.012.018.029v.735c0,.014-.009.029-.018.029H16.009c-.009,0-.018-.014-.018-.029V7.6c0-.017.009-.029.018-.029ZM14.075,5.865h1.146c.011,0,.018.012.018.027v.743c0,.015,0,.029-.018.029H14.075c-.009,0-.017-.012-.017-.029v-.75c0-.015,0-.027.017-.027Zm0,3.435h1.146c.011,0,.018.014.018.029v.743c0,.015,0,.029-.018.029H14.075c-.009,0-.017-.012-.017-.029V9.324c0-.017,0-.029.017-.029Zm0-1.717h1.146c.011,0,.018.012.018.029v.735c0,.014,0,.029-.018.029H14.075c-.009,0-.017-.014-.017-.029V7.6c0-.017,0-.029.017-.029ZM6.467,1.63H7.713a.036.036,0,0,1,.036.035V2.913a.036.036,0,0,1-.036.035H6.467a.035.035,0,0,1-.035-.035V1.664A.035.035,0,0,1,6.467,1.63Zm4.288,0H12a.036.036,0,0,1,.036.035V2.913A.036.036,0,0,1,12,2.947H10.753a.036.036,0,0,1-.036-.035V1.664a.036.036,0,0,1,.036-.035Zm-2.145,0H9.858a.035.035,0,0,1,.035.035V2.913a.035.035,0,0,1-.035.035H8.61a.036.036,0,0,1-.035-.035V1.664A.036.036,0,0,1,8.61,1.63Zm-2.143,2.7H7.713a.036.036,0,0,1,.036.036V5.614a.036.036,0,0,1-.036.036H6.467a.035.035,0,0,1-.035-.036V4.361a.035.035,0,0,1,.035-.03Zm4.288,0H12a.036.036,0,0,1,.03.03V5.608A.036.036,0,0,1,12,5.644H10.753a.036.036,0,0,1-.036-.036V4.361a.036.036,0,0,1,.036-.036Zm-2.145,0H9.858a.035.035,0,0,1,.035.036V5.614a.035.035,0,0,1-.035.036H8.61a.036.036,0,0,1-.035-.036V4.361a.036.036,0,0,1,.035-.036Zm-2.143,5.4H7.713a.036.036,0,0,1,.036.036v1.247a.036.036,0,0,1-.036.036H6.467a.035.035,0,0,1-.035-.036V9.775a.035.035,0,0,1,.035-.036Zm4.288,0H12a.036.036,0,0,1,.03.041v1.247a.036.036,0,0,1-.036.036H10.753a.036.036,0,0,1-.036-.036V9.775a.036.036,0,0,1,.036-.036Zm-2.145,0H9.858a.035.035,0,0,1,.035.036v1.247a.035.035,0,0,1-.035.036H8.61a.036.036,0,0,1-.035-.036V9.775a.036.036,0,0,1,.035-.036Zm-2.143-2.7H7.713a.036.036,0,0,1,.036.035V8.316a.035.035,0,0,1-.036.035H6.467a.035.035,0,0,1-.035-.035V7.068A.035.035,0,0,1,6.467,7.033Zm4.288,0H12a.036.036,0,0,1,.03.035V8.316A.035.035,0,0,1,12,8.351H10.753a.035.035,0,0,1-.036-.035V7.068a.036.036,0,0,1,.036-.035Zm-2.145,0H9.858a.035.035,0,0,1,.035.035V8.316a.035.035,0,0,1-.035.035H8.61a.035.035,0,0,1-.038-.035V7.068a.036.036,0,0,1,.035-.035Z" transform="translate(0 0)" fill="#fc780b"/>
</svg>
