<svg xmlns="http://www.w3.org/2000/svg" width="19.911" height="19.74" viewBox="0 0 19.911 19.74">
  <path id="instagram" d="M5.747,2.752h8.418a5.726,5.726,0,0,1,5.746,5.672v8.4a5.726,5.726,0,0,1-5.746,5.672H5.747A5.726,5.726,0,0,1,0,16.82v-8.4A5.727,5.727,0,0,1,5.747,2.752ZM9.9,7.292a5.565,5.565,0,1,1-5.565,5.565A5.567,5.567,0,0,1,9.9,7.292Zm0,1.88a3.685,3.685,0,1,1-3.686,3.685A3.686,3.686,0,0,1,9.9,9.172Zm5.384-2.651a.9.9,0,1,1-.9.9.9.9,0,0,1,.9-.9ZM6.435,4.364h7.043a4.809,4.809,0,0,1,4.808,4.782v7.078a4.809,4.809,0,0,1-4.808,4.782H6.435a4.809,4.809,0,0,1-4.808-4.782V9.147A4.809,4.809,0,0,1,6.435,4.364Z" transform="translate(0 -2.752)" fill="#fff" fill-rule="evenodd"/>
</svg>
