<svg xmlns="http://www.w3.org/2000/svg" xmlns:xlink="http://www.w3.org/1999/xlink" width="162" height="141" viewBox="0 0 162 141">
  <defs>
    <filter id="Rectangle_1161" x="0" y="0" width="162" height="141" filterUnits="userSpaceOnUse">
      <feOffset dy="3" input="SourceAlpha"/>
      <feGaussianBlur stdDeviation="3" result="blur"/>
      <feFlood flood-opacity="0.161"/>
      <feComposite operator="in" in2="blur"/>
      <feComposite in="SourceGraphic"/>
    </filter>
  </defs>
  <g id="kitchen" transform="translate(9 6)">
    <g transform="matrix(1, 0, 0, 1, -9, -6)" filter="url(#Rectangle_1161)">
      <rect id="Rectangle_1161-2" data-name="Rectangle 1161" width="144" height="123" rx="27" transform="translate(9 6)" fill="#fff"/>
    </g>
    <text id="Kitchen-2" data-name="Kitchen" transform="translate(48 90)" font-size="13" font-family="SegoeUI, Segoe UI"><tspan x="0" y="0">Kitchen</tspan></text>
    <path id="Path_2733" data-name="Path 2733" d="M0,0H40.986a1.135,1.135,0,0,1,.458.093A1.789,1.789,0,0,1,42.1.751a1.2,1.2,0,0,1,.093.458V9.378a1.163,1.163,0,0,1-.093.461,1.264,1.264,0,0,1-.262.393l-.014.01a1.213,1.213,0,0,1-.379.251,1.2,1.2,0,0,1-.458.093H24.307a.089.089,0,0,1-.09-.09V1.422h-13V3.8L15.453,8.61a.666.666,0,0,1-.059.94l-.007,0a.622.622,0,0,1-.2.117.647.647,0,0,1-.227.041H2.245a.67.67,0,0,1-.665-.665.638.638,0,0,1,.059-.269A.656.656,0,0,1,1.8,8.555L6.158,3.792V1.422H0V0ZM10.865,20.174a.713.713,0,1,1-.713.713.714.714,0,0,1,.713-.713Zm-4.546,0a.713.713,0,1,1-.713.713.714.714,0,0,1,.713-.713Zm4.914-3.826V17.1h0v1H41.116a1.211,1.211,0,0,1,1.205,1.205V33.984a1.208,1.208,0,0,1-1.2,1.205H1.243A1.216,1.216,0,0,1,.038,33.984V19.306A1.207,1.207,0,0,1,1.243,18.1H5.954V16.348H7.521V17.1H6.805v1h3.582v-1H9.67v-.754ZM40.989,19.43h-10.2V33.86h10.2V19.43Zm-11.53,0H16.107v3.213H29.459V19.43Zm-14.681,0H1.364V33.86H14.778V19.43Zm1.329,14.426H29.459V23.973H16.107v9.884ZM32.372,20.174a.711.711,0,0,1,.272.055l0,0a.73.73,0,0,1,.227.152.755.755,0,0,1,.155.231.711.711,0,0,1,.055.272.724.724,0,0,1-.055.272.755.755,0,0,1-.155.231l-.007,0a.72.72,0,0,1-.227.148.7.7,0,0,1-.544,0,.745.745,0,0,1-.224-.148l-.01-.007a.689.689,0,0,1-.152-.231l0,0a.691.691,0,0,1-.052-.269.711.711,0,0,1,.055-.272.7.7,0,0,1,.155-.231.755.755,0,0,1,.231-.155l0,0a.824.824,0,0,1,.272-.048ZM25.591,1.422h-.045V9.25H40.868V1.422Zm1.309.871a.72.72,0,0,1,.227-.148.7.7,0,0,1,.544,0l0,0A.73.73,0,0,1,27.9,2.3a.755.755,0,0,1,.155.231.7.7,0,0,1,0,.544l0,0a.69.69,0,0,1-.148.22l-.01.01a.745.745,0,0,1-.224.148.7.7,0,0,1-.544,0A.7.7,0,0,1,26.9,3.3h0a.755.755,0,0,1-.155-.231.711.711,0,0,1-.055-.272.724.724,0,0,1,.055-.272A.755.755,0,0,1,26.9,2.3l0,0Z" transform="translate(50.369 24.266)" fill="#ec6337"/>
  </g>
</svg>
