<svg id="Group_10651" data-name="Group 10651" xmlns="http://www.w3.org/2000/svg" width="6.78" height="10.673" viewBox="0 0 6.78 10.673">
  <path id="Path_9084" data-name="Path 9084" d="M220.839,412.531c.037-.019.076-.037.115-.054a.281.281,0,1,0-.225-.515c-.049.022-.1.044-.145.068-.527.27-.818.631-.818,1.015s.291.747.818,1.017a4.8,4.8,0,0,0,3.879,0c.527-.269.818-.63.818-1.017s-.29-.745-.818-1.015c-.054-.028-.111-.054-.168-.079a.281.281,0,1,0-.222.516c.047.02.092.041.135.063.378.194.512.4.512.515s-.134.324-.511.516a4.254,4.254,0,0,1-3.369,0c-.378-.192-.511-.4-.511-.516s.134-.321.511-.515Z" transform="translate(-219.134 -403.799)" fill="#ec6337"/>
  <path id="Path_9085" data-name="Path 9085" d="M193.344,28h-.074a3.412,3.412,0,0,0-3.353,3.4c-.029,1.839,1.378,3.522,2.406,4.751.3.36.562.672.738.93a.281.281,0,0,0,.232.123h.028a.281.281,0,0,0,.232-.123c.176-.258.436-.569.738-.93,1.027-1.229,2.435-2.912,2.406-4.746a3.414,3.414,0,0,0-3.352-3.4Zm.516,7.789c-.206.247-.394.471-.553.676-.159-.205-.346-.429-.553-.676-.971-1.161-2.3-2.752-2.275-4.386a2.85,2.85,0,0,1,2.816-2.841h.023a2.851,2.851,0,0,1,2.816,2.846c.026,1.63-1.3,3.22-2.275,4.382Z" transform="translate(-189.917 -28)" fill="#ec6337"/>
  <path id="Path_9086" data-name="Path 9086" d="M292.628,130.13a1.241,1.241,0,1,0,1.241,1.241A1.248,1.248,0,0,0,292.628,130.13Z" transform="translate(-289.238 -127.967)" fill="#ec6337"/>
</svg>
