<svg xmlns="http://www.w3.org/2000/svg" width="15.403" height="16.961" viewBox="0 0 15.403 16.961">
  <g id="Group_10672" data-name="Group 10672" transform="translate(-161.624 -104.083)">
    <path id="Path_9693" data-name="Path 9693" d="M173.583,118.762c.195,0,.39.021.583.008a.786.786,0,0,0,.811-.856c0-1.715-.037-3.432.019-5.145a1.847,1.847,0,0,0-.546-1.566,1.205,1.205,0,0,1-.4-1.1c.008-.429,0-.857.006-1.286a.294.294,0,0,1,.446,0,11.906,11.906,0,0,0,1.806,1.63c.265.216.468.387.466.764-.013,2.425-.041,4.85,0,7.275a2.361,2.361,0,0,1-2.379,2.287c-.722.032-1.448-.021-2.17.015-.525.027-.67-.176-.668-.68.017-3.579-.009-7.158.026-10.736a1.49,1.49,0,0,0-.674-1.432c-.433-.279-.749-.7-1.2-.971a.462.462,0,0,0-.681.059c-1.2,1.08-2.421,2.14-3.543,3.3a3.7,3.7,0,0,1-.65.484,2.054,2.054,0,0,0-.9,2.056c.046.621-.15.742-.945.747-.768.006-.93-.2-1.058-.742-.42-1.778.815-2.653,1.928-3.535.407-.322.6-.8,1.023-1.063a12.437,12.437,0,0,0,2.061-1.789,24.924,24.924,0,0,0,2.005-1.888c.29-.345.585-.344.965-.034,1.15.938,2.046,2.147,3.261,3.012.038.027.037.108.054.163a1.19,1.19,0,0,1,.162.841q0,4.71,0,9.42C173.4,118.264,173.319,118.557,173.583,118.762Z" fill="none" stroke="#fc780b" stroke-width="0.5"/>
    <path id="Path_9694" data-name="Path 9694" d="M167.727,154.627c0,1-.01,1.992,0,2.987.007.469-.189.667-.658.659-.859-.015-1.72-.036-2.576.011a1.244,1.244,0,0,1-.768-.288c-.776-.522-1.514-1.117-1.414-2.223a9.144,9.144,0,0,1,.116-2.142c.018-.054-.007-.152.023-.169.467-.266.975-.1,1.462-.1.284,0,.4.261.4.542,0,.566.015,1.133,0,1.7-.01.33.117.427.441.441,1.317.057,1.317.068,1.317-1.228,0-1.093.01-2.187-.007-3.28,0-.322.081-.431.421-.437,1.245-.024,1.245-.038,1.245,1.19Q167.727,153.456,167.727,154.627Z" transform="translate(-0.363 -37.492)" fill="none" stroke="#fc780b" stroke-width="0.5"/>
    <path id="Path_9695" data-name="Path 9695" d="M195.88,142.3c0-1.4.013-2.81-.008-4.215-.006-.428.072-.618.567-.6,1.128.032,1.129,0,1.129,1.152q0,3.981,0,7.962c0,.705-.065.761-.835.762-.825,0-.851-.019-.852-.724Q195.878,144.462,195.88,142.3Z" transform="translate(-27.28 -26.575)" fill="none" stroke="#fc780b" stroke-width="0.5"/>
  </g>
</svg>
