<svg xmlns="http://www.w3.org/2000/svg" width="18.362" height="18.361" viewBox="0 0 18.362 18.361">
  <path id="noun-city-3922352" d="M126.765,53.1a.918.918,0,0,0-.918-.918h-8.263a.918.918,0,0,0-.918.918V65.033h10.1Zm-6.426,10.1H118.5V61.361h1.836Zm0-3.672H118.5V57.689h1.836Zm0-3.672H118.5V54.017h1.836Zm4.591,7.345h-2.754V61.361h2.754Zm0-3.672h-2.754V57.689h2.754Zm0-3.672h-2.754V54.017h2.754Zm3.213-5.508h-7.8V47.59a.918.918,0,0,1,.918-.918h9.181a.918.918,0,0,1,.918.918v6.426H128.6V50.8a.459.459,0,0,0-.459-.459Zm6.886,6.426v8.263h-2.3V61.361H130.9v3.672h-2.3V56.771a.918.918,0,0,1,.918-.918h4.591a.918.918,0,0,1,.918.918Z" transform="translate(-116.666 -46.672)" fill="#bababa"/>
</svg>
