<svg xmlns="http://www.w3.org/2000/svg" width="14.875" height="13.249" viewBox="0 0 14.875 13.249">
  <path id="office-address-icon" d="M5.934,9.313A5.782,5.782,0,0,1,4.54,12a5.586,5.586,0,0,1-1.2.994.418.418,0,0,1-.473.017,6.78,6.78,0,0,1-1.678-1.5A5.381,5.381,0,0,1,.055,9.046,3.33,3.33,0,0,1,.486,6.677a2.967,2.967,0,0,1,.659-.726,3.172,3.172,0,0,1,1.993-.735,2.843,2.843,0,0,1,1.916.778,2.83,2.83,0,0,1,.517.623A3.732,3.732,0,0,1,5.934,9.313Zm-.969,3.522h9.5V3.889H10.721v8.944h-.415V.415H3.979V4.435H3.563V2.179h0V.363A.363.363,0,0,1,3.67.108h0A.363.363,0,0,1,3.928,0h6.429a.363.363,0,0,1,.258.107l.015.017a.363.363,0,0,1,.092.242V3.473h3.852a.3.3,0,0,1,.214.09h0a.3.3,0,0,1,.09.214v9.265a.207.207,0,0,1-.208.207H4.493l.01-.008.011-.008.01-.008.011-.008.007-.006h.041L4.59,13.2h0V13.2h.019l.007-.006h.021l.207-.237.013-.011h.007l.006-.006h0l.006-.006h0ZM6.791,7.329h.484a.071.071,0,0,1,.071.071V8.554a.073.073,0,0,1-.071.071H6.9a4.981,4.981,0,0,0-.036-.878c-.018-.139-.044-.277-.075-.413ZM6.743,9.715h.53a.071.071,0,0,1,.07.071v1.154a.07.07,0,0,1-.07.071h-1a6.426,6.426,0,0,0,.475-1.3ZM6.137,4.943H7.275a.07.07,0,0,1,.07.07V6.167a.07.07,0,0,1-.07.071H6.367l-.046-.077a4.116,4.116,0,0,0-.255-.375V5.013a.07.07,0,0,1,.071-.07ZM8.2,9.715H9.324a.071.071,0,0,1,.07.071v1.154a.07.07,0,0,1-.07.076H8.186a.07.07,0,0,1-.071-.071V9.787a.071.071,0,0,1,.071-.071Zm0-2.386H9.324a.07.07,0,0,1,.07.071V8.554a.071.071,0,0,1-.07.071H8.186a.071.071,0,0,1-.071-.071V7.4a.07.07,0,0,1,.071-.071Zm0-2.386H9.324a.07.07,0,0,1,.07.07V6.167a.07.07,0,0,1-.07.071H8.186a.07.07,0,0,1-.071-.071V5.013a.07.07,0,0,1,.071-.07Zm3.632,3.7h1.646c.019,0,.035.012.035.024v.677c0,.012-.018.025-.035.025H11.818c-.017,0-.035-.012-.035-.025V8.668c0-.013.016-.024.035-.024ZM4.908,1.318H9.376a.168.168,0,0,1,.167.166V3.251a.168.168,0,0,1-.167.166H4.908a.168.168,0,0,1-.167-.166V1.484A.167.167,0,0,1,4.908,1.318Zm6.909,5.845h1.646c.019,0,.035.013.035.025v.68c0,.012-.018.025-.035.025H11.818c-.017,0-.035-.012-.035-.025v-.68c0-.015.016-.025.035-.025Zm0-1.473h1.646c.019,0,.035.013.035.025v.676c0,.012-.018.025-.035.025H11.818c-.017,0-.035-.011-.035-.025V5.709c0-.015.016-.025.035-.025Zm-8.8,1.2A1.374,1.374,0,1,1,1.641,8.261,1.374,1.374,0,0,1,3.014,6.887Z" transform="translate(-0.002)" fill="#ec6337" fill-rule="evenodd"/>
</svg>
