<svg xmlns="http://www.w3.org/2000/svg" xmlns:xlink="http://www.w3.org/1999/xlink" width="162" height="141" viewBox="0 0 162 141">
  <defs>
    <filter id="Rectangle_1149" x="0" y="0" width="162" height="141" filterUnits="userSpaceOnUse">
      <feOffset dy="3" input="SourceAlpha"/>
      <feGaussianBlur stdDeviation="3" result="blur"/>
      <feFlood flood-opacity="0.161"/>
      <feComposite operator="in" in2="blur"/>
      <feComposite in="SourceGraphic"/>
    </filter>
  </defs>
  <g id="outdining" transform="translate(9 6)">
    <g transform="matrix(1, 0, 0, 1, -9, -6)" filter="url(#Rectangle_1149)">
      <rect id="Rectangle_1149-2" data-name="Rectangle 1149" width="144" height="123" rx="27" transform="translate(9 6)" fill="#fff"/>
    </g>
    <text id="Out_dining_area" data-name="Out dining area" transform="translate(21 83)" font-size="14" font-family="SegoeUI, Segoe UI"><tspan x="0" y="0">Out dining area</tspan></text>
    <path id="Path_2725" data-name="Path 2725" d="M11.615,226.99H6.126l-1.254-8.781a2.321,2.321,0,0,0-4.6.584l1.043,9.388A3.837,3.837,0,0,0,3.073,231L.1,241.4l1.48.423,2.935-10.273a3.844,3.844,0,0,0,.615.058h5.713v10h1.539V231.465a2.3,2.3,0,0,0-.769-4.475Zm0,3.078H5.136a2.308,2.308,0,0,1-2.293-2.053L1.8,218.627a.779.779,0,0,1,1.544-.2L4.7,227.868a.77.77,0,0,0,.762.66h6.156a.769.769,0,1,1,0,1.539Zm0,0" transform="translate(49.222 -186.609)" fill="#ec6337"/>
    <path id="Path_2726" data-name="Path 2726" d="M346.654,231.011a3.837,3.837,0,0,0,1.76-2.818l1.043-9.388a2.321,2.321,0,0,0-4.6-.585L343.6,227h-5.489a2.3,2.3,0,0,0-.77,4.475v10.145h1.539v-10h5.71a3.845,3.845,0,0,0,.615-.058l2.935,10.273,1.481-.423Zm-2.062-.934h-6.479a.769.769,0,0,1,0-1.539h6.156a.769.769,0,0,0,.762-.66l1.349-9.442a.779.779,0,0,1,1.546.2l-1.04,9.39A2.308,2.308,0,0,1,344.592,230.077Zm0,0" transform="translate(-254.191 -186.618)" fill="#ec6337"/>
    <path id="Path_2727" data-name="Path 2727" d="M128.726,236.776h-2.308V220.617h9.234a.77.77,0,0,0,.769-.77v-3.078a.77.77,0,0,0-.769-.769H112.566a.77.77,0,0,0-.77.769v3.078a.77.77,0,0,0,.77.77H121.8v16.159h-2.308a.77.77,0,0,0-.769.77v3.078a.77.77,0,0,0,.769.77h9.234a.77.77,0,0,0,.769-.77v-3.078A.77.77,0,0,0,128.726,236.776Zm-15.39-17.7v-1.539h21.546v1.539Zm11.542,1.539v16.159h-1.539V220.617Zm3.078,19.237h-7.695v-1.539h7.695Zm0,0" transform="translate(-51.73 -186.393)" fill="#ec6337"/>
  </g>
</svg>
