<svg xmlns="http://www.w3.org/2000/svg" xmlns:xlink="http://www.w3.org/1999/xlink" width="162" height="141" viewBox="0 0 162 141">
  <defs>
    <filter id="Rectangle_1146" x="0" y="0" width="162" height="141" filterUnits="userSpaceOnUse">
      <feOffset dy="3" input="SourceAlpha"/>
      <feGaussianBlur stdDeviation="3" result="blur"/>
      <feFlood flood-opacity="0.161"/>
      <feComposite operator="in" in2="blur"/>
      <feComposite in="SourceGraphic"/>
    </filter>
  </defs>
  <g id="paito" transform="translate(9 6)">
    <g transform="matrix(1, 0, 0, 1, -9, -6)" filter="url(#Rectangle_1146)">
      <rect id="Rectangle_1146-2" data-name="Rectangle 1146" width="144" height="123" rx="27" transform="translate(9 6)" fill="#fff"/>
    </g>
    <text id="Patio" transform="translate(57 91)" font-size="14" font-family="SegoeUI, Segoe UI"><tspan x="0" y="0">Patio</tspan></text>
    <path id="Path_2710" data-name="Path 2710" d="M44.541,58.943a2.061,2.061,0,0,0-1.472-1.978l-.021-.006L24.942,52.044a9.147,9.147,0,0,0-5.342,0L1.493,56.959l-.021.006A2.061,2.061,0,0,0,0,58.943a.67.67,0,0,1,0,.364V60A2.083,2.083,0,0,0,2.088,62.07h9.743a2.088,2.088,0,0,0,1.392-.53,2.088,2.088,0,0,0,1.392.53h6.96V75.2h-6.96a.691.691,0,1,0,0,1.382h5.568v.691a2.077,2.077,0,0,0,1.392,1.954v3.643a3.467,3.467,0,0,0-2.784,3.385.7.7,0,0,0,1.392,0A2.077,2.077,0,0,1,21.575,84.3v1.954a.7.7,0,0,0,1.392,0V84.3a2.077,2.077,0,0,1,1.392,1.954.7.7,0,0,0,1.392,0,3.467,3.467,0,0,0-2.784-3.385V79.225a2.077,2.077,0,0,0,1.392-1.954V76.58h5.568a.691.691,0,1,0,0-1.382h-6.96V62.07h6.96a2.088,2.088,0,0,0,1.392-.53,2.088,2.088,0,0,0,1.392.53h9.743A2.083,2.083,0,0,0,44.541,60v-.691a.67.67,0,0,1,0-.364ZM22.967,77.271a.7.7,0,0,1-1.392,0V76.58h1.392ZM13.023,57.234H5.757l12.476-3.387C16.207,55.234,13.689,56.817,13.023,57.234ZM21.1,53.486a1.881,1.881,0,0,1,2.35,0l.046.033,5.547,3.711H15.612C17.371,56.107,19.83,54.493,21.1,53.486Zm-9.266,7.2H2.088a.694.694,0,0,1-.7-.691v-.691a.67.67,0,0,1,0-.364.684.684,0,0,1,.084-.327H12.527V60A.694.694,0,0,1,11.831,60.688Zm18.095,0H14.615a.694.694,0,0,1-.7-.691V58.616h16.7V60A.694.694,0,0,1,29.926,60.688ZM43.149,60a.694.694,0,0,1-.7.691H32.71a.694.694,0,0,1-.7-.691V58.616h.7a.691.691,0,1,0,0-1.382H31.531L26.58,53.921l12.2,3.313h-3.29a.691.691,0,1,0,0,1.382h7.572a.683.683,0,0,1,.084.327.67.67,0,0,1,0,.364Z" transform="translate(48.186 -25.051)" fill="#ec6337"/>
    <path id="Path_2711" data-name="Path 2711" d="M50.668,287.674v-3.319a.89.89,0,0,0-.889-.889H42.845v-4.978a2.136,2.136,0,0,0-2.133-2.134.711.711,0,1,0,0,1.422.712.712,0,0,1,.711.711v9.186l-.7,4.209a.711.711,0,0,0,.585.818.72.72,0,0,0,.118.01.711.711,0,0,0,.7-.594l.612-3.673h6.618l.612,3.673a.711.711,0,0,0,.7.594.72.72,0,0,0,.118-.01.711.711,0,0,0,.585-.818Zm-1.422-.652h-6.4v-2.133h6.4Z" transform="translate(11.742 -230.818)" fill="#ec6337"/>
    <path id="Path_2712" data-name="Path 2712" d="M354.666,276.354a2.136,2.136,0,0,0-2.134,2.134v4.978H345.6a.89.89,0,0,0-.889.889v3.319l-.7,4.209a.711.711,0,1,0,1.4.234l.612-3.673h6.618l.612,3.673a.711.711,0,1,0,1.4-.234l-.7-4.209v-9.186a.712.712,0,0,1,.711-.711.711.711,0,0,0,0-1.422Zm-8.534,8.534h6.4v2.134h-6.4Z" transform="translate(-266.206 -230.819)" fill="#ec6337"/>
  </g>
</svg>
