<svg id="parking" xmlns="http://www.w3.org/2000/svg" width="30.302" height="30.302" viewBox="0 0 30.302 30.302">
  <g id="Group_926" data-name="Group 926" transform="translate(11.245 7.352)">
    <g id="Group_925" data-name="Group 925">
      <path id="Path_2686" data-name="Path 2686" d="M195.419,124.23H190v15.6h1.775v-4.944h3.642a5.241,5.241,0,0,0,5.235-5.235v-.182A5.241,5.241,0,0,0,195.419,124.23Zm3.46,5.418a3.464,3.464,0,0,1-3.46,3.46h-3.642v-7.1h3.642a3.464,3.464,0,0,1,3.46,3.46Z" transform="translate(-190.001 -124.23)" fill="#ec6337"/>
    </g>
  </g>
  <g id="Group_928" data-name="Group 928">
    <g id="Group_927" data-name="Group 927">
      <path id="Path_2687" data-name="Path 2687" d="M25.864,4.438A15.151,15.151,0,1,0,4.438,25.864,15.151,15.151,0,0,0,25.864,4.438ZM24.609,24.609A13.375,13.375,0,0,1,5.693,5.693,13.375,13.375,0,0,1,24.609,24.609Z" fill="#ec6337"/>
    </g>
  </g>
</svg>
