<svg xmlns="http://www.w3.org/2000/svg" width="24.799" height="16.174" viewBox="0 0 24.799 16.174">
  <path id="Path_9028" data-name="Path 9028" d="M232.763,206.416a1.423,1.423,0,0,0,1.685,0l10.715-8.482c.466-.369.843-.188.843.411V211.1a1.08,1.08,0,0,1-1.082,1.078H222.287a1.078,1.078,0,0,1-1.082-1.078V198.345c0-.6.378-.779.843-.411ZM234.03,204a.719.719,0,0,1-.851,0l-9.252-7.325c-.466-.369-.364-.667.237-.667h18.882c.6,0,.705.3.237.667Z" transform="translate(-221.206 -196.003)" fill="#bababa" fill-rule="evenodd"/>
</svg>
