<svg xmlns="http://www.w3.org/2000/svg" xmlns:xlink="http://www.w3.org/1999/xlink" width="60" height="60" viewBox="0 0 60 60">
  <defs>
    <filter id="Ellipse_2155" x="0" y="0" width="60" height="60" filterUnits="userSpaceOnUse">
      <feOffset dy="3" input="SourceAlpha"/>
      <feGaussianBlur stdDeviation="3" result="blur"/>
      <feFlood flood-opacity="0.161"/>
      <feComposite operator="in" in2="blur"/>
      <feComposite in="SourceGraphic"/>
    </filter>
  </defs>
  <g id="phone" transform="translate(9 6)">
    <g transform="matrix(1, 0, 0, 1, -9, -6)" filter="url(#Ellipse_2155)">
      <circle id="Ellipse_2155-2" data-name="Ellipse 2155" cx="21" cy="21" r="21" transform="translate(9 6)" fill="#fff"/>
    </g>
    <path id="Path_9265" data-name="Path 9265" d="M136.482,75.312a16.054,16.054,0,0,0,4.323,2.54.425.425,0,0,0,.294-.8,15.8,15.8,0,0,1-4.071-2.372,19.339,19.339,0,0,1-4.575-5.457,5.773,5.773,0,0,1-.693-2.036v-.084a4.473,4.473,0,0,1,1.28-4.3.992.992,0,0,1,1.2-.126l2.392,2.351a1.056,1.056,0,0,1,.357.756,1.22,1.22,0,0,1-.357.735L135.5,67.652a.388.388,0,0,0-.084.462,12.878,12.878,0,0,0,4.407,4.995l.567.378c.483.294.776.462.8.462a.41.41,0,0,0,.483-.063l1.406-1.385a.747.747,0,0,1,.965.021l.021.021,2.435,2.372a1.072,1.072,0,0,1,.294.819.993.993,0,0,1-.315.567l-.063.063a3.65,3.65,0,0,1-3.421,1.2.42.42,0,0,0-.189.818,4.52,4.52,0,0,0,.818.084,4.405,4.405,0,0,0,3.4-1.511,1.691,1.691,0,0,0,.609-1.091,2.022,2.022,0,0,0-.483-1.49l-.042-.042-2.455-2.392a1.59,1.59,0,0,0-2.057-.147l-.063.063-1.217,1.2c-.126-.063-.273-.168-.462-.273s-.357-.231-.546-.357a12.475,12.475,0,0,1-4.03-4.386l.9-.9a1.917,1.917,0,0,0,.63-1.3,1.886,1.886,0,0,0-.609-1.385l-2.413-2.414c-.021-.021-.042-.021-.042-.042a1.816,1.816,0,0,0-2.246.168,5.345,5.345,0,0,0-1.574,5.1c.042.42.42,3.568,5.562,8.059Z" transform="translate(-117.912 -49.23)" fill="#ec6337"/>
  </g>
</svg>
