<svg xmlns="http://www.w3.org/2000/svg" xmlns:xlink="http://www.w3.org/1999/xlink" width="164" height="141" viewBox="0 0 164 141">
  <defs>
    <filter id="Rectangle_1144" x="0" y="0" width="164" height="141" filterUnits="userSpaceOnUse">
      <feOffset dy="3" input="SourceAlpha"/>
      <feGaussianBlur stdDeviation="3" result="blur"/>
      <feFlood flood-opacity="0.161"/>
      <feComposite operator="in" in2="blur"/>
      <feComposite in="SourceGraphic"/>
    </filter>
  </defs>
  <g id="pool" transform="translate(9 6)">
    <g transform="matrix(1, 0, 0, 1, -9, -6)" filter="url(#Rectangle_1144)">
      <rect id="Rectangle_1144-2" data-name="Rectangle 1144" width="146" height="123" rx="27" transform="translate(9 6)" fill="#fff"/>
    </g>
    <path id="Path_2705" data-name="Path 2705" d="M5.989,17.077A.877.877,0,0,1,5.9,15.327,5.437,5.437,0,0,0,8.947,14.27a7.306,7.306,0,0,0,2.1-2.706.876.876,0,0,1,1.172-.407.9.9,0,0,1,.433.464,6.493,6.493,0,0,0,3.157,3.055,5.619,5.619,0,0,0,2.268.491,5.11,5.11,0,0,0,1.1-.119.589.589,0,0,1-.013-.124,15.344,15.344,0,0,1,1.87-7.609A15.849,15.849,0,0,1,27,1.479l.027-.013h0A13.915,13.915,0,0,1,29.644.4,9.984,9.984,0,0,1,32.173,0a6.492,6.492,0,0,1,4.134,1.234A4.793,4.793,0,0,1,37.916,3.38,4.262,4.262,0,0,1,38.018,6a5.242,5.242,0,0,1-2.1,2.839,4.385,4.385,0,0,1-2.122.8,3.633,3.633,0,0,1-3.374-1.53,5.879,5.879,0,0,1-.977-2.9.657.657,0,0,1,1.309-.124A4.608,4.608,0,0,0,31.5,7.346a2.338,2.338,0,0,0,.995.818,2.4,2.4,0,0,0,1.185.172,3.049,3.049,0,0,0,1.477-.57,3.976,3.976,0,0,0,1.6-2.122,2.961,2.961,0,0,0-.071-1.817,3.462,3.462,0,0,0-1.172-1.552C26.73-2.492,21.672,12.789,32.416,14.12a12.607,12.607,0,0,0,2.511-2.609.875.875,0,0,1,1.225-.181.909.909,0,0,1,.279.345h0A6.113,6.113,0,0,0,39.185,14.7a4.761,4.761,0,0,0,2.052.517,4.947,4.947,0,0,0,2.127-.447A7.165,7.165,0,0,0,46.7,11.312a.873.873,0,0,1,1.6.075h0a6.968,6.968,0,0,0,2.113,3.126,3.753,3.753,0,0,0,2.914.659.878.878,0,1,1,.252,1.738,5.425,5.425,0,0,1-4.218-.995,7.328,7.328,0,0,1-1.972-2.352,8.235,8.235,0,0,1-3.3,2.8,6.549,6.549,0,0,1-5.69-.106,7.5,7.5,0,0,1-2.9-2.657,11.576,11.576,0,0,1-3.082,2.6,6.29,6.29,0,0,1-3.4.844,5.869,5.869,0,0,1-3.2-1.211,9.331,9.331,0,0,1-1.985-2.078,7.141,7.141,0,0,1-2.781,2.472,6.692,6.692,0,0,1-2.971.685,7.4,7.4,0,0,1-2.971-.632,8.075,8.075,0,0,1-3.236-2.617,8.142,8.142,0,0,1-1.861,2,7.126,7.126,0,0,1-4,1.41ZM.918,26.106A.877.877,0,1,1,.83,24.355,5.437,5.437,0,0,0,3.876,23.3a7.306,7.306,0,0,0,2.1-2.706.876.876,0,0,1,1.172-.407.9.9,0,0,1,.433.464,6.493,6.493,0,0,0,3.157,3.055,5.619,5.619,0,0,0,2.268.491,4.93,4.93,0,0,0,2.2-.508A5.826,5.826,0,0,0,17.9,20.7a.877.877,0,0,1,1.154-.451.867.867,0,0,1,.424.4,8.7,8.7,0,0,0,2.3,2.808,4.142,4.142,0,0,0,2.255.871A4.568,4.568,0,0,0,26.5,23.7a11.141,11.141,0,0,0,3.365-3.161.875.875,0,0,1,1.225-.181.909.909,0,0,1,.279.345h0a6.113,6.113,0,0,0,2.755,3.024,4.761,4.761,0,0,0,2.052.517,4.947,4.947,0,0,0,2.127-.447,7.165,7.165,0,0,0,3.334-3.458.873.873,0,0,1,1.6.075h0a6.968,6.968,0,0,0,2.113,3.126,3.753,3.753,0,0,0,2.914.659.878.878,0,0,1,.252,1.738,5.425,5.425,0,0,1-4.218-.995,7.328,7.328,0,0,1-1.972-2.352,8.235,8.235,0,0,1-3.3,2.8,6.549,6.549,0,0,1-5.69-.106,7.5,7.5,0,0,1-2.9-2.657,11.576,11.576,0,0,1-3.082,2.6,6.29,6.29,0,0,1-3.4.844,5.869,5.869,0,0,1-3.2-1.211,9.331,9.331,0,0,1-1.985-2.078,7.141,7.141,0,0,1-2.781,2.472A6.661,6.661,0,0,1,13,25.951a7.4,7.4,0,0,1-2.971-.632A8.075,8.075,0,0,1,6.79,22.7a8.142,8.142,0,0,1-1.861,2,7.175,7.175,0,0,1-4.01,1.406Z" transform="translate(45.482 31.675)" fill="#ec6337"/>
    <text id="Pool-2" data-name="Pool" transform="translate(61 93)" font-size="14" font-family="SegoeUI, Segoe UI"><tspan x="0" y="0">Pool</tspan></text>
  </g>
</svg>
