<svg xmlns="http://www.w3.org/2000/svg" width="11.369" height="11.414" viewBox="0 0 11.369 11.414">
  <path id="finance-icon" d="M5.091,4.363,4.858,3.3c.768.144,1.891,1.379,2.6,2.356a1.585,1.585,0,0,0-.818,1.338,1.4,1.4,0,0,0,.019.234,3.271,3.271,0,0,0-1.1-.184,3.09,3.09,0,0,0-1.412.322,1.5,1.5,0,0,0-.9,1.324,1.314,1.314,0,0,0,.079.454c-.01.029-.02.059-.028.091h0a1.283,1.283,0,0,0-.051.35,1.309,1.309,0,0,0,.075.441l-.02.062a1.3,1.3,0,0,0-.055.363,1.319,1.319,0,0,0,.224.739H3.41C2.33,11.13.661,11.132.229,10.024-.478,8.232.811,6.1,1.987,4.8a6.444,6.444,0,0,1,.48-.479A4.687,4.687,0,0,1,3.906,3.311l-.532.99.772-1.024h.407Zm1.8,5.867a.423.423,0,0,1,.064.219c0,.4-.624.727-1.394.727s-1.395-.327-1.395-.727a.427.427,0,0,1,.064-.219,1.6,1.6,0,0,0,1.331.513A1.591,1.591,0,0,0,6.894,10.229ZM10.9,9.97a.519.519,0,0,1,.078.273c0,.494-.766.9-1.709.9s-1.7-.406-1.7-.9a.515.515,0,0,1,.078-.273,1.953,1.953,0,0,0,1.63.628,1.971,1.971,0,0,0,1.636-.628Zm0-1.083a.523.523,0,0,1,.078.273c0,.494-.766.9-1.709.9s-1.7-.4-1.7-.9a.52.52,0,0,1,.078-.273,1.953,1.953,0,0,0,1.63.628,1.971,1.971,0,0,0,1.636-.628ZM9.888,6.629l-.02.223L9.03,6.779a.768.768,0,0,1,.144.3l-.2-.018a.686.686,0,0,0-.091-.2.413.413,0,0,0-.174-.156l.015-.182,1.166.1Zm-.617-.348c.775,0,1.4.247,1.4.551s-.629.548-1.4.548-1.4-.244-1.4-.545.629-.551,1.4-.551Zm0-.182c.943,0,1.709.4,1.709.9s-.766.9-1.709.9-1.7-.4-1.7-.9.765-.9,1.708-.9Zm1.636,1.737a.517.517,0,0,1,.073.257c0,.494-.766.9-1.709.9s-1.7-.4-1.7-.9a.5.5,0,0,1,.067-.258A1.932,1.932,0,0,0,9.27,8.47a1.946,1.946,0,0,0,1.636-.636Zm-4.84.552-.016.182-.684-.06a.631.631,0,0,1,.117.246l-.164-.013a.545.545,0,0,0-.075-.162A.343.343,0,0,0,5.1,8.454L5.114,8.3l.951.083Zm-.5-.281c.636,0,1.146.2,1.146.454s-.513.454-1.146.454-1.146-.2-1.146-.454S4.932,8.107,5.568,8.107Zm0-.149c.77,0,1.394.328,1.394.732s-.624.727-1.394.727-1.395-.327-1.395-.727.621-.735,1.395-.735ZM6.9,9.375a.417.417,0,0,1,.059.21c0,.4-.624.727-1.394.727s-1.395-.328-1.395-.727a.414.414,0,0,1,.059-.21A1.578,1.578,0,0,0,5.568,9.9,1.576,1.576,0,0,0,6.9,9.375ZM3.873,1.864c-.165-.488-.314-.981-.44-1.481a2.925,2.925,0,0,1,2.8-.008L5.75,1.52c.26-.342.347-.482.5-.672a1.56,1.56,0,0,1,.182.143.752.752,0,0,1,.284.454.469.469,0,0,1-.13.379l-1.1,1.289a2.418,2.418,0,0,1-.417-.105c.063-.148.139-.311.2-.454l-.4.435a1.5,1.5,0,0,0-1.072.131L2.672,1.768a.373.373,0,0,1-.1-.242c0-.325.486-.606.741-.712Z" transform="translate(0.124 0.104)" fill="none" stroke="#ec6337" stroke-width="0.25" fill-rule="evenodd"/>
</svg>
