<svg xmlns="http://www.w3.org/2000/svg" width="10.953" height="10.962" viewBox="0 0 10.953 10.962">
  <g id="_17dd779b09de28b993c60163f6497ba0" data-name="17dd779b09de28b993c60163f6497ba0" transform="translate(-12.05 -11.5)">
    <g id="Group_2" data-name="Group 2" transform="translate(10.05 10.5)">
      <g id="Shape_7_2_" transform="translate(0 0)">
        <g id="Group_1" data-name="Group 1">
          <path id="Path_1" data-name="Path 1" d="M21,21.243l-2.346-2.314h0a4.861,4.861,0,0,0,0-6.982,5.118,5.118,0,0,0-7.133,0,4.87,4.87,0,0,0,0,6.983,5.123,5.123,0,0,0,6.848.258l.011-.009,2.448,2.283Zm-5.912-1.234a4.69,4.69,0,0,1-3.3-1.339,4.508,4.508,0,0,1,0-6.464,4.743,4.743,0,0,1,6.606,0,4.5,4.5,0,0,1,0,6.466c-.085.083-.173.163-.263.24A4.735,4.735,0,0,1,15.091,20.009Z" transform="translate(-8.05 -9.5)" fill="#ec6337"/>
        </g>
      </g>
    </g>
  </g>
</svg>
