<svg xmlns="http://www.w3.org/2000/svg" width="21.678" height="17.609" viewBox="0 0 21.678 17.609">
  <path id="twitter" d="M21.667,62.13a8.749,8.749,0,0,1-2.552.7,4.474,4.474,0,0,0,1.956-2.459,8.955,8.955,0,0,1-2.824,1.079,4.45,4.45,0,0,0-7.691,3.043,4.508,4.508,0,0,0,.114,1.012,12.626,12.626,0,0,1-9.164-4.648A4.451,4.451,0,0,0,2.881,66.79a4.471,4.471,0,0,1-2.015-.554v.056a4.446,4.446,0,0,0,3.567,4.36,4.473,4.473,0,0,1-1.172.157,4.664,4.664,0,0,1-.839-.08,4.46,4.46,0,0,0,4.153,3.089,8.918,8.918,0,0,1-5.524,1.9,8.873,8.873,0,0,1-1.061-.064,12.576,12.576,0,0,0,6.818,2A12.568,12.568,0,0,0,19.46,65.005c0-.2,0-.384-.012-.576a8.915,8.915,0,0,0,2.217-2.3l0,0Z" transform="translate(0.011 -60.048)" fill="#fff" fill-rule="evenodd"/>
</svg>
