<svg xmlns="http://www.w3.org/2000/svg" xmlns:xlink="http://www.w3.org/1999/xlink" width="57" height="57" viewBox="0 0 57 57">
  <defs>
    <filter id="Ellipse_2161" x="0" y="0" width="57" height="57" filterUnits="userSpaceOnUse">
      <feOffset dy="3" input="SourceAlpha"/>
      <feGaussianBlur stdDeviation="3" result="blur"/>
      <feFlood flood-opacity="0.161"/>
      <feComposite operator="in" in2="blur"/>
      <feComposite in="SourceGraphic"/>
    </filter>
    <filter id="Ellipse_2158" x="18.262" y="11.34" width="21.164" height="21.164" filterUnits="userSpaceOnUse">
      <feOffset dy="3" input="SourceAlpha"/>
      <feGaussianBlur stdDeviation="3" result="blur-2"/>
      <feFlood flood-opacity="0.161"/>
      <feComposite operator="in" in2="blur-2"/>
      <feComposite in="SourceGraphic"/>
    </filter>
    <filter id="Ellipse_2159" x="18.262" y="17.242" width="21.164" height="21.164" filterUnits="userSpaceOnUse">
      <feOffset dy="3" input="SourceAlpha"/>
      <feGaussianBlur stdDeviation="3" result="blur-3"/>
      <feFlood flood-opacity="0.161"/>
      <feComposite operator="in" in2="blur-3"/>
      <feComposite in="SourceGraphic"/>
    </filter>
    <filter id="Ellipse_2160" x="18.262" y="23.799" width="21.164" height="21.164" filterUnits="userSpaceOnUse">
      <feOffset dy="3" input="SourceAlpha"/>
      <feGaussianBlur stdDeviation="3" result="blur-4"/>
      <feFlood flood-opacity="0.161"/>
      <feComposite operator="in" in2="blur-4"/>
      <feComposite in="SourceGraphic"/>
    </filter>
  </defs>
  <g id="vdot" transform="translate(9 6)">
    <g id="Component_27_7" data-name="Component 27 – 7">
      <g transform="matrix(1, 0, 0, 1, -9, -6)" filter="url(#Ellipse_2161)">
        <circle id="Ellipse_2161-2" data-name="Ellipse 2161" cx="19.5" cy="19.5" r="19.5" transform="translate(9 6)" fill="#fff"/>
      </g>
    </g>
    <g id="Component_28_1" data-name="Component 28 – 1" transform="translate(18.262 11.34)">
      <g transform="matrix(1, 0, 0, 1, -27.26, -17.34)" filter="url(#Ellipse_2158)">
        <ellipse id="Ellipse_2158-2" data-name="Ellipse 2158" cx="1.582" cy="1.582" rx="1.582" ry="1.582" transform="translate(30.43 17.34) rotate(90)" fill="#ec6337"/>
      </g>
      <g transform="matrix(1, 0, 0, 1, -27.26, -17.34)" filter="url(#Ellipse_2159)">
        <ellipse id="Ellipse_2159-2" data-name="Ellipse 2159" cx="1.582" cy="1.582" rx="1.582" ry="1.582" transform="translate(30.43 23.24) rotate(90)" fill="#ec6337"/>
      </g>
      <g transform="matrix(1, 0, 0, 1, -27.26, -17.34)" filter="url(#Ellipse_2160)">
        <ellipse id="Ellipse_2160-2" data-name="Ellipse 2160" cx="1.582" cy="1.582" rx="1.582" ry="1.582" transform="translate(30.43 29.8) rotate(90)" fill="#ec6337"/>
      </g>
    </g>
  </g>
</svg>
