<svg xmlns="http://www.w3.org/2000/svg" xmlns:xlink="http://www.w3.org/1999/xlink" width="41.17" height="40.244" viewBox="0 0 41.17 40.244">
  <defs>
    <filter id="Ellipse_2197" x="0" y="0" width="41.17" height="40.244" filterUnits="userSpaceOnUse">
      <feOffset dy="3" input="SourceAlpha"/>
      <feGaussianBlur stdDeviation="3" result="blur"/>
      <feFlood flood-opacity="0.161"/>
      <feComposite operator="in" in2="blur"/>
      <feComposite in="SourceGraphic"/>
    </filter>
  </defs>
  <g id="Group_10642" data-name="Group 10642" transform="translate(-282 -774)">
    <g transform="matrix(1, 0, 0, 1, 282, 774)" filter="url(#Ellipse_2197)">
      <ellipse id="Ellipse_2197-2" data-name="Ellipse 2197" cx="11.585" cy="11.122" rx="11.585" ry="11.122" transform="translate(9 6)" fill="#fff"/>
    </g>
    <g id="Group_10638" data-name="Group 10638" transform="translate(297 786)">
      <path id="Path_9223" data-name="Path 9223" d="M153.668,84.914a5.013,5.013,0,0,0-4.392,7.432l-.944,2.285a.225.225,0,0,0,.208.311.222.222,0,0,0,.059-.008l2.518-.689a5.014,5.014,0,1,0,2.551-9.33Zm0,9.578a4.552,4.552,0,0,1-2.4-.681.224.224,0,0,0-.178-.026l-2.169.594.811-1.962a.225.225,0,0,0-.013-.2,4.564,4.564,0,1,1,3.947,2.274Z" transform="translate(-148.315 -84.914)" fill="#ec6337"/>
      <path id="Path_9224" data-name="Path 9224" d="M254.671,186.4l-1.087-.568a.225.225,0,0,0-.236.017l-.917.664a6.155,6.155,0,0,1-.829-.729l-.011-.01-.009-.01a3.88,3.88,0,0,1-.482-.546l.679-.938a.225.225,0,0,0,.017-.236l-.568-1.087a.225.225,0,0,0-.3-.1l-1.006.519a.225.225,0,0,0-.112.265,5.59,5.59,0,0,0,1.469,2.448,6.621,6.621,0,0,0,2.706,1.727.225.225,0,0,0,.265-.112l.519-1.006a.225.225,0,0,0-.1-.3Zm-4.376-2.707.638-.329.4.766-.5.694A5.581,5.581,0,0,1,250.3,183.694Zm3.641,3.639a5.464,5.464,0,0,1-1.112-.548l.675-.489.766.4Z" transform="translate(-247.19 -180.321)" fill="#ec6337"/>
    </g>
  </g>
</svg>
